<?xml version="1.0" encoding="UTF-8"?>
<svg xmlns="http://www.w3.org/2000/svg" xmlns:xlink="http://www.w3.org/1999/xlink" width="410.859pt" height="197.659pt" viewBox="0 0 410.859 197.659" version="1.1">
<g id="surface1">
<path style="fill-rule:nonzero;fill:rgb(100%,100%,100%);fill-opacity:1;stroke-width:0.3985;stroke-linecap:butt;stroke-linejoin:miter;stroke:rgb(100%,100%,100%);stroke-opacity:1;stroke-miterlimit:10;" d="M -16.537781 103.611781 L 393.927062 103.611781 L 393.927062 -93.649938 L -16.537781 -93.649938 Z M -16.537781 103.611781 " transform="matrix(1,0,0,-1,16.737,103.811)"/>
<path style="fill:none;stroke-width:0.68146;stroke-linecap:butt;stroke-linejoin:miter;stroke:rgb(0%,0%,0%);stroke-opacity:1;stroke-miterlimit:10;" d="M 41.837219 19.486781 L 31.610656 25.947719 " transform="matrix(1,0,0,-1,16.737,103.811)"/>
<path style="fill-rule:nonzero;fill:rgb(0%,0%,0%);fill-opacity:1;stroke-width:0.68146;stroke-linecap:butt;stroke-linejoin:miter;stroke:rgb(0%,0%,0%);stroke-opacity:1;stroke-miterlimit:10;" d="M -4.875828 3.006734 L 0.336503 -0.00330867 L -4.874052 -3.011633 Z M -4.875828 3.006734 " transform="matrix(-0.30435,-0.19221,-0.19221,0.30435,52.96506,80.78053)"/>
<path style="fill:none;stroke-width:0.68146;stroke-linecap:butt;stroke-linejoin:miter;stroke:rgb(0%,0%,0%);stroke-opacity:1;stroke-miterlimit:10;" d="M 49.411437 37.662562 L 39.184875 44.119594 " transform="matrix(1,0,0,-1,16.737,103.811)"/>
<path style="fill-rule:nonzero;fill:rgb(0%,0%,0%);fill-opacity:1;stroke-width:0.68146;stroke-linecap:butt;stroke-linejoin:miter;stroke:rgb(0%,0%,0%);stroke-opacity:1;stroke-miterlimit:10;" d="M -4.873183 3.012627 L 0.329973 -0.00321084 L -4.871408 -3.00574 Z M -4.873183 3.012627 " transform="matrix(-0.30435,-0.19221,-0.19221,0.30435,60.53731,62.60737)"/>
<path style="fill:none;stroke-width:0.68146;stroke-linecap:butt;stroke-linejoin:miter;stroke:rgb(0%,0%,0%);stroke-opacity:1;stroke-miterlimit:10;" d="M 41.645812 17.232875 L 24.23175 10.025844 " transform="matrix(1,0,0,-1,16.737,103.811)"/>
<path style="fill-rule:nonzero;fill:rgb(0%,0%,0%);fill-opacity:1;stroke-width:0.68146;stroke-linecap:butt;stroke-linejoin:miter;stroke:rgb(0%,0%,0%);stroke-opacity:1;stroke-miterlimit:10;" d="M -4.874329 3.005017 L 0.331739 0.00540468 L -4.872792 -3.008305 Z M -4.874329 3.005017 " transform="matrix(-0.33263,0.13763,0.13763,0.33263,49.13304,90.40567)"/>
<path style="fill:none;stroke-width:0.68146;stroke-linecap:butt;stroke-linejoin:miter;stroke:rgb(0%,0%,0%);stroke-opacity:1;stroke-miterlimit:10;" d="M 49.216125 35.40475 L 31.805969 28.201625 " transform="matrix(1,0,0,-1,16.737,103.811)"/>
<path style="fill-rule:nonzero;fill:rgb(0%,0%,0%);fill-opacity:1;stroke-width:0.68146;stroke-linecap:butt;stroke-linejoin:miter;stroke:rgb(0%,0%,0%);stroke-opacity:1;stroke-miterlimit:10;" d="M -4.878134 3.010635 L 0.333812 -0.00315321 L -4.876597 -3.002688 Z M -4.878134 3.010635 " transform="matrix(-0.33263,0.13763,0.13763,0.33263,56.70522,72.23245)"/>
<path style="fill:none;stroke-width:0.68146;stroke-linecap:butt;stroke-linejoin:miter;stroke:rgb(0%,0%,0%);stroke-opacity:1;stroke-miterlimit:10;" d="M 34.266906 1.314906 L 24.040344 7.771937 " transform="matrix(1,0,0,-1,16.737,103.811)"/>
<path style="fill-rule:nonzero;fill:rgb(0%,0%,0%);fill-opacity:1;stroke-width:0.68146;stroke-linecap:butt;stroke-linejoin:miter;stroke:rgb(0%,0%,0%);stroke-opacity:1;stroke-miterlimit:10;" d="M -4.86913 3.006216 L 0.328231 -0.000446143 L -4.87315 -3.002975 Z M -4.86913 3.006216 " transform="matrix(-0.30435,-0.19221,-0.19221,0.30435,45.39278,98.95385)"/>
<path style="fill:none;stroke-width:0.68146;stroke-linecap:butt;stroke-linejoin:miter;stroke:rgb(0%,0%,0%);stroke-opacity:1;stroke-miterlimit:10;" d="M 56.032531 8.146937 L 38.618469 0.939906 " transform="matrix(1,0,0,-1,16.737,103.811)"/>
<path style="fill-rule:nonzero;fill:rgb(0%,0%,0%);fill-opacity:1;stroke-width:0.68146;stroke-linecap:butt;stroke-linejoin:miter;stroke:rgb(0%,0%,0%);stroke-opacity:1;stroke-miterlimit:10;" d="M -4.874086 3.002835 L 0.331982 0.00322219 L -4.872549 -3.010488 Z M -4.874086 3.002835 " transform="matrix(-0.33263,0.13763,0.13763,0.33263,63.52014,99.4923)"/>
<path style="fill:none;stroke-width:0.68146;stroke-linecap:butt;stroke-linejoin:miter;stroke:rgb(0%,0%,0%);stroke-opacity:1;stroke-miterlimit:10;" d="M 63.602844 26.318812 L 46.192687 19.115687 " transform="matrix(1,0,0,-1,16.737,103.811)"/>
<path style="fill-rule:nonzero;fill:rgb(0%,0%,0%);fill-opacity:1;stroke-width:0.68146;stroke-linecap:butt;stroke-linejoin:miter;stroke:rgb(0%,0%,0%);stroke-opacity:1;stroke-miterlimit:10;" d="M -4.877989 3.008433 L 0.333957 -0.00535518 L -4.876452 -3.00489 Z M -4.877989 3.008433 " transform="matrix(-0.33263,0.13763,0.13763,0.33263,71.09229,81.3191)"/>
<path style="fill:none;stroke-width:0.68146;stroke-linecap:butt;stroke-linejoin:miter;stroke:rgb(0%,0%,0%);stroke-opacity:1;stroke-miterlimit:10;" d="M 71.177063 44.490687 L 53.763 37.287562 " transform="matrix(1,0,0,-1,16.737,103.811)"/>
<path style="fill-rule:nonzero;fill:rgb(0%,0%,0%);fill-opacity:1;stroke-width:0.68146;stroke-linecap:butt;stroke-linejoin:miter;stroke:rgb(0%,0%,0%);stroke-opacity:1;stroke-miterlimit:10;" d="M -4.871844 3.009934 L 0.330076 0.000294479 L -4.874456 -3.013416 Z M -4.871844 3.009934 " transform="matrix(-0.33263,0.13763,0.13763,0.33263,78.66444,63.14588)"/>
<path style="fill:none;stroke-width:0.68146;stroke-linecap:butt;stroke-linejoin:miter;stroke:rgb(0%,0%,0%);stroke-opacity:1;stroke-miterlimit:10;" d="M 56.223937 10.400844 L 45.997375 16.857875 " transform="matrix(1,0,0,-1,16.737,103.811)"/>
<path style="fill-rule:nonzero;fill:rgb(0%,0%,0%);fill-opacity:1;stroke-width:0.68146;stroke-linecap:butt;stroke-linejoin:miter;stroke:rgb(0%,0%,0%);stroke-opacity:1;stroke-miterlimit:10;" d="M -4.874108 3.005578 L 0.332429 0.00471033 L -4.878127 -3.003614 Z M -4.874108 3.005578 " transform="matrix(-0.30435,-0.19221,-0.19221,0.30435,67.35208,89.86715)"/>
<path style="fill:none;stroke-width:0.68146;stroke-linecap:butt;stroke-linejoin:miter;stroke:rgb(0%,0%,0%);stroke-opacity:1;stroke-miterlimit:10;" d="M 63.798156 28.572719 L 53.571594 35.033656 " transform="matrix(1,0,0,-1,16.737,103.811)"/>
<path style="fill-rule:nonzero;fill:rgb(0%,0%,0%);fill-opacity:1;stroke-width:0.68146;stroke-linecap:butt;stroke-linejoin:miter;stroke:rgb(0%,0%,0%);stroke-opacity:1;stroke-miterlimit:10;" d="M -4.880761 3.006026 L 0.33157 -0.00401721 L -4.878985 -3.012341 Z M -4.880761 3.006026 " transform="matrix(-0.30435,-0.19221,-0.19221,0.30435,74.92436,71.69386)"/>
<path style="fill:none;stroke-width:0.68146;stroke-linecap:butt;stroke-linejoin:miter;stroke:rgb(0%,0%,0%);stroke-opacity:1;stroke-miterlimit:10;" d="M 70.610656 1.314906 L 60.388 7.771937 " transform="matrix(1,0,0,-1,16.737,103.811)"/>
<path style="fill-rule:nonzero;fill:rgb(0%,0%,0%);fill-opacity:1;stroke-width:0.68146;stroke-linecap:butt;stroke-linejoin:miter;stroke:rgb(0%,0%,0%);stroke-opacity:1;stroke-miterlimit:10;" d="M -4.872398 3.004646 L 0.334139 0.00377787 L -4.876417 -3.004546 Z M -4.872398 3.004646 " transform="matrix(-0.30435,-0.19221,-0.19221,0.30435,81.73914,98.9537)"/>
<path style="fill:none;stroke-width:0.68146;stroke-linecap:butt;stroke-linejoin:miter;stroke:rgb(0%,0%,0%);stroke-opacity:1;stroke-miterlimit:10;" d="M 78.184875 19.486781 L 67.958313 25.947719 " transform="matrix(1,0,0,-1,16.737,103.811)"/>
<path style="fill-rule:nonzero;fill:rgb(0%,0%,0%);fill-opacity:1;stroke-width:0.68146;stroke-linecap:butt;stroke-linejoin:miter;stroke:rgb(0%,0%,0%);stroke-opacity:1;stroke-miterlimit:10;" d="M -4.878949 3.004829 L 0.333382 -0.00521423 L -4.877174 -3.013538 Z M -4.878949 3.004829 " transform="matrix(-0.30435,-0.19221,-0.19221,0.30435,89.3114,80.78051)"/>
<path style="fill:none;stroke-width:0.68146;stroke-linecap:butt;stroke-linejoin:miter;stroke:rgb(0%,0%,0%);stroke-opacity:1;stroke-miterlimit:10;" d="M 85.755188 37.662562 L 75.532531 44.119594 " transform="matrix(1,0,0,-1,16.737,103.811)"/>
<path style="fill-rule:nonzero;fill:rgb(0%,0%,0%);fill-opacity:1;stroke-width:0.68146;stroke-linecap:butt;stroke-linejoin:miter;stroke:rgb(0%,0%,0%);stroke-opacity:1;stroke-miterlimit:10;" d="M -4.876194 3.011119 L 0.336136 0.00107621 L -4.874419 -3.007248 Z M -4.876194 3.011119 " transform="matrix(-0.30435,-0.19221,-0.19221,0.30435,96.88376,62.60725)"/>
<path style="fill:none;stroke-width:0.68146;stroke-linecap:butt;stroke-linejoin:miter;stroke:rgb(0%,0%,0%);stroke-opacity:1;stroke-miterlimit:10;" d="M 77.989563 17.232875 L 60.579406 10.025844 " transform="matrix(1,0,0,-1,16.737,103.811)"/>
<path style="fill-rule:nonzero;fill:rgb(0%,0%,0%);fill-opacity:1;stroke-width:0.68146;stroke-linecap:butt;stroke-linejoin:miter;stroke:rgb(0%,0%,0%);stroke-opacity:1;stroke-miterlimit:10;" d="M -4.877855 3.006206 L 0.33824 0.00244411 L -4.876318 -3.007117 Z M -4.877855 3.006206 " transform="matrix(-0.33263,0.13763,0.13763,0.33263,85.47936,90.40576)"/>
<path style="fill:none;stroke-width:0.68146;stroke-linecap:butt;stroke-linejoin:miter;stroke:rgb(0%,0%,0%);stroke-opacity:1;stroke-miterlimit:10;" d="M 85.563781 35.40475 L 68.149719 28.201625 " transform="matrix(1,0,0,-1,16.737,103.811)"/>
<path style="fill-rule:nonzero;fill:rgb(0%,0%,0%);fill-opacity:1;stroke-width:0.68146;stroke-linecap:butt;stroke-linejoin:miter;stroke:rgb(0%,0%,0%);stroke-opacity:1;stroke-miterlimit:10;" d="M -4.871667 3.007809 L 0.330252 -0.00183048 L -4.87013 -3.005514 Z M -4.871667 3.007809 " transform="matrix(-0.33263,0.13763,0.13763,0.33263,93.05151,72.2325)"/>
<path style="fill:none;stroke-width:0.68146;stroke-linecap:butt;stroke-linejoin:miter;stroke:rgb(0%,0%,0%);stroke-opacity:1;stroke-miterlimit:10;" d="M 92.376281 8.146937 L 74.966125 0.939906 " transform="matrix(1,0,0,-1,16.737,103.811)"/>
<path style="fill-rule:nonzero;fill:rgb(0%,0%,0%);fill-opacity:1;stroke-width:0.68146;stroke-linecap:butt;stroke-linejoin:miter;stroke:rgb(0%,0%,0%);stroke-opacity:1;stroke-miterlimit:10;" d="M -4.877636 3.004183 L 0.33846 0.00042182 L -4.876098 -3.00914 Z M -4.877636 3.004183 " transform="matrix(-0.33263,0.13763,0.13763,0.33263,99.86643,99.49234)"/>
<path style="fill:none;stroke-width:0.68146;stroke-linecap:butt;stroke-linejoin:miter;stroke:rgb(0%,0%,0%);stroke-opacity:1;stroke-miterlimit:10;" d="M 99.9505 26.318812 L 82.540344 19.115687 " transform="matrix(1,0,0,-1,16.737,103.811)"/>
<path style="fill-rule:nonzero;fill:rgb(0%,0%,0%);fill-opacity:1;stroke-width:0.68146;stroke-linecap:butt;stroke-linejoin:miter;stroke:rgb(0%,0%,0%);stroke-opacity:1;stroke-miterlimit:10;" d="M -4.871576 3.005479 L 0.330344 -0.00416079 L -4.880065 -3.003695 Z M -4.871576 3.005479 " transform="matrix(-0.33263,0.13763,0.13763,0.33263,107.43858,81.3192)"/>
<path style="fill:none;stroke-width:0.68146;stroke-linecap:butt;stroke-linejoin:miter;stroke:rgb(0%,0%,0%);stroke-opacity:1;stroke-miterlimit:10;" d="M 107.520813 44.490687 L 90.110656 37.287562 " transform="matrix(1,0,0,-1,16.737,103.811)"/>
<path style="fill-rule:nonzero;fill:rgb(0%,0%,0%);fill-opacity:1;stroke-width:0.68146;stroke-linecap:butt;stroke-linejoin:miter;stroke:rgb(0%,0%,0%);stroke-opacity:1;stroke-miterlimit:10;" d="M -4.87541 3.011169 L 0.336536 -0.00261919 L -4.878022 -3.012181 Z M -4.87541 3.011169 " transform="matrix(-0.33263,0.13763,0.13763,0.33263,115.01074,63.14596)"/>
<path style="fill:none;stroke-width:0.68146;stroke-linecap:butt;stroke-linejoin:miter;stroke:rgb(0%,0%,0%);stroke-opacity:1;stroke-miterlimit:10;" d="M 92.571594 10.400844 L 82.345031 16.857875 " transform="matrix(1,0,0,-1,16.737,103.811)"/>
<path style="fill-rule:nonzero;fill:rgb(0%,0%,0%);fill-opacity:1;stroke-width:0.68146;stroke-linecap:butt;stroke-linejoin:miter;stroke:rgb(0%,0%,0%);stroke-opacity:1;stroke-miterlimit:10;" d="M -4.877328 3.004037 L 0.329208 0.00316947 L -4.881347 -3.005154 Z M -4.877328 3.004037 " transform="matrix(-0.30435,-0.19221,-0.19221,0.30435,103.69846,89.867)"/>
<path style="fill:none;stroke-width:0.68146;stroke-linecap:butt;stroke-linejoin:miter;stroke:rgb(0%,0%,0%);stroke-opacity:1;stroke-miterlimit:10;" d="M 100.141906 28.572719 L 89.91925 35.033656 " transform="matrix(1,0,0,-1,16.737,103.811)"/>
<path style="fill-rule:nonzero;fill:rgb(0%,0%,0%);fill-opacity:1;stroke-width:0.68146;stroke-linecap:butt;stroke-linejoin:miter;stroke:rgb(0%,0%,0%);stroke-opacity:1;stroke-miterlimit:10;" d="M -4.874749 3.010086 L 0.337582 0.0000423848 L -4.872973 -3.008281 Z M -4.874749 3.010086 " transform="matrix(-0.30435,-0.19221,-0.19221,0.30435,111.27072,71.69378)"/>
<path style="fill:none;stroke-width:0.68146;stroke-linecap:butt;stroke-linejoin:miter;stroke:rgb(100%,0%,0%);stroke-opacity:1;stroke-miterlimit:10;" d="M 25.177062 38.619594 L 23.282531 34.072719 " transform="matrix(1,0,0,-1,16.737,103.811)"/>
<path style="fill-rule:nonzero;fill:rgb(100%,0%,0%);fill-opacity:1;stroke-width:0.68146;stroke-linecap:butt;stroke-linejoin:miter;stroke:rgb(100%,0%,0%);stroke-opacity:1;stroke-miterlimit:10;" d="M -4.875792 3.013043 L 0.330449 -0.00219725 L -4.872608 -3.00465 Z M -4.875792 3.013043 " transform="matrix(-0.13844,0.33228,0.33228,0.13844,40.74179,68.00769)"/>
<path style="fill:none;stroke-width:0.68146;stroke-linecap:butt;stroke-linejoin:miter;stroke:rgb(100%,0%,0%);stroke-opacity:1;stroke-miterlimit:10;" d="M 21.391906 29.52975 L 19.497375 24.986781 " transform="matrix(1,0,0,-1,16.737,103.811)"/>
<path style="fill-rule:nonzero;fill:rgb(100%,0%,0%);fill-opacity:1;stroke-width:0.68146;stroke-linecap:butt;stroke-linejoin:miter;stroke:rgb(100%,0%,0%);stroke-opacity:1;stroke-miterlimit:10;" d="M -4.874191 3.004704 L 0.337894 0.00365434 L -4.87518 -3.002972 Z M -4.874191 3.004704 " transform="matrix(-0.13844,0.33228,0.33228,0.13844,36.95572,77.09425)"/>
<path style="fill:none;stroke-width:0.68146;stroke-linecap:butt;stroke-linejoin:miter;stroke:rgb(100%,0%,0%);stroke-opacity:1;stroke-miterlimit:10;" d="M 17.60675 20.443812 L 15.712219 15.900844 " transform="matrix(1,0,0,-1,16.737,103.811)"/>
<path style="fill-rule:nonzero;fill:rgb(100%,0%,0%);fill-opacity:1;stroke-width:0.68146;stroke-linecap:butt;stroke-linejoin:miter;stroke:rgb(100%,0%,0%);stroke-opacity:1;stroke-miterlimit:10;" d="M -4.876785 3.006434 L 0.3353 0.00538374 L -4.873601 -3.011259 Z M -4.876785 3.006434 " transform="matrix(-0.13844,0.33228,0.33228,0.13844,33.16963,86.18081)"/>
<path style="fill:none;stroke-width:0.68146;stroke-linecap:butt;stroke-linejoin:miter;stroke:rgb(100%,0%,0%);stroke-opacity:1;stroke-miterlimit:10;" d="M 13.817687 11.357875 L 11.927062 6.814906 " transform="matrix(1,0,0,-1,16.737,103.811)"/>
<path style="fill-rule:nonzero;fill:rgb(100%,0%,0%);fill-opacity:1;stroke-width:0.68146;stroke-linecap:butt;stroke-linejoin:miter;stroke:rgb(100%,0%,0%);stroke-opacity:1;stroke-miterlimit:10;" d="M -4.87942 3.008116 L 0.336839 -0.00295095 L -4.876235 -3.009577 Z M -4.87942 3.008116 " transform="matrix(-0.13844,0.33228,0.33228,0.13844,29.38355,95.26739)"/>
<path style="fill:none;stroke-width:0.68146;stroke-linecap:butt;stroke-linejoin:miter;stroke:rgb(0%,0%,0%);stroke-opacity:1;stroke-miterlimit:10;" d="M 2.274719 0.939906 L 8.704406 3.603969 " transform="matrix(1,0,0,-1,16.737,103.811)"/>
<path style="fill-rule:nonzero;fill:rgb(0%,0%,0%);fill-opacity:1;stroke-width:0.68146;stroke-linecap:butt;stroke-linejoin:miter;stroke:rgb(0%,0%,0%);stroke-opacity:1;stroke-miterlimit:10;" d="M -4.874251 3.009975 L 0.337696 -0.00381297 L -4.876862 -3.013374 Z M -4.874251 3.009975 " transform="matrix(0.33263,-0.13763,-0.13763,-0.33263,22.76996,101.31474)"/>
<path style="fill:none;stroke-width:0.68146;stroke-linecap:butt;stroke-linejoin:miter;stroke:rgb(0%,0%,0%);stroke-opacity:1;stroke-miterlimit:10;" d="M 19.684875 8.146937 L 13.255187 5.482875 " transform="matrix(1,0,0,-1,16.737,103.811)"/>
<path style="fill-rule:nonzero;fill:rgb(0%,0%,0%);fill-opacity:1;stroke-width:0.68146;stroke-linecap:butt;stroke-linejoin:miter;stroke:rgb(0%,0%,0%);stroke-opacity:1;stroke-miterlimit:10;" d="M -4.876005 3.009397 L 0.335942 -0.00439134 L -4.874467 -3.003926 Z M -4.876005 3.009397 " transform="matrix(-0.33263,0.13763,0.13763,0.33263,32.66313,97.22085)"/>
<path style="fill:none;stroke-width:0.68146;stroke-linecap:butt;stroke-linejoin:miter;stroke:rgb(0%,0%,0%);stroke-opacity:1;stroke-miterlimit:10;" d="M 19.880187 10.400844 L 16.845031 12.314906 " transform="matrix(1,0,0,-1,16.737,103.811)"/>
<path style="fill-rule:nonzero;fill:rgb(0%,0%,0%);fill-opacity:1;stroke-width:0.68146;stroke-linecap:butt;stroke-linejoin:miter;stroke:rgb(0%,0%,0%);stroke-opacity:1;stroke-miterlimit:10;" d="M -4.876776 3.01078 L 0.335227 0.000556492 L -4.875321 -3.007394 Z M -4.876776 3.01078 " transform="matrix(-0.30437,-0.1922,-0.1922,0.30437,34.60214,92.13848)"/>
<path style="fill:none;stroke-width:0.68146;stroke-linecap:butt;stroke-linejoin:miter;stroke:rgb(0%,0%,0%);stroke-opacity:1;stroke-miterlimit:10;" d="M 9.653625 16.857875 L 12.684875 14.943812 " transform="matrix(1,0,0,-1,16.737,103.811)"/>
<path style="fill-rule:nonzero;fill:rgb(0%,0%,0%);fill-opacity:1;stroke-width:0.68146;stroke-linecap:butt;stroke-linejoin:miter;stroke:rgb(0%,0%,0%);stroke-opacity:1;stroke-miterlimit:10;" d="M -4.878961 3.004456 L 0.333511 -0.00491245 L -4.876531 -3.013695 Z M -4.878961 3.004456 " transform="matrix(0.30434,0.19225,0.19225,-0.30434,28.40335,88.22345)"/>
<path style="fill:none;stroke-width:0.68146;stroke-linecap:butt;stroke-linejoin:miter;stroke:rgb(0%,0%,0%);stroke-opacity:1;stroke-miterlimit:10;" d="M 27.259094 26.318812 L 20.8255 23.658656 " transform="matrix(1,0,0,-1,16.737,103.811)"/>
<path style="fill-rule:nonzero;fill:rgb(0%,0%,0%);fill-opacity:1;stroke-width:0.68146;stroke-linecap:butt;stroke-linejoin:miter;stroke:rgb(0%,0%,0%);stroke-opacity:1;stroke-miterlimit:10;" d="M -4.869815 3.01115 L 0.332104 0.00151058 L -4.872427 -3.0122 Z M -4.869815 3.01115 " transform="matrix(-0.33263,0.13763,0.13763,0.33263,40.23526,79.04754)"/>
<path style="fill:none;stroke-width:0.68146;stroke-linecap:butt;stroke-linejoin:miter;stroke:rgb(0%,0%,0%);stroke-opacity:1;stroke-miterlimit:10;" d="M 9.845031 19.115687 L 16.278625 21.775844 " transform="matrix(1,0,0,-1,16.737,103.811)"/>
<path style="fill-rule:nonzero;fill:rgb(0%,0%,0%);fill-opacity:1;stroke-width:0.68146;stroke-linecap:butt;stroke-linejoin:miter;stroke:rgb(0%,0%,0%);stroke-opacity:1;stroke-miterlimit:10;" d="M -4.88043 3.008248 L 0.335666 0.00448647 L -4.878892 -3.005075 Z M -4.88043 3.008248 " transform="matrix(0.33263,-0.13763,-0.13763,-0.33263,30.34209,83.14144)"/>
<path style="fill:none;stroke-width:0.68146;stroke-linecap:butt;stroke-linejoin:miter;stroke:rgb(0%,0%,0%);stroke-opacity:1;stroke-miterlimit:10;" d="M 27.4505 28.572719 L 24.41925 30.490687 " transform="matrix(1,0,0,-1,16.737,103.811)"/>
<path style="fill-rule:nonzero;fill:rgb(0%,0%,0%);fill-opacity:1;stroke-width:0.68146;stroke-linecap:butt;stroke-linejoin:miter;stroke:rgb(0%,0%,0%);stroke-opacity:1;stroke-miterlimit:10;" d="M -4.877543 3.002792 L 0.328679 0.00141065 L -4.882164 -3.006384 Z M -4.877543 3.002792 " transform="matrix(-0.30437,-0.19218,-0.19218,0.30437,42.17453,73.96508)"/>
<path style="fill:none;stroke-width:0.68146;stroke-linecap:butt;stroke-linejoin:miter;stroke:rgb(0%,0%,0%);stroke-opacity:1;stroke-miterlimit:10;" d="M 17.223937 35.033656 L 20.259094 33.115687 " transform="matrix(1,0,0,-1,16.737,103.811)"/>
<path style="fill-rule:nonzero;fill:rgb(0%,0%,0%);fill-opacity:1;stroke-width:0.68146;stroke-linecap:butt;stroke-linejoin:miter;stroke:rgb(0%,0%,0%);stroke-opacity:1;stroke-miterlimit:10;" d="M -4.878135 3.012608 L 0.33433 0.00340732 L -4.875564 -3.005453 Z M -4.878135 3.012608 " transform="matrix(0.30434,0.19226,0.19226,-0.30434,35.97572,70.05004)"/>
<path style="fill:none;stroke-width:0.68146;stroke-linecap:butt;stroke-linejoin:miter;stroke:rgb(0%,0%,0%);stroke-opacity:1;stroke-miterlimit:10;" d="M 34.829406 44.490687 L 28.395812 41.830531 " transform="matrix(1,0,0,-1,16.737,103.811)"/>
<path style="fill-rule:nonzero;fill:rgb(0%,0%,0%);fill-opacity:1;stroke-width:0.68146;stroke-linecap:butt;stroke-linejoin:miter;stroke:rgb(0%,0%,0%);stroke-opacity:1;stroke-miterlimit:10;" d="M -4.878034 3.006881 L 0.338265 0.00285485 L -4.876624 -3.00675 Z M -4.878034 3.006881 " transform="matrix(-0.33261,0.13763,0.13763,0.33261,47.80743,60.87437)"/>
<path style="fill:none;stroke-width:0.68146;stroke-linecap:butt;stroke-linejoin:miter;stroke:rgb(0%,0%,0%);stroke-opacity:1;stroke-miterlimit:10;" d="M 17.41925 37.287562 L 23.848937 39.947719 " transform="matrix(1,0,0,-1,16.737,103.811)"/>
<path style="fill-rule:nonzero;fill:rgb(0%,0%,0%);fill-opacity:1;stroke-width:0.68146;stroke-linecap:butt;stroke-linejoin:miter;stroke:rgb(0%,0%,0%);stroke-opacity:1;stroke-miterlimit:10;" d="M -4.872411 3.012453 L 0.329642 0.0029153 L -4.874867 -3.01096 Z M -4.872411 3.012453 " transform="matrix(0.33263,-0.13762,-0.13762,-0.33263,37.91419,64.96821)"/>
<path style="fill:none;stroke-width:0.68146;stroke-linecap:butt;stroke-linejoin:miter;stroke:rgb(50%,50%,50%);stroke-opacity:1;stroke-miterlimit:10;" d="M 0.00128125 5.678187 L 0.00128125 2.459437 " transform="matrix(1,0,0,-1,16.737,103.811)"/>
<path style="fill-rule:nonzero;fill:rgb(50%,50%,50%);fill-opacity:1;stroke-width:0.68146;stroke-linecap:butt;stroke-linejoin:miter;stroke:rgb(50%,50%,50%);stroke-opacity:1;stroke-miterlimit:10;" d="M -4.875781 3.009201 L 0.332552 0.00355903 L -4.875781 -3.012934 Z M -4.875781 3.009201 " transform="matrix(0,0.36,0.36,0,16.737,100.3295)"/>
<path style="fill:none;stroke-width:0.68146;stroke-linecap:butt;stroke-linejoin:miter;stroke:rgb(50%,50%,50%);stroke-opacity:1;stroke-miterlimit:10;" d="M 21.958312 14.764125 L 21.958312 11.549281 " transform="matrix(1,0,0,-1,16.737,103.811)"/>
<path style="fill-rule:nonzero;fill:rgb(50%,50%,50%);fill-opacity:1;stroke-width:0.68146;stroke-linecap:butt;stroke-linejoin:miter;stroke:rgb(50%,50%,50%);stroke-opacity:1;stroke-miterlimit:10;" d="M -4.873882 3.003194 L 0.334346 -0.00296544 L -4.874383 -3.008257 Z M -4.873882 3.003194 " transform="matrix(0.00003,0.35999,0.35999,-0.00003,38.69637,91.24292)"/>
<path style="fill:none;stroke-width:0.68146;stroke-linecap:butt;stroke-linejoin:miter;stroke:rgb(50%,50%,50%);stroke-opacity:1;stroke-miterlimit:10;" d="M 7.571594 23.850062 L 7.571594 20.635219 " transform="matrix(1,0,0,-1,16.737,103.811)"/>
<path style="fill-rule:nonzero;fill:rgb(50%,50%,50%);fill-opacity:1;stroke-width:0.68146;stroke-linecap:butt;stroke-linejoin:miter;stroke:rgb(50%,50%,50%);stroke-opacity:1;stroke-miterlimit:10;" d="M -4.872375 3.004125 L 0.336103 -0.00160074 L -4.872375 -3.007327 Z M -4.872375 3.004125 " transform="matrix(0,0.35999,0.35999,0,24.30917,82.15635)"/>
<path style="fill:none;stroke-width:0.68146;stroke-linecap:butt;stroke-linejoin:miter;stroke:rgb(50%,50%,50%);stroke-opacity:1;stroke-miterlimit:10;" d="M 29.532531 32.939906 L 29.532531 29.721156 " transform="matrix(1,0,0,-1,16.737,103.811)"/>
<path style="fill-rule:nonzero;fill:rgb(50%,50%,50%);fill-opacity:1;stroke-width:0.68146;stroke-linecap:butt;stroke-linejoin:miter;stroke:rgb(50%,50%,50%);stroke-opacity:1;stroke-miterlimit:10;" d="M -4.881079 3.008824 L 0.337833 0.00237328 L -4.871064 -3.01348 Z M -4.881079 3.008824 " transform="matrix(0.00005,0.35999,0.35999,-0.00005,46.26866,73.06979)"/>
<path style="fill:none;stroke-width:0.68146;stroke-linecap:butt;stroke-linejoin:miter;stroke:rgb(50%,50%,50%);stroke-opacity:1;stroke-miterlimit:10;" d="M 15.145812 42.025844 L 15.145812 38.807094 " transform="matrix(1,0,0,-1,16.737,103.811)"/>
<path style="fill-rule:nonzero;fill:rgb(50%,50%,50%);fill-opacity:1;stroke-width:0.68146;stroke-linecap:butt;stroke-linejoin:miter;stroke:rgb(50%,50%,50%);stroke-opacity:1;stroke-miterlimit:10;" d="M -4.879545 3.009726 L 0.339617 0.0037104 L -4.879879 -3.012576 Z M -4.879545 3.009726 " transform="matrix(0.00002,0.35999,0.35999,-0.00002,31.88147,63.98321)"/>
<path style="fill:none;stroke-width:0.68146;stroke-linecap:butt;stroke-linejoin:miter;stroke:rgb(50%,50%,50%);stroke-opacity:1;stroke-miterlimit:10;" d="M 37.102844 51.111781 L 37.102844 47.893031 " transform="matrix(1,0,0,-1,16.737,103.811)"/>
<path style="fill-rule:nonzero;fill:rgb(50%,50%,50%);fill-opacity:1;stroke-width:0.68146;stroke-linecap:butt;stroke-linejoin:miter;stroke:rgb(50%,50%,50%);stroke-opacity:1;stroke-miterlimit:10;" d="M -4.877482 3.003521 L 0.330495 -0.00307253 L -4.878484 -3.00793 Z M -4.877482 3.003521 " transform="matrix(0.00006,0.35999,0.35999,-0.00006,53.84093,54.89665)"/>
<path style="fill:none;stroke-width:0.68146;stroke-linecap:butt;stroke-linejoin:miter;stroke:rgb(50%,50%,50%);stroke-opacity:1;stroke-miterlimit:10;" d="M 36.345031 5.678187 L 36.345031 2.459437 " transform="matrix(1,0,0,-1,16.737,103.811)"/>
<path style="fill-rule:nonzero;fill:rgb(50%,50%,50%);fill-opacity:1;stroke-width:0.68146;stroke-linecap:butt;stroke-linejoin:miter;stroke:rgb(50%,50%,50%);stroke-opacity:1;stroke-miterlimit:10;" d="M -4.875443 3.01298 L 0.332616 -0.00432062 L -4.876279 -3.009323 Z M -4.875443 3.01298 " transform="matrix(0.00005,0.35999,0.35999,-0.00005,53.08357,100.32948)"/>
<path style="fill:none;stroke-width:0.68146;stroke-linecap:butt;stroke-linejoin:miter;stroke:rgb(50%,50%,50%);stroke-opacity:1;stroke-miterlimit:10;" d="M 58.305969 14.764125 L 58.305969 11.549281 " transform="matrix(1,0,0,-1,16.737,103.811)"/>
<path style="fill-rule:nonzero;fill:rgb(50%,50%,50%);fill-opacity:1;stroke-width:0.68146;stroke-linecap:butt;stroke-linejoin:miter;stroke:rgb(50%,50%,50%);stroke-opacity:1;stroke-miterlimit:10;" d="M -4.873297 3.006521 L 0.334346 -0.00065192 L -4.874967 -3.004931 Z M -4.873297 3.006521 " transform="matrix(0.0001,0.35999,0.35999,-0.0001,75.04317,91.24292)"/>
<path style="fill:none;stroke-width:0.68146;stroke-linecap:butt;stroke-linejoin:miter;stroke:rgb(50%,50%,50%);stroke-opacity:1;stroke-miterlimit:10;" d="M 43.91925 23.850062 L 43.91925 20.635219 " transform="matrix(1,0,0,-1,16.737,103.811)"/>
<path style="fill-rule:nonzero;fill:rgb(50%,50%,50%);fill-opacity:1;stroke-width:0.68146;stroke-linecap:butt;stroke-linejoin:miter;stroke:rgb(50%,50%,50%);stroke-opacity:1;stroke-miterlimit:10;" d="M -4.871874 3.00776 L 0.336103 0.00116624 L -4.872876 -3.003691 Z M -4.871874 3.00776 " transform="matrix(0.00006,0.35999,0.35999,-0.00006,60.65581,82.15635)"/>
<path style="fill:none;stroke-width:0.68146;stroke-linecap:butt;stroke-linejoin:miter;stroke:rgb(50%,50%,50%);stroke-opacity:1;stroke-miterlimit:10;" d="M 65.876281 32.939906 L 65.880188 29.721156 " transform="matrix(1,0,0,-1,16.737,103.811)"/>
<path style="fill-rule:nonzero;fill:rgb(50%,50%,50%);fill-opacity:1;stroke-width:0.68146;stroke-linecap:butt;stroke-linejoin:miter;stroke:rgb(50%,50%,50%);stroke-opacity:1;stroke-miterlimit:10;" d="M -4.88066 3.012158 L 0.337834 0.00498268 L -4.871482 -3.010147 Z M -4.88066 3.012158 " transform="matrix(0.0001,0.35999,0.35999,-0.0001,82.61536,73.06979)"/>
<path style="fill:none;stroke-width:0.68146;stroke-linecap:butt;stroke-linejoin:miter;stroke:rgb(50%,50%,50%);stroke-opacity:1;stroke-miterlimit:10;" d="M 51.489562 42.025844 L 51.493469 38.807094 " transform="matrix(1,0,0,-1,16.737,103.811)"/>
<path style="fill-rule:nonzero;fill:rgb(50%,50%,50%);fill-opacity:1;stroke-width:0.68146;stroke-linecap:butt;stroke-linejoin:miter;stroke:rgb(50%,50%,50%);stroke-opacity:1;stroke-miterlimit:10;" d="M -4.878959 3.013331 L 0.339616 -0.00455031 L -4.880464 -3.008971 Z M -4.878959 3.013331 " transform="matrix(0.00009,0.35999,0.35999,-0.00009,68.22817,63.98321)"/>
<path style="fill:none;stroke-width:0.68146;stroke-linecap:butt;stroke-linejoin:miter;stroke:rgb(50%,50%,50%);stroke-opacity:1;stroke-miterlimit:10;" d="M 73.4505 51.111781 L 73.4505 47.893031 " transform="matrix(1,0,0,-1,16.737,103.811)"/>
<path style="fill-rule:nonzero;fill:rgb(50%,50%,50%);fill-opacity:1;stroke-width:0.68146;stroke-linecap:butt;stroke-linejoin:miter;stroke:rgb(50%,50%,50%);stroke-opacity:1;stroke-miterlimit:10;" d="M -4.876813 3.007122 L 0.330495 -0.000628543 L -4.879151 -3.004328 Z M -4.876813 3.007122 " transform="matrix(0.00014,0.35999,0.35999,-0.00014,90.18768,54.89665)"/>
<path style="fill:none;stroke-width:0.68146;stroke-linecap:butt;stroke-linejoin:miter;stroke:rgb(50%,50%,50%);stroke-opacity:1;stroke-miterlimit:10;" d="M 72.692688 5.678187 L 72.692688 2.459437 " transform="matrix(1,0,0,-1,16.737,103.811)"/>
<path style="fill-rule:nonzero;fill:rgb(50%,50%,50%);fill-opacity:1;stroke-width:0.68146;stroke-linecap:butt;stroke-linejoin:miter;stroke:rgb(50%,50%,50%);stroke-opacity:1;stroke-miterlimit:10;" d="M -4.874692 3.005754 L 0.332616 -0.00199746 L -4.87703 -3.005697 Z M -4.874692 3.005754 " transform="matrix(0.00014,0.35999,0.35999,-0.00014,89.43036,100.32948)"/>
<path style="fill:none;stroke-width:0.68146;stroke-linecap:butt;stroke-linejoin:miter;stroke:rgb(50%,50%,50%);stroke-opacity:1;stroke-miterlimit:10;" d="M 94.653625 14.764125 L 94.653625 11.549281 " transform="matrix(1,0,0,-1,16.737,103.811)"/>
<path style="fill-rule:nonzero;fill:rgb(50%,50%,50%);fill-opacity:1;stroke-width:0.68146;stroke-linecap:butt;stroke-linejoin:miter;stroke:rgb(50%,50%,50%);stroke-opacity:1;stroke-miterlimit:10;" d="M -4.872627 3.010315 L 0.334347 0.00198566 L -4.875638 -3.011986 Z M -4.872627 3.010315 " transform="matrix(0.00018,0.35999,0.35999,-0.00018,111.38985,91.24292)"/>
<path style="fill:none;stroke-width:0.68146;stroke-linecap:butt;stroke-linejoin:miter;stroke:rgb(50%,50%,50%);stroke-opacity:1;stroke-miterlimit:10;" d="M 80.263 23.850062 L 80.266906 20.635219 " transform="matrix(1,0,0,-1,16.737,103.811)"/>
<path style="fill-rule:nonzero;fill:rgb(50%,50%,50%);fill-opacity:1;stroke-width:0.68146;stroke-linecap:butt;stroke-linejoin:miter;stroke:rgb(50%,50%,50%);stroke-opacity:1;stroke-miterlimit:10;" d="M -4.87112 3.011356 L 0.336105 0.00346075 L -4.87363 -3.010945 Z M -4.87112 3.011356 " transform="matrix(0.00015,0.35999,0.35999,-0.00015,97.00261,82.15635)"/>
<path style="fill:none;stroke-width:0.68146;stroke-linecap:butt;stroke-linejoin:miter;stroke:rgb(50%,50%,50%);stroke-opacity:1;stroke-miterlimit:10;" d="M 102.223938 32.939906 L 102.223938 29.721156 " transform="matrix(1,0,0,-1,16.737,103.811)"/>
<path style="fill-rule:nonzero;fill:rgb(50%,50%,50%);fill-opacity:1;stroke-width:0.68146;stroke-linecap:butt;stroke-linejoin:miter;stroke:rgb(50%,50%,50%);stroke-opacity:1;stroke-miterlimit:10;" d="M -4.879994 3.004992 L 0.337831 -0.00334262 L -4.872149 -3.006463 Z M -4.879994 3.004992 " transform="matrix(0.00018,0.35999,0.35999,-0.00018,118.96208,73.06979)"/>
<path style="fill:none;stroke-width:0.68146;stroke-linecap:butt;stroke-linejoin:miter;stroke:rgb(50%,50%,50%);stroke-opacity:1;stroke-miterlimit:10;" d="M 87.837219 42.025844 L 87.837219 38.807094 " transform="matrix(1,0,0,-1,16.737,103.811)"/>
<path style="fill-rule:nonzero;fill:rgb(50%,50%,50%);fill-opacity:1;stroke-width:0.68146;stroke-linecap:butt;stroke-linejoin:miter;stroke:rgb(50%,50%,50%);stroke-opacity:1;stroke-miterlimit:10;" d="M -4.878459 3.005977 L 0.339616 -0.00192281 L -4.880964 -3.005473 Z M -4.878459 3.005977 " transform="matrix(0.00015,0.35999,0.35999,-0.00015,104.57486,63.98321)"/>
<path style="fill:none;stroke-width:0.68146;stroke-linecap:butt;stroke-linejoin:miter;stroke:rgb(50%,50%,50%);stroke-opacity:1;stroke-miterlimit:10;" d="M 109.79425 51.111781 L 109.798156 47.893031 " transform="matrix(1,0,0,-1,16.737,103.811)"/>
<path style="fill-rule:nonzero;fill:rgb(50%,50%,50%);fill-opacity:1;stroke-width:0.68146;stroke-linecap:butt;stroke-linejoin:miter;stroke:rgb(50%,50%,50%);stroke-opacity:1;stroke-miterlimit:10;" d="M -4.876226 3.010643 L 0.330496 0.00188018 L -4.87974 -3.011657 Z M -4.876226 3.010643 " transform="matrix(0.00021,0.35999,0.35999,-0.00021,126.53441,54.89665)"/>
<path style="fill-rule:nonzero;fill:rgb(0%,0%,0%);fill-opacity:1;stroke-width:0.75717;stroke-linecap:butt;stroke-linejoin:miter;stroke:rgb(0%,0%,0%);stroke-opacity:1;stroke-miterlimit:10;" d="M 2.462219 -0.0015 C 2.462219 1.357875 1.360656 2.459437 0.00128125 2.459437 C -1.358094 2.459437 -2.459656 1.357875 -2.459656 -0.0015 C -2.459656 -1.360875 -1.358094 -2.462438 0.00128125 -2.462438 C 1.360656 -2.462438 2.462219 -1.360875 2.462219 -0.0015 Z M 2.462219 -0.0015 " transform="matrix(1,0,0,-1,16.737,103.811)"/>
<path style="fill-rule:nonzero;fill:rgb(0%,0%,0%);fill-opacity:1;stroke-width:0.75717;stroke-linecap:butt;stroke-linejoin:miter;stroke:rgb(0%,0%,0%);stroke-opacity:1;stroke-miterlimit:10;" d="M 10.032531 18.174281 C 10.032531 19.52975 8.930969 20.631312 7.571594 20.631312 C 6.212219 20.631312 5.110656 19.52975 5.110656 18.174281 C 5.110656 16.814906 6.212219 15.713344 7.571594 15.713344 C 8.930969 15.713344 10.032531 16.814906 10.032531 18.174281 Z M 10.032531 18.174281 " transform="matrix(1,0,0,-1,16.737,103.811)"/>
<path style="fill-rule:nonzero;fill:rgb(0%,0%,0%);fill-opacity:1;stroke-width:0.75717;stroke-linecap:butt;stroke-linejoin:miter;stroke:rgb(0%,0%,0%);stroke-opacity:1;stroke-miterlimit:10;" d="M 17.602844 36.346156 C 17.602844 37.705531 16.501281 38.807094 15.141906 38.807094 C 13.786437 38.807094 12.680969 37.705531 12.680969 36.346156 C 12.680969 34.986781 13.786437 33.885219 15.141906 33.885219 C 16.501281 33.885219 17.602844 34.986781 17.602844 36.346156 Z M 17.602844 36.346156 " transform="matrix(1,0,0,-1,16.737,103.811)"/>
<path style="fill-rule:nonzero;fill:rgb(0%,0%,0%);fill-opacity:1;stroke-width:0.75717;stroke-linecap:butt;stroke-linejoin:miter;stroke:rgb(0%,0%,0%);stroke-opacity:1;stroke-miterlimit:10;" d="M 24.41925 9.084437 C 24.41925 10.443812 23.317687 11.545375 21.958312 11.545375 C 20.598937 11.545375 19.497375 10.443812 19.497375 9.084437 C 19.497375 7.728969 20.598937 6.6235 21.958312 6.6235 C 23.317687 6.6235 24.41925 7.728969 24.41925 9.084437 Z M 24.41925 9.084437 " transform="matrix(1,0,0,-1,16.737,103.811)"/>
<path style="fill-rule:nonzero;fill:rgb(0%,0%,0%);fill-opacity:1;stroke-width:0.75717;stroke-linecap:butt;stroke-linejoin:miter;stroke:rgb(0%,0%,0%);stroke-opacity:1;stroke-miterlimit:10;" d="M 31.989562 27.260219 C 31.989562 28.619594 30.888 29.721156 29.528625 29.721156 C 28.16925 29.721156 27.067687 28.619594 27.067687 27.260219 C 27.067687 25.900844 28.16925 24.799281 29.528625 24.799281 C 30.888 24.799281 31.989562 25.900844 31.989562 27.260219 Z M 31.989562 27.260219 " transform="matrix(1,0,0,-1,16.737,103.811)"/>
<path style="fill-rule:nonzero;fill:rgb(0%,0%,0%);fill-opacity:1;stroke-width:0.75717;stroke-linecap:butt;stroke-linejoin:miter;stroke:rgb(0%,0%,0%);stroke-opacity:1;stroke-miterlimit:10;" d="M 39.563781 45.432094 C 39.563781 46.791469 38.462219 47.893031 37.102844 47.893031 C 35.743469 47.893031 34.641906 46.791469 34.641906 45.432094 C 34.641906 44.072719 35.743469 42.971156 37.102844 42.971156 C 38.462219 42.971156 39.563781 44.072719 39.563781 45.432094 Z M 39.563781 45.432094 " transform="matrix(1,0,0,-1,16.737,103.811)"/>
<path style="fill-rule:nonzero;fill:rgb(0%,0%,0%);fill-opacity:1;stroke-width:0.75717;stroke-linecap:butt;stroke-linejoin:miter;stroke:rgb(0%,0%,0%);stroke-opacity:1;stroke-miterlimit:10;" d="M 38.805969 -0.0015 C 38.805969 1.357875 37.704406 2.459437 36.345031 2.459437 C 34.985656 2.459437 33.884094 1.357875 33.884094 -0.0015 C 33.884094 -1.360875 34.985656 -2.462438 36.345031 -2.462438 C 37.704406 -2.462438 38.805969 -1.360875 38.805969 -0.0015 Z M 38.805969 -0.0015 " transform="matrix(1,0,0,-1,16.737,103.811)"/>
<path style="fill-rule:nonzero;fill:rgb(0%,0%,0%);fill-opacity:1;stroke-width:0.75717;stroke-linecap:butt;stroke-linejoin:miter;stroke:rgb(0%,0%,0%);stroke-opacity:1;stroke-miterlimit:10;" d="M 46.376281 18.174281 C 46.376281 19.52975 45.274719 20.631312 43.915344 20.631312 C 42.555969 20.631312 41.454406 19.52975 41.454406 18.174281 C 41.454406 16.814906 42.555969 15.713344 43.915344 15.713344 C 45.274719 15.713344 46.376281 16.814906 46.376281 18.174281 Z M 46.376281 18.174281 " transform="matrix(1,0,0,-1,16.737,103.811)"/>
<path style="fill-rule:nonzero;fill:rgb(0%,0%,0%);fill-opacity:1;stroke-width:0.75717;stroke-linecap:butt;stroke-linejoin:miter;stroke:rgb(0%,0%,0%);stroke-opacity:1;stroke-miterlimit:10;" d="M 53.9505 36.346156 C 53.9505 37.705531 52.848937 38.807094 51.489562 38.807094 C 50.130187 38.807094 49.028625 37.705531 49.028625 36.346156 C 49.028625 34.986781 50.130187 33.885219 51.489562 33.885219 C 52.848937 33.885219 53.9505 34.986781 53.9505 36.346156 Z M 53.9505 36.346156 " transform="matrix(1,0,0,-1,16.737,103.811)"/>
<path style="fill-rule:nonzero;fill:rgb(0%,0%,0%);fill-opacity:1;stroke-width:0.75717;stroke-linecap:butt;stroke-linejoin:miter;stroke:rgb(0%,0%,0%);stroke-opacity:1;stroke-miterlimit:10;" d="M 60.763 9.084437 C 60.763 10.443812 59.661437 11.545375 58.302062 11.545375 C 56.942687 11.545375 55.841125 10.443812 55.841125 9.084437 C 55.841125 7.728969 56.942687 6.6235 58.302062 6.6235 C 59.661437 6.6235 60.763 7.728969 60.763 9.084437 Z M 60.763 9.084437 " transform="matrix(1,0,0,-1,16.737,103.811)"/>
<path style="fill-rule:nonzero;fill:rgb(0%,0%,0%);fill-opacity:1;stroke-width:0.75717;stroke-linecap:butt;stroke-linejoin:miter;stroke:rgb(0%,0%,0%);stroke-opacity:1;stroke-miterlimit:10;" d="M 68.337219 27.260219 C 68.337219 28.619594 67.235656 29.721156 65.876281 29.721156 C 64.516906 29.721156 63.415344 28.619594 63.415344 27.260219 C 63.415344 25.900844 64.516906 24.799281 65.876281 24.799281 C 67.235656 24.799281 68.337219 25.900844 68.337219 27.260219 Z M 68.337219 27.260219 " transform="matrix(1,0,0,-1,16.737,103.811)"/>
<path style="fill-rule:nonzero;fill:rgb(0%,0%,0%);fill-opacity:1;stroke-width:0.75717;stroke-linecap:butt;stroke-linejoin:miter;stroke:rgb(0%,0%,0%);stroke-opacity:1;stroke-miterlimit:10;" d="M 75.907531 45.432094 C 75.907531 46.791469 74.805969 47.893031 73.446594 47.893031 C 72.087219 47.893031 70.985656 46.791469 70.985656 45.432094 C 70.985656 44.072719 72.087219 42.971156 73.446594 42.971156 C 74.805969 42.971156 75.907531 44.072719 75.907531 45.432094 Z M 75.907531 45.432094 " transform="matrix(1,0,0,-1,16.737,103.811)"/>
<path style="fill-rule:nonzero;fill:rgb(0%,0%,0%);fill-opacity:1;stroke-width:0.75717;stroke-linecap:butt;stroke-linejoin:miter;stroke:rgb(0%,0%,0%);stroke-opacity:1;stroke-miterlimit:10;" d="M 75.149719 -0.0015 C 75.149719 1.357875 74.048156 2.459437 72.688781 2.459437 C 71.329406 2.459437 70.227844 1.357875 70.227844 -0.0015 C 70.227844 -1.360875 71.329406 -2.462438 72.688781 -2.462438 C 74.048156 -2.462438 75.149719 -1.360875 75.149719 -0.0015 Z M 75.149719 -0.0015 " transform="matrix(1,0,0,-1,16.737,103.811)"/>
<path style="fill-rule:nonzero;fill:rgb(0%,0%,0%);fill-opacity:1;stroke-width:0.75717;stroke-linecap:butt;stroke-linejoin:miter;stroke:rgb(0%,0%,0%);stroke-opacity:1;stroke-miterlimit:10;" d="M 82.723938 18.174281 C 82.723938 19.52975 81.622375 20.631312 80.263 20.631312 C 78.903625 20.631312 77.802063 19.52975 77.802063 18.174281 C 77.802063 16.814906 78.903625 15.713344 80.263 15.713344 C 81.622375 15.713344 82.723938 16.814906 82.723938 18.174281 Z M 82.723938 18.174281 " transform="matrix(1,0,0,-1,16.737,103.811)"/>
<path style="fill-rule:nonzero;fill:rgb(0%,0%,0%);fill-opacity:1;stroke-width:0.75717;stroke-linecap:butt;stroke-linejoin:miter;stroke:rgb(0%,0%,0%);stroke-opacity:1;stroke-miterlimit:10;" d="M 90.29425 36.346156 C 90.29425 37.705531 89.192688 38.807094 87.833313 38.807094 C 86.473938 38.807094 85.372375 37.705531 85.372375 36.346156 C 85.372375 34.986781 86.473938 33.885219 87.833313 33.885219 C 89.192688 33.885219 90.29425 34.986781 90.29425 36.346156 Z M 90.29425 36.346156 " transform="matrix(1,0,0,-1,16.737,103.811)"/>
<path style="fill-rule:nonzero;fill:rgb(0%,0%,0%);fill-opacity:1;stroke-width:0.75717;stroke-linecap:butt;stroke-linejoin:miter;stroke:rgb(0%,0%,0%);stroke-opacity:1;stroke-miterlimit:10;" d="M 97.110656 9.084437 C 97.110656 10.443812 96.005188 11.545375 94.649719 11.545375 C 93.290344 11.545375 92.188781 10.443812 92.188781 9.084437 C 92.188781 7.728969 93.290344 6.6235 94.649719 6.6235 C 96.005188 6.6235 97.110656 7.728969 97.110656 9.084437 Z M 97.110656 9.084437 " transform="matrix(1,0,0,-1,16.737,103.811)"/>
<path style="fill-rule:nonzero;fill:rgb(0%,0%,0%);fill-opacity:1;stroke-width:0.75717;stroke-linecap:butt;stroke-linejoin:miter;stroke:rgb(0%,0%,0%);stroke-opacity:1;stroke-miterlimit:10;" d="M 104.680969 27.260219 C 104.680969 28.619594 103.579406 29.721156 102.220031 29.721156 C 100.860656 29.721156 99.759094 28.619594 99.759094 27.260219 C 99.759094 25.900844 100.860656 24.799281 102.220031 24.799281 C 103.579406 24.799281 104.680969 25.900844 104.680969 27.260219 Z M 104.680969 27.260219 " transform="matrix(1,0,0,-1,16.737,103.811)"/>
<path style="fill-rule:nonzero;fill:rgb(0%,0%,0%);fill-opacity:1;stroke-width:0.75717;stroke-linecap:butt;stroke-linejoin:miter;stroke:rgb(0%,0%,0%);stroke-opacity:1;stroke-miterlimit:10;" d="M 112.251281 45.432094 C 112.251281 46.791469 111.149719 47.893031 109.790344 47.893031 C 108.430969 47.893031 107.329406 46.791469 107.329406 45.432094 C 107.329406 44.072719 108.430969 42.971156 109.790344 42.971156 C 111.149719 42.971156 112.251281 44.072719 112.251281 45.432094 Z M 112.251281 45.432094 " transform="matrix(1,0,0,-1,16.737,103.811)"/>
<path style="fill-rule:nonzero;fill:rgb(100%,61.599731%,0%);fill-opacity:1;stroke-width:0.75717;stroke-linecap:butt;stroke-linejoin:miter;stroke:rgb(0%,0%,0%);stroke-opacity:1;stroke-miterlimit:10;" d="M 13.438781 4.541469 C 13.438781 5.900844 12.337219 7.002406 10.977844 7.002406 C 9.618469 7.002406 8.516906 5.900844 8.516906 4.541469 C 8.516906 3.182094 9.618469 2.080531 10.977844 2.080531 C 12.337219 2.080531 13.438781 3.182094 13.438781 4.541469 Z M 13.438781 4.541469 " transform="matrix(1,0,0,-1,16.737,103.811)"/>
<path style="fill-rule:nonzero;fill:rgb(100%,0%,0%);fill-opacity:1;stroke-width:0.75717;stroke-linecap:butt;stroke-linejoin:miter;stroke:rgb(0%,0%,0%);stroke-opacity:1;stroke-miterlimit:10;" d="M 17.223937 13.627406 C 17.223937 14.986781 16.122375 16.088344 14.766906 16.088344 C 13.407531 16.088344 12.305969 14.986781 12.305969 13.627406 C 12.305969 12.271937 13.407531 11.166469 14.766906 11.166469 C 16.122375 11.166469 17.223937 12.271937 17.223937 13.627406 Z M 17.223937 13.627406 " transform="matrix(1,0,0,-1,16.737,103.811)"/>
<path style="fill-rule:nonzero;fill:rgb(100%,0%,0%);fill-opacity:1;stroke-width:0.75717;stroke-linecap:butt;stroke-linejoin:miter;stroke:rgb(0%,0%,0%);stroke-opacity:1;stroke-miterlimit:10;" d="M 21.013 22.71725 C 21.013 24.072719 19.911437 25.178187 18.552062 25.178187 C 17.192687 25.178187 16.091125 24.072719 16.091125 22.71725 C 16.091125 21.357875 17.192687 20.256312 18.552062 20.256312 C 19.911437 20.256312 21.013 21.357875 21.013 22.71725 Z M 21.013 22.71725 " transform="matrix(1,0,0,-1,16.737,103.811)"/>
<path style="fill-rule:nonzero;fill:rgb(100%,0%,0%);fill-opacity:1;stroke-width:0.75717;stroke-linecap:butt;stroke-linejoin:miter;stroke:rgb(0%,0%,0%);stroke-opacity:1;stroke-miterlimit:10;" d="M 24.798156 31.803187 C 24.798156 33.162562 23.696594 34.264125 22.337219 34.264125 C 20.977844 34.264125 19.876281 33.162562 19.876281 31.803187 C 19.876281 30.443812 20.977844 29.34225 22.337219 29.34225 C 23.696594 29.34225 24.798156 30.443812 24.798156 31.803187 Z M 24.798156 31.803187 " transform="matrix(1,0,0,-1,16.737,103.811)"/>
<path style="fill-rule:nonzero;fill:rgb(100%,0%,0%);fill-opacity:1;stroke-width:0.75717;stroke-linecap:butt;stroke-linejoin:miter;stroke:rgb(0%,0%,0%);stroke-opacity:1;stroke-miterlimit:10;" d="M 28.583312 40.889125 C 28.583312 42.2485 27.48175 43.350062 26.122375 43.350062 C 24.763 43.350062 23.661437 42.2485 23.661437 40.889125 C 23.661437 39.52975 24.763 38.428187 26.122375 38.428187 C 27.48175 38.428187 28.583312 39.52975 28.583312 40.889125 Z M 28.583312 40.889125 " transform="matrix(1,0,0,-1,16.737,103.811)"/>
</g>
</svg>
