<?xml version="1.0" encoding="UTF-8"?>
<svg xmlns="http://www.w3.org/2000/svg" xmlns:xlink="http://www.w3.org/1999/xlink" width="180.224pt" height="188.593pt" viewBox="0 0 180.224 188.593" version="1.1">
<defs>
<clipPath id="clip1">
  <path d="M 0 122 L 67 122 L 67 188.59375 L 0 188.59375 Z M 0 122 "/>
</clipPath>
<clipPath id="clip2">
  <path d="M 56 138 L 114 138 L 114 188.59375 L 56 188.59375 Z M 56 138 "/>
</clipPath>
<clipPath id="clip3">
  <path d="M 120 122 L 180.222656 122 L 180.222656 188.59375 L 120 188.59375 Z M 120 122 "/>
</clipPath>
<clipPath id="clip4">
  <path d="M 120 58 L 180.222656 58 L 180.222656 133 L 120 133 Z M 120 58 "/>
</clipPath>
<clipPath id="clip5">
  <path d="M 120 0 L 180.222656 0 L 180.222656 69 L 120 69 Z M 120 0 "/>
</clipPath>
<clipPath id="clip6">
  <path d="M 120 90 L 180.222656 90 L 180.222656 165 L 120 165 Z M 120 90 "/>
</clipPath>
<clipPath id="clip7">
  <path d="M 120 26 L 180.222656 26 L 180.222656 101 L 120 101 Z M 120 26 "/>
</clipPath>
<clipPath id="clip8">
  <path d="M 24 122 L 98 122 L 98 188.59375 L 24 188.59375 Z M 24 122 "/>
</clipPath>
<clipPath id="clip9">
  <path d="M 88 122 L 162 122 L 162 188.59375 L 88 188.59375 Z M 88 122 "/>
</clipPath>
<clipPath id="clip10">
  <path d="M 154 116 L 180.222656 116 L 180.222656 151 L 154 151 Z M 154 116 "/>
</clipPath>
<clipPath id="clip11">
  <path d="M 154 52 L 180.222656 52 L 180.222656 88 L 154 88 Z M 154 52 "/>
</clipPath>
<clipPath id="clip12">
  <path d="M 154 0 L 180.222656 0 L 180.222656 24 L 154 24 Z M 154 0 "/>
</clipPath>
<clipPath id="clip13">
  <path d="M 0 140 L 49 140 L 49 188.59375 L 0 188.59375 Z M 0 140 "/>
</clipPath>
<clipPath id="clip14">
  <path d="M 42 140 L 112 140 L 112 188.59375 L 42 188.59375 Z M 42 140 "/>
</clipPath>
<clipPath id="clip15">
  <path d="M 106 140 L 176 140 L 176 188.59375 L 106 188.59375 Z M 106 140 "/>
</clipPath>
<clipPath id="clip16">
  <path d="M 138 108 L 180.222656 108 L 180.222656 179 L 138 179 Z M 138 108 "/>
</clipPath>
<clipPath id="clip17">
  <path d="M 138 44 L 180.222656 44 L 180.222656 115 L 138 115 Z M 138 44 "/>
</clipPath>
<clipPath id="clip18">
  <path d="M 138 0 L 180.222656 0 L 180.222656 51 L 138 51 Z M 138 0 "/>
</clipPath>
<clipPath id="clip19">
  <path d="M 58 124 L 128 124 L 128 188.59375 L 58 188.59375 Z M 58 124 "/>
</clipPath>
<clipPath id="clip20">
  <path d="M 0 124 L 65 124 L 65 188.59375 L 0 188.59375 Z M 0 124 "/>
</clipPath>
</defs>
<g id="surface1">
<g clip-path="url(#clip1)" clip-rule="nonzero">
<path style="fill:none;stroke-width:1.79329;stroke-linecap:butt;stroke-linejoin:miter;stroke:rgb(0%,0%,0%);stroke-opacity:1;stroke-miterlimit:10;" d="M 4.579687 4.578937 L 27.302344 27.301594 " transform="matrix(1,0,0,-1,13.35,175.243)"/>
</g>
<path style="fill-rule:nonzero;fill:rgb(0%,0%,0%);fill-opacity:1;stroke-width:1.79329;stroke-linecap:butt;stroke-linejoin:miter;stroke:rgb(0%,0%,0%);stroke-opacity:1;stroke-miterlimit:10;" d="M -6.90501 4.25745 L 0.474567 -0.000883892 L -6.90501 -4.259218 Z M -6.90501 4.25745 " transform="matrix(0.42426,-0.42426,-0.42426,-0.42426,31.28266,157.31034)"/>
<path style="fill:none;stroke-width:1.79329;stroke-linecap:butt;stroke-linejoin:miter;stroke:rgb(0%,0%,0%);stroke-opacity:1;stroke-miterlimit:10;" d="M 4.579687 68.340656 L 27.302344 91.063312 " transform="matrix(1,0,0,-1,13.35,175.243)"/>
<path style="fill-rule:nonzero;fill:rgb(0%,0%,0%);fill-opacity:1;stroke-width:1.79329;stroke-linecap:butt;stroke-linejoin:miter;stroke:rgb(0%,0%,0%);stroke-opacity:1;stroke-miterlimit:10;" d="M -6.905011 4.257448 L 0.474566 -0.000885365 L -6.905011 -4.259219 Z M -6.905011 4.257448 " transform="matrix(0.42426,-0.42426,-0.42426,-0.42426,31.28266,93.54862)"/>
<path style="fill:none;stroke-width:1.79329;stroke-linecap:butt;stroke-linejoin:miter;stroke:rgb(0%,0%,0%);stroke-opacity:1;stroke-miterlimit:10;" d="M 4.579687 132.102375 L 27.302344 154.825031 " transform="matrix(1,0,0,-1,13.35,175.243)"/>
<path style="fill-rule:nonzero;fill:rgb(0%,0%,0%);fill-opacity:1;stroke-width:1.79329;stroke-linecap:butt;stroke-linejoin:miter;stroke:rgb(0%,0%,0%);stroke-opacity:1;stroke-miterlimit:10;" d="M -6.905013 4.257447 L 0.474565 -0.000886838 L -6.905013 -4.25922 Z M -6.905013 4.257447 " transform="matrix(0.42426,-0.42426,-0.42426,-0.42426,31.28266,29.7869)"/>
<g clip-path="url(#clip2)" clip-rule="nonzero">
<path style="fill:none;stroke-width:1.79329;stroke-linecap:butt;stroke-linejoin:miter;stroke:rgb(0%,0%,0%);stroke-opacity:1;stroke-miterlimit:10;" d="M 68.341406 4.578937 L 75.122656 11.360187 " transform="matrix(1,0,0,-1,13.35,175.243)"/>
</g>
<path style="fill-rule:nonzero;fill:rgb(0%,0%,0%);fill-opacity:1;stroke-width:1.79329;stroke-linecap:butt;stroke-linejoin:miter;stroke:rgb(0%,0%,0%);stroke-opacity:1;stroke-miterlimit:10;" d="M -6.901626 4.257451 L 0.473348 0.00372119 L -6.901626 -4.259216 Z M -6.901626 4.257451 " transform="matrix(0.42426,-0.42426,-0.42426,-0.42426,87.0781,165.27662)"/>
<path style="fill:none;stroke-width:1.79329;stroke-linecap:butt;stroke-linejoin:miter;stroke:rgb(0%,0%,0%);stroke-opacity:1;stroke-miterlimit:10;" d="M 68.341406 68.340656 L 75.122656 75.121906 " transform="matrix(1,0,0,-1,13.35,175.243)"/>
<path style="fill-rule:nonzero;fill:rgb(0%,0%,0%);fill-opacity:1;stroke-width:1.79329;stroke-linecap:butt;stroke-linejoin:miter;stroke:rgb(0%,0%,0%);stroke-opacity:1;stroke-miterlimit:10;" d="M -6.901627 4.25745 L 0.473346 0.00371971 L -6.901627 -4.259218 Z M -6.901627 4.25745 " transform="matrix(0.42426,-0.42426,-0.42426,-0.42426,87.0781,101.5149)"/>
<path style="fill:none;stroke-width:1.79329;stroke-linecap:butt;stroke-linejoin:miter;stroke:rgb(0%,0%,0%);stroke-opacity:1;stroke-miterlimit:10;" d="M 68.341406 132.102375 L 75.122656 138.883625 " transform="matrix(1,0,0,-1,13.35,175.243)"/>
<path style="fill-rule:nonzero;fill:rgb(0%,0%,0%);fill-opacity:1;stroke-width:1.79329;stroke-linecap:butt;stroke-linejoin:miter;stroke:rgb(0%,0%,0%);stroke-opacity:1;stroke-miterlimit:10;" d="M -6.901629 4.257448 L 0.473345 0.00371824 L -6.901629 -4.259219 Z M -6.901629 4.257448 " transform="matrix(0.42426,-0.42426,-0.42426,-0.42426,87.0781,37.75318)"/>
<path style="fill:none;stroke-width:1.79329;stroke-linecap:butt;stroke-linejoin:miter;stroke:rgb(0%,0%,0%);stroke-opacity:1;stroke-miterlimit:10;" d="M 91.064063 27.301594 L 84.282813 20.520344 " transform="matrix(1,0,0,-1,13.35,175.243)"/>
<path style="fill-rule:nonzero;fill:rgb(0%,0%,0%);fill-opacity:1;stroke-width:1.79329;stroke-linecap:butt;stroke-linejoin:miter;stroke:rgb(0%,0%,0%);stroke-opacity:1;stroke-miterlimit:10;" d="M -6.902663 4.259216 L 0.476914 0.000882419 L -6.902663 -4.257451 Z M -6.902663 4.259216 " transform="matrix(-0.42426,0.42426,0.42426,0.42426,99.02618,153.32854)"/>
<path style="fill:none;stroke-width:1.79329;stroke-linecap:butt;stroke-linejoin:miter;stroke:rgb(0%,0%,0%);stroke-opacity:1;stroke-miterlimit:10;" d="M 91.064063 91.063312 L 84.282813 84.282062 " transform="matrix(1,0,0,-1,13.35,175.243)"/>
<path style="fill-rule:nonzero;fill:rgb(0%,0%,0%);fill-opacity:1;stroke-width:1.79329;stroke-linecap:butt;stroke-linejoin:miter;stroke:rgb(0%,0%,0%);stroke-opacity:1;stroke-miterlimit:10;" d="M -6.902661 4.259218 L 0.476916 0.000883892 L -6.902661 -4.25745 Z M -6.902661 4.259218 " transform="matrix(-0.42426,0.42426,0.42426,0.42426,99.02618,89.56682)"/>
<path style="fill:none;stroke-width:1.79329;stroke-linecap:butt;stroke-linejoin:miter;stroke:rgb(0%,0%,0%);stroke-opacity:1;stroke-miterlimit:10;" d="M 91.064063 154.825031 L 84.282813 148.043781 " transform="matrix(1,0,0,-1,13.35,175.243)"/>
<path style="fill-rule:nonzero;fill:rgb(0%,0%,0%);fill-opacity:1;stroke-width:1.79329;stroke-linecap:butt;stroke-linejoin:miter;stroke:rgb(0%,0%,0%);stroke-opacity:1;stroke-miterlimit:10;" d="M -6.90266 4.259219 L 0.476917 0.000885365 L -6.90266 -4.257448 Z M -6.90266 4.259219 " transform="matrix(-0.42426,0.42426,0.42426,0.42426,99.02618,25.8051)"/>
<g clip-path="url(#clip3)" clip-rule="nonzero">
<path style="fill:none;stroke-width:1.79329;stroke-linecap:butt;stroke-linejoin:miter;stroke:rgb(0%,0%,0%);stroke-opacity:1;stroke-miterlimit:10;" d="M 154.825781 27.301594 L 132.103125 4.578937 " transform="matrix(1,0,0,-1,13.35,175.243)"/>
</g>
<path style="fill-rule:nonzero;fill:rgb(0%,0%,0%);fill-opacity:1;stroke-width:1.79329;stroke-linecap:butt;stroke-linejoin:miter;stroke:rgb(0%,0%,0%);stroke-opacity:1;stroke-miterlimit:10;" d="M -6.906047 4.259215 L 0.47353 0.000880946 L -6.906047 -4.257453 Z M -6.906047 4.259215 " transform="matrix(-0.42426,0.42426,0.42426,0.42426,154.82162,161.29482)"/>
<g clip-path="url(#clip4)" clip-rule="nonzero">
<path style="fill:none;stroke-width:1.79329;stroke-linecap:butt;stroke-linejoin:miter;stroke:rgb(0%,0%,0%);stroke-opacity:1;stroke-miterlimit:10;" d="M 154.825781 91.063312 L 132.103125 68.340656 " transform="matrix(1,0,0,-1,13.35,175.243)"/>
</g>
<path style="fill-rule:nonzero;fill:rgb(0%,0%,0%);fill-opacity:1;stroke-width:1.79329;stroke-linecap:butt;stroke-linejoin:miter;stroke:rgb(0%,0%,0%);stroke-opacity:1;stroke-miterlimit:10;" d="M -6.906045 4.259216 L 0.473532 0.000882419 L -6.906045 -4.257451 Z M -6.906045 4.259216 " transform="matrix(-0.42426,0.42426,0.42426,0.42426,154.82162,97.5331)"/>
<g clip-path="url(#clip5)" clip-rule="nonzero">
<path style="fill:none;stroke-width:1.79329;stroke-linecap:butt;stroke-linejoin:miter;stroke:rgb(0%,0%,0%);stroke-opacity:1;stroke-miterlimit:10;" d="M 154.825781 154.825031 L 132.103125 132.102375 " transform="matrix(1,0,0,-1,13.35,175.243)"/>
</g>
<path style="fill-rule:nonzero;fill:rgb(0%,0%,0%);fill-opacity:1;stroke-width:1.79329;stroke-linecap:butt;stroke-linejoin:miter;stroke:rgb(0%,0%,0%);stroke-opacity:1;stroke-miterlimit:10;" d="M -6.906044 4.259218 L 0.473533 0.000883892 L -6.906044 -4.25745 Z M -6.906044 4.259218 " transform="matrix(-0.42426,0.42426,0.42426,0.42426,154.82162,33.77138)"/>
<path style="fill:none;stroke-width:1.79329;stroke-linecap:butt;stroke-linejoin:miter;stroke:rgb(0%,0%,0%);stroke-opacity:1;stroke-miterlimit:10;" d="M 4.579687 59.184406 L 27.302344 36.46175 " transform="matrix(1,0,0,-1,13.35,175.243)"/>
<path style="fill-rule:nonzero;fill:rgb(0%,0%,0%);fill-opacity:1;stroke-width:1.79329;stroke-linecap:butt;stroke-linejoin:miter;stroke:rgb(0%,0%,0%);stroke-opacity:1;stroke-miterlimit:10;" d="M -6.902343 4.256551 L 0.47263 0.00282109 L -6.902343 -4.260116 Z M -6.902343 4.256551 " transform="matrix(0.42426,0.42426,0.42426,-0.42426,31.28266,129.41396)"/>
<path style="fill:none;stroke-width:1.79329;stroke-linecap:butt;stroke-linejoin:miter;stroke:rgb(0%,0%,0%);stroke-opacity:1;stroke-miterlimit:10;" d="M 4.579687 122.946125 L 27.302344 100.223469 " transform="matrix(1,0,0,-1,13.35,175.243)"/>
<path style="fill-rule:nonzero;fill:rgb(0%,0%,0%);fill-opacity:1;stroke-width:1.79329;stroke-linecap:butt;stroke-linejoin:miter;stroke:rgb(0%,0%,0%);stroke-opacity:1;stroke-miterlimit:10;" d="M -6.902342 4.25655 L 0.472632 0.00281962 L -6.902342 -4.260118 Z M -6.902342 4.25655 " transform="matrix(0.42426,0.42426,0.42426,-0.42426,31.28266,65.65224)"/>
<path style="fill:none;stroke-width:1.79329;stroke-linecap:butt;stroke-linejoin:miter;stroke:rgb(0%,0%,0%);stroke-opacity:1;stroke-miterlimit:10;" d="M 68.341406 59.184406 L 75.122656 52.39925 " transform="matrix(1,0,0,-1,13.35,175.243)"/>
<path style="fill-rule:nonzero;fill:rgb(0%,0%,0%);fill-opacity:1;stroke-width:1.79329;stroke-linecap:butt;stroke-linejoin:miter;stroke:rgb(0%,0%,0%);stroke-opacity:1;stroke-miterlimit:10;" d="M -6.903563 4.261153 L 0.471411 -0.00178399 L -6.903563 -4.255514 Z M -6.903563 4.261153 " transform="matrix(0.42426,0.42426,0.42426,-0.42426,87.0781,121.44768)"/>
<path style="fill:none;stroke-width:1.79329;stroke-linecap:butt;stroke-linejoin:miter;stroke:rgb(0%,0%,0%);stroke-opacity:1;stroke-miterlimit:10;" d="M 68.341406 122.946125 L 75.122656 116.160969 " transform="matrix(1,0,0,-1,13.35,175.243)"/>
<path style="fill-rule:nonzero;fill:rgb(0%,0%,0%);fill-opacity:1;stroke-width:1.79329;stroke-linecap:butt;stroke-linejoin:miter;stroke:rgb(0%,0%,0%);stroke-opacity:1;stroke-miterlimit:10;" d="M -6.903561 4.261152 L 0.471412 -0.00178546 L -6.903561 -4.255515 Z M -6.903561 4.261152 " transform="matrix(0.42426,0.42426,0.42426,-0.42426,87.0781,57.68596)"/>
<path style="fill:none;stroke-width:1.79329;stroke-linecap:butt;stroke-linejoin:miter;stroke:rgb(0%,0%,0%);stroke-opacity:1;stroke-miterlimit:10;" d="M 91.064063 36.46175 L 84.282813 43.243 " transform="matrix(1,0,0,-1,13.35,175.243)"/>
<path style="fill-rule:nonzero;fill:rgb(0%,0%,0%);fill-opacity:1;stroke-width:1.79329;stroke-linecap:butt;stroke-linejoin:miter;stroke:rgb(0%,0%,0%);stroke-opacity:1;stroke-miterlimit:10;" d="M -6.905329 4.260118 L 0.474248 0.00178399 L -6.905329 -4.25655 Z M -6.905329 4.260118 " transform="matrix(-0.42426,-0.42426,-0.42426,0.42426,99.02618,133.39576)"/>
<path style="fill:none;stroke-width:1.79329;stroke-linecap:butt;stroke-linejoin:miter;stroke:rgb(0%,0%,0%);stroke-opacity:1;stroke-miterlimit:10;" d="M 91.064063 100.223469 L 84.282813 107.004719 " transform="matrix(1,0,0,-1,13.35,175.243)"/>
<path style="fill-rule:nonzero;fill:rgb(0%,0%,0%);fill-opacity:1;stroke-width:1.79329;stroke-linecap:butt;stroke-linejoin:miter;stroke:rgb(0%,0%,0%);stroke-opacity:1;stroke-miterlimit:10;" d="M -6.905331 4.260119 L 0.474246 0.00178546 L -6.905331 -4.256548 Z M -6.905331 4.260119 " transform="matrix(-0.42426,-0.42426,-0.42426,0.42426,99.02618,69.63404)"/>
<g clip-path="url(#clip6)" clip-rule="nonzero">
<path style="fill:none;stroke-width:1.79329;stroke-linecap:butt;stroke-linejoin:miter;stroke:rgb(0%,0%,0%);stroke-opacity:1;stroke-miterlimit:10;" d="M 154.825781 36.46175 L 132.103125 59.184406 " transform="matrix(1,0,0,-1,13.35,175.243)"/>
</g>
<path style="fill-rule:nonzero;fill:rgb(0%,0%,0%);fill-opacity:1;stroke-width:1.79329;stroke-linecap:butt;stroke-linejoin:miter;stroke:rgb(0%,0%,0%);stroke-opacity:1;stroke-miterlimit:10;" d="M -6.90411 4.255515 L 0.470864 0.00178546 L -6.90411 -4.261152 Z M -6.90411 4.255515 " transform="matrix(-0.42426,-0.42426,-0.42426,0.42426,154.82162,125.42948)"/>
<g clip-path="url(#clip7)" clip-rule="nonzero">
<path style="fill:none;stroke-width:1.79329;stroke-linecap:butt;stroke-linejoin:miter;stroke:rgb(0%,0%,0%);stroke-opacity:1;stroke-miterlimit:10;" d="M 154.825781 100.223469 L 132.103125 122.946125 " transform="matrix(1,0,0,-1,13.35,175.243)"/>
</g>
<path style="fill-rule:nonzero;fill:rgb(0%,0%,0%);fill-opacity:1;stroke-width:1.79329;stroke-linecap:butt;stroke-linejoin:miter;stroke:rgb(0%,0%,0%);stroke-opacity:1;stroke-miterlimit:10;" d="M -6.904111 4.255517 L 0.470863 0.00178693 L -6.904111 -4.26115 Z M -6.904111 4.255517 " transform="matrix(-0.42426,-0.42426,-0.42426,0.42426,154.82162,61.66776)"/>
<g clip-path="url(#clip8)" clip-rule="nonzero">
<path style="fill:none;stroke-width:1.79329;stroke-linecap:butt;stroke-linejoin:miter;stroke:rgb(0%,0%,0%);stroke-opacity:1;stroke-miterlimit:10;" d="M 36.458594 27.301594 L 59.18125 4.578937 " transform="matrix(1,0,0,-1,13.35,175.243)"/>
</g>
<path style="fill-rule:nonzero;fill:rgb(0%,0%,0%);fill-opacity:1;stroke-width:1.79329;stroke-linecap:butt;stroke-linejoin:miter;stroke:rgb(0%,0%,0%);stroke-opacity:1;stroke-miterlimit:10;" d="M -6.902345 4.261155 L 0.472629 -0.00178252 L -6.906948 -4.260116 Z M -6.902345 4.261155 " transform="matrix(0.42426,0.42426,0.42426,-0.42426,63.16352,161.29482)"/>
<path style="fill:none;stroke-width:1.79329;stroke-linecap:butt;stroke-linejoin:miter;stroke:rgb(0%,0%,0%);stroke-opacity:1;stroke-miterlimit:10;" d="M 36.458594 91.063312 L 59.18125 68.340656 " transform="matrix(1,0,0,-1,13.35,175.243)"/>
<path style="fill-rule:nonzero;fill:rgb(0%,0%,0%);fill-opacity:1;stroke-width:1.79329;stroke-linecap:butt;stroke-linejoin:miter;stroke:rgb(0%,0%,0%);stroke-opacity:1;stroke-miterlimit:10;" d="M -6.902343 4.261153 L 0.47263 -0.00178399 L -6.906947 -4.260118 Z M -6.902343 4.261153 " transform="matrix(0.42426,0.42426,0.42426,-0.42426,63.16352,97.5331)"/>
<path style="fill:none;stroke-width:1.79329;stroke-linecap:butt;stroke-linejoin:miter;stroke:rgb(0%,0%,0%);stroke-opacity:1;stroke-miterlimit:10;" d="M 36.458594 154.825031 L 59.18125 132.102375 " transform="matrix(1,0,0,-1,13.35,175.243)"/>
<path style="fill-rule:nonzero;fill:rgb(0%,0%,0%);fill-opacity:1;stroke-width:1.79329;stroke-linecap:butt;stroke-linejoin:miter;stroke:rgb(0%,0%,0%);stroke-opacity:1;stroke-miterlimit:10;" d="M -6.902342 4.261152 L 0.472632 -0.00178546 L -6.906945 -4.260119 Z M -6.902342 4.261152 " transform="matrix(0.42426,0.42426,0.42426,-0.42426,63.16352,33.77138)"/>
<g clip-path="url(#clip9)" clip-rule="nonzero">
<path style="fill:none;stroke-width:1.79329;stroke-linecap:butt;stroke-linejoin:miter;stroke:rgb(0%,0%,0%);stroke-opacity:1;stroke-miterlimit:10;" d="M 122.942969 4.578937 L 100.220313 27.301594 " transform="matrix(1,0,0,-1,13.35,175.243)"/>
</g>
<path style="fill-rule:nonzero;fill:rgb(0%,0%,0%);fill-opacity:1;stroke-width:1.79329;stroke-linecap:butt;stroke-linejoin:miter;stroke:rgb(0%,0%,0%);stroke-opacity:1;stroke-miterlimit:10;" d="M -6.90411 4.260118 L 0.475468 0.00178399 L -6.90411 -4.25655 Z M -6.90411 4.260118 " transform="matrix(-0.42426,-0.42426,-0.42426,0.42426,122.94076,157.31034)"/>
<path style="fill:none;stroke-width:1.79329;stroke-linecap:butt;stroke-linejoin:miter;stroke:rgb(0%,0%,0%);stroke-opacity:1;stroke-miterlimit:10;" d="M 122.942969 68.340656 L 100.220313 91.063312 " transform="matrix(1,0,0,-1,13.35,175.243)"/>
<path style="fill-rule:nonzero;fill:rgb(0%,0%,0%);fill-opacity:1;stroke-width:1.79329;stroke-linecap:butt;stroke-linejoin:miter;stroke:rgb(0%,0%,0%);stroke-opacity:1;stroke-miterlimit:10;" d="M -6.904111 4.260119 L 0.475466 0.00178546 L -6.904111 -4.256548 Z M -6.904111 4.260119 " transform="matrix(-0.42426,-0.42426,-0.42426,0.42426,122.94076,93.54862)"/>
<path style="fill:none;stroke-width:1.79329;stroke-linecap:butt;stroke-linejoin:miter;stroke:rgb(0%,0%,0%);stroke-opacity:1;stroke-miterlimit:10;" d="M 122.942969 132.102375 L 100.220313 154.825031 " transform="matrix(1,0,0,-1,13.35,175.243)"/>
<path style="fill-rule:nonzero;fill:rgb(0%,0%,0%);fill-opacity:1;stroke-width:1.79329;stroke-linecap:butt;stroke-linejoin:miter;stroke:rgb(0%,0%,0%);stroke-opacity:1;stroke-miterlimit:10;" d="M -6.904112 4.260121 L 0.475465 0.00178693 L -6.904112 -4.256547 Z M -6.904112 4.260121 " transform="matrix(-0.42426,-0.42426,-0.42426,0.42426,122.94076,29.7869)"/>
<path style="fill:none;stroke-width:1.79329;stroke-linecap:butt;stroke-linejoin:miter;stroke:rgb(0%,0%,0%);stroke-opacity:1;stroke-miterlimit:10;" d="M 36.458594 36.46175 L 59.18125 59.184406 " transform="matrix(1,0,0,-1,13.35,175.243)"/>
<path style="fill-rule:nonzero;fill:rgb(0%,0%,0%);fill-opacity:1;stroke-width:1.79329;stroke-linecap:butt;stroke-linejoin:miter;stroke:rgb(0%,0%,0%);stroke-opacity:1;stroke-miterlimit:10;" d="M -6.905011 4.262053 L 0.469962 -0.000883892 L -6.900407 -4.259218 Z M -6.905011 4.262053 " transform="matrix(0.42426,-0.42426,-0.42426,-0.42426,63.16352,125.42948)"/>
<path style="fill:none;stroke-width:1.79329;stroke-linecap:butt;stroke-linejoin:miter;stroke:rgb(0%,0%,0%);stroke-opacity:1;stroke-miterlimit:10;" d="M 36.458594 100.223469 L 59.18125 122.946125 " transform="matrix(1,0,0,-1,13.35,175.243)"/>
<path style="fill-rule:nonzero;fill:rgb(0%,0%,0%);fill-opacity:1;stroke-width:1.79329;stroke-linecap:butt;stroke-linejoin:miter;stroke:rgb(0%,0%,0%);stroke-opacity:1;stroke-miterlimit:10;" d="M -6.905013 4.262052 L 0.469961 -0.000885365 L -6.900409 -4.259219 Z M -6.905013 4.262052 " transform="matrix(0.42426,-0.42426,-0.42426,-0.42426,63.16352,61.66776)"/>
<path style="fill:none;stroke-width:1.79329;stroke-linecap:butt;stroke-linejoin:miter;stroke:rgb(0%,0%,0%);stroke-opacity:1;stroke-miterlimit:10;" d="M 122.942969 59.184406 L 100.220313 36.46175 " transform="matrix(1,0,0,-1,13.35,175.243)"/>
<path style="fill-rule:nonzero;fill:rgb(0%,0%,0%);fill-opacity:1;stroke-width:1.79329;stroke-linecap:butt;stroke-linejoin:miter;stroke:rgb(0%,0%,0%);stroke-opacity:1;stroke-miterlimit:10;" d="M -6.901443 4.259216 L 0.47353 -0.00372119 L -6.901443 -4.257451 Z M -6.901443 4.259216 " transform="matrix(-0.42426,0.42426,0.42426,0.42426,122.94076,129.41396)"/>
<path style="fill:none;stroke-width:1.79329;stroke-linecap:butt;stroke-linejoin:miter;stroke:rgb(0%,0%,0%);stroke-opacity:1;stroke-miterlimit:10;" d="M 122.942969 122.946125 L 100.220313 100.223469 " transform="matrix(1,0,0,-1,13.35,175.243)"/>
<path style="fill-rule:nonzero;fill:rgb(0%,0%,0%);fill-opacity:1;stroke-width:1.79329;stroke-linecap:butt;stroke-linejoin:miter;stroke:rgb(0%,0%,0%);stroke-opacity:1;stroke-miterlimit:10;" d="M -6.901442 4.259218 L 0.473532 -0.00371971 L -6.901442 -4.25745 Z M -6.901442 4.259218 " transform="matrix(-0.42426,0.42426,0.42426,0.42426,122.94076,65.65224)"/>
<path style="fill:none;stroke-width:1.79329;stroke-linecap:butt;stroke-linejoin:miter;stroke:rgb(100%,0%,0%);stroke-opacity:1;stroke-miterlimit:10;" d="M 79.700781 22.414875 L 79.700781 41.344562 " transform="matrix(1,0,0,-1,13.35,175.243)"/>
<path style="fill-rule:nonzero;fill:rgb(100%,0%,0%);fill-opacity:1;stroke-width:1.79329;stroke-linecap:butt;stroke-linejoin:miter;stroke:rgb(100%,0%,0%);stroke-opacity:1;stroke-miterlimit:10;" d="M -6.903346 4.260094 L 0.472956 0.00228125 L -6.903346 -4.262042 Z M -6.903346 4.260094 " transform="matrix(0,-0.6,-0.6,0,93.05215,140.53768)"/>
<path style="fill:none;stroke-width:1.79329;stroke-linecap:butt;stroke-linejoin:miter;stroke:rgb(100%,0%,0%);stroke-opacity:1;stroke-miterlimit:10;" d="M 79.700781 136.989094 L 79.700781 118.059406 " transform="matrix(1,0,0,-1,13.35,175.243)"/>
<path style="fill-rule:nonzero;fill:rgb(100%,0%,0%);fill-opacity:1;stroke-width:1.79329;stroke-linecap:butt;stroke-linejoin:miter;stroke:rgb(100%,0%,0%);stroke-opacity:1;stroke-miterlimit:10;" d="M -6.902827 4.262042 L 0.473475 -0.00228125 L -6.902827 -4.260094 Z M -6.902827 4.262042 " transform="matrix(0,0.6,0.6,0,93.05215,50.54404)"/>
<path style="fill:none;stroke-width:1.79329;stroke-linecap:butt;stroke-linejoin:miter;stroke:rgb(100%,0%,0%);stroke-opacity:1;stroke-miterlimit:10;" d="M 79.700781 105.106281 L 79.700781 86.176594 " transform="matrix(1,0,0,-1,13.35,175.243)"/>
<path style="fill-rule:nonzero;fill:rgb(100%,0%,0%);fill-opacity:1;stroke-width:1.79329;stroke-linecap:butt;stroke-linejoin:miter;stroke:rgb(100%,0%,0%);stroke-opacity:1;stroke-miterlimit:10;" d="M -6.906083 4.262042 L 0.470219 -0.00228125 L -6.906083 -4.260094 Z M -6.906083 4.262042 " transform="matrix(0,0.6,0.6,0,93.05215,82.4249)"/>
<path style="fill:none;stroke-width:1.79329;stroke-linecap:butt;stroke-linejoin:miter;stroke:rgb(100%,0%,0%);stroke-opacity:1;stroke-miterlimit:10;" d="M 79.700781 73.227375 L 79.700781 54.297687 " transform="matrix(1,0,0,-1,13.35,175.243)"/>
<path style="fill-rule:nonzero;fill:rgb(100%,0%,0%);fill-opacity:1;stroke-width:1.79329;stroke-linecap:butt;stroke-linejoin:miter;stroke:rgb(100%,0%,0%);stroke-opacity:1;stroke-miterlimit:10;" d="M -6.902829 4.262042 L 0.473473 -0.00228125 L -6.902829 -4.260094 Z M -6.902829 4.262042 " transform="matrix(0,0.6,0.6,0,93.05215,114.30576)"/>
<path style="fill:none;stroke-width:1.79329;stroke-linecap:butt;stroke-linejoin:miter;stroke:rgb(50%,50%,50%);stroke-opacity:1;stroke-miterlimit:10;" d="M 0.0015625 14.942219 L 0.0015625 6.477375 " transform="matrix(1,0,0,-1,13.35,175.243)"/>
<path style="fill-rule:nonzero;fill:rgb(50%,50%,50%);fill-opacity:1;stroke-width:1.79329;stroke-linecap:butt;stroke-linejoin:miter;stroke:rgb(50%,50%,50%);stroke-opacity:1;stroke-miterlimit:10;" d="M -6.904427 4.260417 L 0.471875 0.00260417 L -6.904427 -4.261719 Z M -6.904427 4.260417 " transform="matrix(0,0.6,0.6,0,13.35,167.3575)"/>
<path style="fill:none;stroke-width:1.79329;stroke-linecap:butt;stroke-linejoin:miter;stroke:rgb(50%,50%,50%);stroke-opacity:1;stroke-miterlimit:10;" d="M 31.880469 46.825031 L 31.880469 38.356281 " transform="matrix(1,0,0,-1,13.35,175.243)"/>
<path style="fill-rule:nonzero;fill:rgb(50%,50%,50%);fill-opacity:1;stroke-width:1.79329;stroke-linecap:butt;stroke-linejoin:miter;stroke:rgb(50%,50%,50%);stroke-opacity:1;stroke-miterlimit:10;" d="M -6.901171 4.25716 L 0.475131 -0.000652083 L -6.901171 -4.258465 Z M -6.901171 4.25716 " transform="matrix(0,0.6,0.6,0,45.23086,135.47664)"/>
<path style="fill:none;stroke-width:1.79329;stroke-linecap:butt;stroke-linejoin:miter;stroke:rgb(50%,50%,50%);stroke-opacity:1;stroke-miterlimit:10;" d="M 0.0015625 78.703937 L 0.0015625 70.239094 " transform="matrix(1,0,0,-1,13.35,175.243)"/>
<path style="fill-rule:nonzero;fill:rgb(50%,50%,50%);fill-opacity:1;stroke-width:1.79329;stroke-linecap:butt;stroke-linejoin:miter;stroke:rgb(50%,50%,50%);stroke-opacity:1;stroke-miterlimit:10;" d="M -6.904425 4.260417 L 0.471877 0.00260417 L -6.904425 -4.261719 Z M -6.904425 4.260417 " transform="matrix(0,0.6,0.6,0,13.35,103.59578)"/>
<path style="fill:none;stroke-width:1.79329;stroke-linecap:butt;stroke-linejoin:miter;stroke:rgb(50%,50%,50%);stroke-opacity:1;stroke-miterlimit:10;" d="M 31.880469 110.58675 L 31.880469 102.118 " transform="matrix(1,0,0,-1,13.35,175.243)"/>
<path style="fill-rule:nonzero;fill:rgb(50%,50%,50%);fill-opacity:1;stroke-width:1.79329;stroke-linecap:butt;stroke-linejoin:miter;stroke:rgb(50%,50%,50%);stroke-opacity:1;stroke-miterlimit:10;" d="M -6.901169 4.25716 L 0.475133 -0.000652083 L -6.901169 -4.258465 Z M -6.901169 4.25716 " transform="matrix(0,0.6,0.6,0,45.23086,71.71492)"/>
<path style="fill:none;stroke-width:1.79329;stroke-linecap:butt;stroke-linejoin:miter;stroke:rgb(50%,50%,50%);stroke-opacity:1;stroke-miterlimit:10;" d="M 0.0015625 142.465656 L 0.0015625 134.000812 " transform="matrix(1,0,0,-1,13.35,175.243)"/>
<path style="fill-rule:nonzero;fill:rgb(50%,50%,50%);fill-opacity:1;stroke-width:1.79329;stroke-linecap:butt;stroke-linejoin:miter;stroke:rgb(50%,50%,50%);stroke-opacity:1;stroke-miterlimit:10;" d="M -6.904423 4.260417 L 0.471879 0.00260417 L -6.904423 -4.261719 Z M -6.904423 4.260417 " transform="matrix(0,0.6,0.6,0,13.35,39.83406)"/>
<path style="fill:none;stroke-width:1.79329;stroke-linecap:butt;stroke-linejoin:miter;stroke:rgb(50%,50%,50%);stroke-opacity:1;stroke-miterlimit:10;" d="M 31.880469 174.348469 L 31.880469 165.879719 " transform="matrix(1,0,0,-1,13.35,175.243)"/>
<path style="fill-rule:nonzero;fill:rgb(50%,50%,50%);fill-opacity:1;stroke-width:1.79329;stroke-linecap:butt;stroke-linejoin:miter;stroke:rgb(50%,50%,50%);stroke-opacity:1;stroke-miterlimit:10;" d="M -6.901167 4.25716 L 0.475135 -0.000652083 L -6.901167 -4.258465 Z M -6.901167 4.25716 " transform="matrix(0,0.6,0.6,0,45.23086,7.9532)"/>
<path style="fill:none;stroke-width:1.79329;stroke-linecap:butt;stroke-linejoin:miter;stroke:rgb(50%,50%,50%);stroke-opacity:1;stroke-miterlimit:10;" d="M 63.763281 14.942219 L 63.763281 6.477375 " transform="matrix(1,0,0,-1,13.35,175.243)"/>
<path style="fill-rule:nonzero;fill:rgb(50%,50%,50%);fill-opacity:1;stroke-width:1.79329;stroke-linecap:butt;stroke-linejoin:miter;stroke:rgb(50%,50%,50%);stroke-opacity:1;stroke-miterlimit:10;" d="M -6.904427 4.260415 L 0.471875 0.00260208 L -6.904427 -4.261721 Z M -6.904427 4.260415 " transform="matrix(0,0.6,0.6,0,77.11172,167.3575)"/>
<path style="fill:none;stroke-width:1.79329;stroke-linecap:butt;stroke-linejoin:miter;stroke:rgb(50%,50%,50%);stroke-opacity:1;stroke-miterlimit:10;" d="M 95.642188 46.825031 L 95.642188 38.356281 " transform="matrix(1,0,0,-1,13.35,175.243)"/>
<path style="fill-rule:nonzero;fill:rgb(50%,50%,50%);fill-opacity:1;stroke-width:1.79329;stroke-linecap:butt;stroke-linejoin:miter;stroke:rgb(50%,50%,50%);stroke-opacity:1;stroke-miterlimit:10;" d="M -6.901171 4.257158 L 0.475131 -0.000654167 L -6.901171 -4.258467 Z M -6.901171 4.257158 " transform="matrix(0,0.6,0.6,0,108.99258,135.47664)"/>
<path style="fill:none;stroke-width:1.79329;stroke-linecap:butt;stroke-linejoin:miter;stroke:rgb(50%,50%,50%);stroke-opacity:1;stroke-miterlimit:10;" d="M 63.763281 78.703937 L 63.763281 70.239094 " transform="matrix(1,0,0,-1,13.35,175.243)"/>
<path style="fill-rule:nonzero;fill:rgb(50%,50%,50%);fill-opacity:1;stroke-width:1.79329;stroke-linecap:butt;stroke-linejoin:miter;stroke:rgb(50%,50%,50%);stroke-opacity:1;stroke-miterlimit:10;" d="M -6.904425 4.260415 L 0.471877 0.00260208 L -6.904425 -4.261721 Z M -6.904425 4.260415 " transform="matrix(0,0.6,0.6,0,77.11172,103.59578)"/>
<path style="fill:none;stroke-width:1.79329;stroke-linecap:butt;stroke-linejoin:miter;stroke:rgb(50%,50%,50%);stroke-opacity:1;stroke-miterlimit:10;" d="M 95.642188 110.58675 L 95.642188 102.118 " transform="matrix(1,0,0,-1,13.35,175.243)"/>
<path style="fill-rule:nonzero;fill:rgb(50%,50%,50%);fill-opacity:1;stroke-width:1.79329;stroke-linecap:butt;stroke-linejoin:miter;stroke:rgb(50%,50%,50%);stroke-opacity:1;stroke-miterlimit:10;" d="M -6.901169 4.257158 L 0.475133 -0.000654167 L -6.901169 -4.258467 Z M -6.901169 4.257158 " transform="matrix(0,0.6,0.6,0,108.99258,71.71492)"/>
<path style="fill:none;stroke-width:1.79329;stroke-linecap:butt;stroke-linejoin:miter;stroke:rgb(50%,50%,50%);stroke-opacity:1;stroke-miterlimit:10;" d="M 63.763281 142.465656 L 63.763281 134.000812 " transform="matrix(1,0,0,-1,13.35,175.243)"/>
<path style="fill-rule:nonzero;fill:rgb(50%,50%,50%);fill-opacity:1;stroke-width:1.79329;stroke-linecap:butt;stroke-linejoin:miter;stroke:rgb(50%,50%,50%);stroke-opacity:1;stroke-miterlimit:10;" d="M -6.904423 4.260415 L 0.471879 0.00260208 L -6.904423 -4.261721 Z M -6.904423 4.260415 " transform="matrix(0,0.6,0.6,0,77.11172,39.83406)"/>
<path style="fill:none;stroke-width:1.79329;stroke-linecap:butt;stroke-linejoin:miter;stroke:rgb(50%,50%,50%);stroke-opacity:1;stroke-miterlimit:10;" d="M 95.642188 174.348469 L 95.642188 165.879719 " transform="matrix(1,0,0,-1,13.35,175.243)"/>
<path style="fill-rule:nonzero;fill:rgb(50%,50%,50%);fill-opacity:1;stroke-width:1.79329;stroke-linecap:butt;stroke-linejoin:miter;stroke:rgb(50%,50%,50%);stroke-opacity:1;stroke-miterlimit:10;" d="M -6.901167 4.257158 L 0.475135 -0.000654167 L -6.901167 -4.258467 Z M -6.901167 4.257158 " transform="matrix(0,0.6,0.6,0,108.99258,7.9532)"/>
<path style="fill:none;stroke-width:1.79329;stroke-linecap:butt;stroke-linejoin:miter;stroke:rgb(50%,50%,50%);stroke-opacity:1;stroke-miterlimit:10;" d="M 127.525 14.942219 L 127.525 6.477375 " transform="matrix(1,0,0,-1,13.35,175.243)"/>
<path style="fill-rule:nonzero;fill:rgb(50%,50%,50%);fill-opacity:1;stroke-width:1.79329;stroke-linecap:butt;stroke-linejoin:miter;stroke:rgb(50%,50%,50%);stroke-opacity:1;stroke-miterlimit:10;" d="M -6.904427 4.260413 L 0.471875 0.0026 L -6.904427 -4.261723 Z M -6.904427 4.260413 " transform="matrix(0,0.6,0.6,0,140.87344,167.3575)"/>
<path style="fill:none;stroke-width:1.79329;stroke-linecap:butt;stroke-linejoin:miter;stroke:rgb(50%,50%,50%);stroke-opacity:1;stroke-miterlimit:10;" d="M 159.403906 46.825031 L 159.403906 38.356281 " transform="matrix(1,0,0,-1,13.35,175.243)"/>
<path style=" stroke:none;fill-rule:nonzero;fill:rgb(50%,50%,50%);fill-opacity:1;" d="M 175.308594 131.335938 L 172.753906 135.761719 L 170.199219 131.335938 Z M 175.308594 131.335938 "/>
<g clip-path="url(#clip10)" clip-rule="nonzero">
<path style="fill:none;stroke-width:1.79329;stroke-linecap:butt;stroke-linejoin:miter;stroke:rgb(50%,50%,50%);stroke-opacity:1;stroke-miterlimit:10;" d="M -6.901171 4.257156 L 0.475131 -0.00065625 L -6.901171 -4.258469 Z M -6.901171 4.257156 " transform="matrix(0,0.6,0.6,0,172.7543,135.47664)"/>
</g>
<path style="fill:none;stroke-width:1.79329;stroke-linecap:butt;stroke-linejoin:miter;stroke:rgb(50%,50%,50%);stroke-opacity:1;stroke-miterlimit:10;" d="M 127.525 78.703937 L 127.525 70.239094 " transform="matrix(1,0,0,-1,13.35,175.243)"/>
<path style="fill-rule:nonzero;fill:rgb(50%,50%,50%);fill-opacity:1;stroke-width:1.79329;stroke-linecap:butt;stroke-linejoin:miter;stroke:rgb(50%,50%,50%);stroke-opacity:1;stroke-miterlimit:10;" d="M -6.904425 4.260413 L 0.471877 0.0026 L -6.904425 -4.261723 Z M -6.904425 4.260413 " transform="matrix(0,0.6,0.6,0,140.87344,103.59578)"/>
<path style="fill:none;stroke-width:1.79329;stroke-linecap:butt;stroke-linejoin:miter;stroke:rgb(50%,50%,50%);stroke-opacity:1;stroke-miterlimit:10;" d="M 159.403906 110.58675 L 159.403906 102.118 " transform="matrix(1,0,0,-1,13.35,175.243)"/>
<path style=" stroke:none;fill-rule:nonzero;fill:rgb(50%,50%,50%);fill-opacity:1;" d="M 175.308594 67.574219 L 172.753906 72 L 170.199219 67.574219 Z M 175.308594 67.574219 "/>
<g clip-path="url(#clip11)" clip-rule="nonzero">
<path style="fill:none;stroke-width:1.79329;stroke-linecap:butt;stroke-linejoin:miter;stroke:rgb(50%,50%,50%);stroke-opacity:1;stroke-miterlimit:10;" d="M -6.901169 4.257156 L 0.475133 -0.00065625 L -6.901169 -4.258469 Z M -6.901169 4.257156 " transform="matrix(0,0.6,0.6,0,172.7543,71.71492)"/>
</g>
<path style="fill:none;stroke-width:1.79329;stroke-linecap:butt;stroke-linejoin:miter;stroke:rgb(50%,50%,50%);stroke-opacity:1;stroke-miterlimit:10;" d="M 127.525 142.465656 L 127.525 134.000812 " transform="matrix(1,0,0,-1,13.35,175.243)"/>
<path style="fill-rule:nonzero;fill:rgb(50%,50%,50%);fill-opacity:1;stroke-width:1.79329;stroke-linecap:butt;stroke-linejoin:miter;stroke:rgb(50%,50%,50%);stroke-opacity:1;stroke-miterlimit:10;" d="M -6.904423 4.260413 L 0.471879 0.0026 L -6.904423 -4.261723 Z M -6.904423 4.260413 " transform="matrix(0,0.6,0.6,0,140.87344,39.83406)"/>
<path style="fill:none;stroke-width:1.79329;stroke-linecap:butt;stroke-linejoin:miter;stroke:rgb(50%,50%,50%);stroke-opacity:1;stroke-miterlimit:10;" d="M 159.403906 174.348469 L 159.403906 165.879719 " transform="matrix(1,0,0,-1,13.35,175.243)"/>
<path style=" stroke:none;fill-rule:nonzero;fill:rgb(50%,50%,50%);fill-opacity:1;" d="M 175.308594 3.8125 L 172.753906 8.238281 L 170.199219 3.8125 Z M 175.308594 3.8125 "/>
<g clip-path="url(#clip12)" clip-rule="nonzero">
<path style="fill:none;stroke-width:1.79329;stroke-linecap:butt;stroke-linejoin:miter;stroke:rgb(50%,50%,50%);stroke-opacity:1;stroke-miterlimit:10;" d="M -6.901167 4.257156 L 0.475135 -0.00065625 L -6.901167 -4.258469 Z M -6.901167 4.257156 " transform="matrix(0,0.6,0.6,0,172.7543,7.9532)"/>
</g>
<path style=" stroke:none;fill-rule:nonzero;fill:rgb(0%,0%,0%);fill-opacity:1;" d="M 19.824219 175.242188 C 19.824219 171.667969 16.925781 168.765625 13.351562 168.765625 C 9.773438 168.765625 6.875 171.667969 6.875 175.242188 C 6.875 178.820312 9.773438 181.71875 13.351562 181.71875 C 16.925781 181.71875 19.824219 178.820312 19.824219 175.242188 Z M 19.824219 175.242188 "/>
<g clip-path="url(#clip13)" clip-rule="nonzero">
<path style="fill:none;stroke-width:1.99255;stroke-linecap:butt;stroke-linejoin:miter;stroke:rgb(0%,0%,0%);stroke-opacity:1;stroke-miterlimit:10;" d="M 6.474219 0.0008125 C 6.474219 3.575031 3.575781 6.477375 0.0015625 6.477375 C -3.576563 6.477375 -6.475 3.575031 -6.475 0.0008125 C -6.475 -3.577313 -3.576563 -6.47575 0.0015625 -6.47575 C 3.575781 -6.47575 6.474219 -3.577313 6.474219 0.0008125 Z M 6.474219 0.0008125 " transform="matrix(1,0,0,-1,13.35,175.243)"/>
</g>
<path style="fill-rule:nonzero;fill:rgb(0%,0%,0%);fill-opacity:1;stroke-width:1.99255;stroke-linecap:butt;stroke-linejoin:miter;stroke:rgb(0%,0%,0%);stroke-opacity:1;stroke-miterlimit:10;" d="M 6.474219 63.762531 C 6.474219 67.33675 3.575781 70.239094 0.0015625 70.239094 C -3.576563 70.239094 -6.475 67.33675 -6.475 63.762531 C -6.475 60.184406 -3.576563 57.285969 0.0015625 57.285969 C 3.575781 57.285969 6.474219 60.184406 6.474219 63.762531 Z M 6.474219 63.762531 " transform="matrix(1,0,0,-1,13.35,175.243)"/>
<path style="fill-rule:nonzero;fill:rgb(0%,0%,0%);fill-opacity:1;stroke-width:1.99255;stroke-linecap:butt;stroke-linejoin:miter;stroke:rgb(0%,0%,0%);stroke-opacity:1;stroke-miterlimit:10;" d="M 6.474219 127.52425 C 6.474219 131.098469 3.575781 134.000812 0.0015625 134.000812 C -3.576563 134.000812 -6.475 131.098469 -6.475 127.52425 C -6.475 123.946125 -3.576563 121.047687 0.0015625 121.047687 C 3.575781 121.047687 6.474219 123.946125 6.474219 127.52425 Z M 6.474219 127.52425 " transform="matrix(1,0,0,-1,13.35,175.243)"/>
<path style="fill-rule:nonzero;fill:rgb(0%,0%,0%);fill-opacity:1;stroke-width:1.99255;stroke-linecap:butt;stroke-linejoin:miter;stroke:rgb(0%,0%,0%);stroke-opacity:1;stroke-miterlimit:10;" d="M 38.357031 31.879719 C 38.357031 35.457844 35.458594 38.356281 31.880469 38.356281 C 28.30625 38.356281 25.403906 35.457844 25.403906 31.879719 C 25.403906 28.3055 28.30625 25.403156 31.880469 25.403156 C 35.458594 25.403156 38.357031 28.3055 38.357031 31.879719 Z M 38.357031 31.879719 " transform="matrix(1,0,0,-1,13.35,175.243)"/>
<path style="fill-rule:nonzero;fill:rgb(0%,0%,0%);fill-opacity:1;stroke-width:1.99255;stroke-linecap:butt;stroke-linejoin:miter;stroke:rgb(0%,0%,0%);stroke-opacity:1;stroke-miterlimit:10;" d="M 38.357031 95.641437 C 38.357031 99.219562 35.458594 102.118 31.880469 102.118 C 28.30625 102.118 25.403906 99.219562 25.403906 95.641437 C 25.403906 92.067219 28.30625 89.164875 31.880469 89.164875 C 35.458594 89.164875 38.357031 92.067219 38.357031 95.641437 Z M 38.357031 95.641437 " transform="matrix(1,0,0,-1,13.35,175.243)"/>
<path style="fill-rule:nonzero;fill:rgb(0%,0%,0%);fill-opacity:1;stroke-width:1.99255;stroke-linecap:butt;stroke-linejoin:miter;stroke:rgb(0%,0%,0%);stroke-opacity:1;stroke-miterlimit:10;" d="M 38.357031 159.403156 C 38.357031 162.981281 35.458594 165.879719 31.880469 165.879719 C 28.30625 165.879719 25.403906 162.981281 25.403906 159.403156 C 25.403906 155.828937 28.30625 152.926594 31.880469 152.926594 C 35.458594 152.926594 38.357031 155.828937 38.357031 159.403156 Z M 38.357031 159.403156 " transform="matrix(1,0,0,-1,13.35,175.243)"/>
<path style=" stroke:none;fill-rule:nonzero;fill:rgb(0%,0%,0%);fill-opacity:1;" d="M 83.585938 175.242188 C 83.585938 171.667969 80.6875 168.765625 77.113281 168.765625 C 73.535156 168.765625 70.636719 171.667969 70.636719 175.242188 C 70.636719 178.820312 73.535156 181.71875 77.113281 181.71875 C 80.6875 181.71875 83.585938 178.820312 83.585938 175.242188 Z M 83.585938 175.242188 "/>
<g clip-path="url(#clip14)" clip-rule="nonzero">
<path style="fill:none;stroke-width:1.99255;stroke-linecap:butt;stroke-linejoin:miter;stroke:rgb(0%,0%,0%);stroke-opacity:1;stroke-miterlimit:10;" d="M 70.235938 0.0008125 C 70.235938 3.575031 67.3375 6.477375 63.763281 6.477375 C 60.185156 6.477375 57.286719 3.575031 57.286719 0.0008125 C 57.286719 -3.577313 60.185156 -6.47575 63.763281 -6.47575 C 67.3375 -6.47575 70.235938 -3.577313 70.235938 0.0008125 Z M 70.235938 0.0008125 " transform="matrix(1,0,0,-1,13.35,175.243)"/>
</g>
<path style="fill-rule:nonzero;fill:rgb(0%,0%,0%);fill-opacity:1;stroke-width:1.99255;stroke-linecap:butt;stroke-linejoin:miter;stroke:rgb(0%,0%,0%);stroke-opacity:1;stroke-miterlimit:10;" d="M 70.235938 63.762531 C 70.235938 67.33675 67.3375 70.239094 63.763281 70.239094 C 60.185156 70.239094 57.286719 67.33675 57.286719 63.762531 C 57.286719 60.184406 60.185156 57.285969 63.763281 57.285969 C 67.3375 57.285969 70.235938 60.184406 70.235938 63.762531 Z M 70.235938 63.762531 " transform="matrix(1,0,0,-1,13.35,175.243)"/>
<path style="fill-rule:nonzero;fill:rgb(0%,0%,0%);fill-opacity:1;stroke-width:1.99255;stroke-linecap:butt;stroke-linejoin:miter;stroke:rgb(0%,0%,0%);stroke-opacity:1;stroke-miterlimit:10;" d="M 70.235938 127.52425 C 70.235938 131.098469 67.3375 134.000812 63.763281 134.000812 C 60.185156 134.000812 57.286719 131.098469 57.286719 127.52425 C 57.286719 123.946125 60.185156 121.047687 63.763281 121.047687 C 67.3375 121.047687 70.235938 123.946125 70.235938 127.52425 Z M 70.235938 127.52425 " transform="matrix(1,0,0,-1,13.35,175.243)"/>
<path style="fill-rule:nonzero;fill:rgb(0%,0%,0%);fill-opacity:1;stroke-width:1.99255;stroke-linecap:butt;stroke-linejoin:miter;stroke:rgb(0%,0%,0%);stroke-opacity:1;stroke-miterlimit:10;" d="M 102.11875 31.879719 C 102.11875 35.457844 99.220313 38.356281 95.642188 38.356281 C 92.067969 38.356281 89.165625 35.457844 89.165625 31.879719 C 89.165625 28.3055 92.067969 25.403156 95.642188 25.403156 C 99.220313 25.403156 102.11875 28.3055 102.11875 31.879719 Z M 102.11875 31.879719 " transform="matrix(1,0,0,-1,13.35,175.243)"/>
<path style="fill-rule:nonzero;fill:rgb(0%,0%,0%);fill-opacity:1;stroke-width:1.99255;stroke-linecap:butt;stroke-linejoin:miter;stroke:rgb(0%,0%,0%);stroke-opacity:1;stroke-miterlimit:10;" d="M 102.11875 95.641437 C 102.11875 99.219562 99.220313 102.118 95.642188 102.118 C 92.067969 102.118 89.165625 99.219562 89.165625 95.641437 C 89.165625 92.067219 92.067969 89.164875 95.642188 89.164875 C 99.220313 89.164875 102.11875 92.067219 102.11875 95.641437 Z M 102.11875 95.641437 " transform="matrix(1,0,0,-1,13.35,175.243)"/>
<path style="fill-rule:nonzero;fill:rgb(0%,0%,0%);fill-opacity:1;stroke-width:1.99255;stroke-linecap:butt;stroke-linejoin:miter;stroke:rgb(0%,0%,0%);stroke-opacity:1;stroke-miterlimit:10;" d="M 102.11875 159.403156 C 102.11875 162.981281 99.220313 165.879719 95.642188 165.879719 C 92.067969 165.879719 89.165625 162.981281 89.165625 159.403156 C 89.165625 155.828937 92.067969 152.926594 95.642188 152.926594 C 99.220313 152.926594 102.11875 155.828937 102.11875 159.403156 Z M 102.11875 159.403156 " transform="matrix(1,0,0,-1,13.35,175.243)"/>
<path style=" stroke:none;fill-rule:nonzero;fill:rgb(0%,0%,0%);fill-opacity:1;" d="M 147.347656 175.242188 C 147.347656 171.667969 144.449219 168.765625 140.875 168.765625 C 137.296875 168.765625 134.398438 171.667969 134.398438 175.242188 C 134.398438 178.820312 137.296875 181.71875 140.875 181.71875 C 144.449219 181.71875 147.347656 178.820312 147.347656 175.242188 Z M 147.347656 175.242188 "/>
<g clip-path="url(#clip15)" clip-rule="nonzero">
<path style="fill:none;stroke-width:1.99255;stroke-linecap:butt;stroke-linejoin:miter;stroke:rgb(0%,0%,0%);stroke-opacity:1;stroke-miterlimit:10;" d="M 133.997656 0.0008125 C 133.997656 3.575031 131.099219 6.477375 127.525 6.477375 C 123.946875 6.477375 121.048438 3.575031 121.048438 0.0008125 C 121.048438 -3.577313 123.946875 -6.47575 127.525 -6.47575 C 131.099219 -6.47575 133.997656 -3.577313 133.997656 0.0008125 Z M 133.997656 0.0008125 " transform="matrix(1,0,0,-1,13.35,175.243)"/>
</g>
<path style="fill-rule:nonzero;fill:rgb(0%,0%,0%);fill-opacity:1;stroke-width:1.99255;stroke-linecap:butt;stroke-linejoin:miter;stroke:rgb(0%,0%,0%);stroke-opacity:1;stroke-miterlimit:10;" d="M 133.997656 63.762531 C 133.997656 67.33675 131.099219 70.239094 127.525 70.239094 C 123.946875 70.239094 121.048438 67.33675 121.048438 63.762531 C 121.048438 60.184406 123.946875 57.285969 127.525 57.285969 C 131.099219 57.285969 133.997656 60.184406 133.997656 63.762531 Z M 133.997656 63.762531 " transform="matrix(1,0,0,-1,13.35,175.243)"/>
<path style="fill-rule:nonzero;fill:rgb(0%,0%,0%);fill-opacity:1;stroke-width:1.99255;stroke-linecap:butt;stroke-linejoin:miter;stroke:rgb(0%,0%,0%);stroke-opacity:1;stroke-miterlimit:10;" d="M 133.997656 127.52425 C 133.997656 131.098469 131.099219 134.000812 127.525 134.000812 C 123.946875 134.000812 121.048438 131.098469 121.048438 127.52425 C 121.048438 123.946125 123.946875 121.047687 127.525 121.047687 C 131.099219 121.047687 133.997656 123.946125 133.997656 127.52425 Z M 133.997656 127.52425 " transform="matrix(1,0,0,-1,13.35,175.243)"/>
<path style=" stroke:none;fill-rule:nonzero;fill:rgb(0%,0%,0%);fill-opacity:1;" d="M 179.230469 143.363281 C 179.230469 139.785156 176.332031 136.886719 172.753906 136.886719 C 169.179688 136.886719 166.277344 139.785156 166.277344 143.363281 C 166.277344 146.9375 169.179688 149.839844 172.753906 149.839844 C 176.332031 149.839844 179.230469 146.9375 179.230469 143.363281 Z M 179.230469 143.363281 "/>
<g clip-path="url(#clip16)" clip-rule="nonzero">
<path style="fill:none;stroke-width:1.99255;stroke-linecap:butt;stroke-linejoin:miter;stroke:rgb(0%,0%,0%);stroke-opacity:1;stroke-miterlimit:10;" d="M 165.880469 31.879719 C 165.880469 35.457844 162.982031 38.356281 159.403906 38.356281 C 155.829688 38.356281 152.927344 35.457844 152.927344 31.879719 C 152.927344 28.3055 155.829688 25.403156 159.403906 25.403156 C 162.982031 25.403156 165.880469 28.3055 165.880469 31.879719 Z M 165.880469 31.879719 " transform="matrix(1,0,0,-1,13.35,175.243)"/>
</g>
<path style=" stroke:none;fill-rule:nonzero;fill:rgb(0%,0%,0%);fill-opacity:1;" d="M 179.230469 79.601562 C 179.230469 76.023438 176.332031 73.125 172.753906 73.125 C 169.179688 73.125 166.277344 76.023438 166.277344 79.601562 C 166.277344 83.175781 169.179688 86.078125 172.753906 86.078125 C 176.332031 86.078125 179.230469 83.175781 179.230469 79.601562 Z M 179.230469 79.601562 "/>
<g clip-path="url(#clip17)" clip-rule="nonzero">
<path style="fill:none;stroke-width:1.99255;stroke-linecap:butt;stroke-linejoin:miter;stroke:rgb(0%,0%,0%);stroke-opacity:1;stroke-miterlimit:10;" d="M 165.880469 95.641437 C 165.880469 99.219562 162.982031 102.118 159.403906 102.118 C 155.829688 102.118 152.927344 99.219562 152.927344 95.641437 C 152.927344 92.067219 155.829688 89.164875 159.403906 89.164875 C 162.982031 89.164875 165.880469 92.067219 165.880469 95.641437 Z M 165.880469 95.641437 " transform="matrix(1,0,0,-1,13.35,175.243)"/>
</g>
<path style=" stroke:none;fill-rule:nonzero;fill:rgb(0%,0%,0%);fill-opacity:1;" d="M 179.230469 15.839844 C 179.230469 12.261719 176.332031 9.363281 172.753906 9.363281 C 169.179688 9.363281 166.277344 12.261719 166.277344 15.839844 C 166.277344 19.414062 169.179688 22.316406 172.753906 22.316406 C 176.332031 22.316406 179.230469 19.414062 179.230469 15.839844 Z M 179.230469 15.839844 "/>
<g clip-path="url(#clip18)" clip-rule="nonzero">
<path style="fill:none;stroke-width:1.99255;stroke-linecap:butt;stroke-linejoin:miter;stroke:rgb(0%,0%,0%);stroke-opacity:1;stroke-miterlimit:10;" d="M 165.880469 159.403156 C 165.880469 162.981281 162.982031 165.879719 159.403906 165.879719 C 155.829688 165.879719 152.927344 162.981281 152.927344 159.403156 C 152.927344 155.828937 155.829688 152.926594 159.403906 152.926594 C 162.982031 152.926594 165.880469 155.828937 165.880469 159.403156 Z M 165.880469 159.403156 " transform="matrix(1,0,0,-1,13.35,175.243)"/>
</g>
<path style=" stroke:none;fill-rule:nonzero;fill:rgb(100%,0%,0%);fill-opacity:1;" d="M 99.527344 159.300781 C 99.527344 155.726562 96.628906 152.828125 93.050781 152.828125 C 89.476562 152.828125 86.578125 155.726562 86.578125 159.300781 C 86.578125 162.878906 89.476562 165.777344 93.050781 165.777344 C 96.628906 165.777344 99.527344 162.878906 99.527344 159.300781 Z M 99.527344 159.300781 "/>
<g clip-path="url(#clip19)" clip-rule="nonzero">
<path style="fill:none;stroke-width:1.99255;stroke-linecap:butt;stroke-linejoin:miter;stroke:rgb(0%,0%,0%);stroke-opacity:1;stroke-miterlimit:10;" d="M 86.177344 15.942219 C 86.177344 19.516437 83.278906 22.414875 79.700781 22.414875 C 76.126563 22.414875 73.228125 19.516437 73.228125 15.942219 C 73.228125 12.364094 76.126563 9.465656 79.700781 9.465656 C 83.278906 9.465656 86.177344 12.364094 86.177344 15.942219 Z M 86.177344 15.942219 " transform="matrix(1,0,0,-1,13.35,175.243)"/>
</g>
<path style="fill-rule:nonzero;fill:rgb(100%,61.599731%,0%);fill-opacity:1;stroke-width:1.99255;stroke-linecap:butt;stroke-linejoin:miter;stroke:rgb(0%,0%,0%);stroke-opacity:1;stroke-miterlimit:10;" d="M 86.177344 47.821125 C 86.177344 51.39925 83.278906 54.297687 79.700781 54.297687 C 76.126563 54.297687 73.228125 51.39925 73.228125 47.821125 C 73.228125 44.243 76.126563 41.344562 79.700781 41.344562 C 83.278906 41.344562 86.177344 44.243 86.177344 47.821125 Z M 86.177344 47.821125 " transform="matrix(1,0,0,-1,13.35,175.243)"/>
<path style="fill-rule:nonzero;fill:rgb(100%,0%,0%);fill-opacity:1;stroke-width:1.99255;stroke-linecap:butt;stroke-linejoin:miter;stroke:rgb(0%,0%,0%);stroke-opacity:1;stroke-miterlimit:10;" d="M 86.177344 79.703937 C 86.177344 83.278156 83.278906 86.176594 79.700781 86.176594 C 76.126563 86.176594 73.228125 83.278156 73.228125 79.703937 C 73.228125 76.125812 76.126563 73.227375 79.700781 73.227375 C 83.278906 73.227375 86.177344 76.125812 86.177344 79.703937 Z M 86.177344 79.703937 " transform="matrix(1,0,0,-1,13.35,175.243)"/>
<path style="fill-rule:nonzero;fill:rgb(100%,0%,0%);fill-opacity:1;stroke-width:1.99255;stroke-linecap:butt;stroke-linejoin:miter;stroke:rgb(0%,0%,0%);stroke-opacity:1;stroke-miterlimit:10;" d="M 86.177344 111.582844 C 86.177344 115.160969 83.278906 118.059406 79.700781 118.059406 C 76.126563 118.059406 73.228125 115.160969 73.228125 111.582844 C 73.228125 108.004719 76.126563 105.106281 79.700781 105.106281 C 83.278906 105.106281 86.177344 108.004719 86.177344 111.582844 Z M 86.177344 111.582844 " transform="matrix(1,0,0,-1,13.35,175.243)"/>
<path style="fill-rule:nonzero;fill:rgb(100%,0%,0%);fill-opacity:1;stroke-width:1.99255;stroke-linecap:butt;stroke-linejoin:miter;stroke:rgb(0%,0%,0%);stroke-opacity:1;stroke-miterlimit:10;" d="M 86.177344 143.465656 C 86.177344 147.039875 83.278906 149.938312 79.700781 149.938312 C 76.126563 149.938312 73.228125 147.039875 73.228125 143.465656 C 73.228125 139.887531 76.126563 136.989094 79.700781 136.989094 C 83.278906 136.989094 86.177344 139.887531 86.177344 143.465656 Z M 86.177344 143.465656 " transform="matrix(1,0,0,-1,13.35,175.243)"/>
<g clip-path="url(#clip20)" clip-rule="nonzero">
<path style="fill:none;stroke-width:0.79701;stroke-linecap:butt;stroke-linejoin:miter;stroke:rgb(0%,0%,0%);stroke-opacity:1;stroke-dasharray:2.98883,2.98883;stroke-miterlimit:10;" d="M -12.951563 -12.952313 L 50.810156 -12.952313 L 50.810156 50.809406 L -12.951563 50.809406 Z M -12.951563 -12.952313 " transform="matrix(1,0,0,-1,13.35,175.243)"/>
</g>
</g>
</svg>
