<?xml version="1.0" encoding="UTF-8"?>
<svg xmlns="http://www.w3.org/2000/svg" xmlns:xlink="http://www.w3.org/1999/xlink" width="20.922pt" height="20.922pt" viewBox="0 0 20.922 20.922" version="1.1">
<defs>
<clipPath id="clip1">
  <path d="M 0 0 L 20.921875 0 L 20.921875 20.921875 L 0 20.921875 Z M 0 0 "/>
</clipPath>
</defs>
<g id="surface1">
<path style=" stroke:none;fill-rule:nonzero;fill:rgb(75.698853%,82.699585%,99.598694%);fill-opacity:1;" d="M 19.925781 10.460938 C 19.925781 5.234375 15.6875 0.996094 10.460938 0.996094 C 5.234375 0.996094 0.996094 5.234375 0.996094 10.460938 C 0.996094 15.6875 5.234375 19.925781 10.460938 19.925781 C 15.6875 19.925781 19.925781 15.6875 19.925781 10.460938 Z M 19.925781 10.460938 "/>
<g clip-path="url(#clip1)" clip-rule="nonzero">
<path style="fill:none;stroke-width:1.99255;stroke-linecap:butt;stroke-linejoin:miter;stroke:rgb(0%,0%,0%);stroke-opacity:1;stroke-miterlimit:10;" d="M 9.464781 0.0000625 C 9.464781 5.226625 5.2265 9.464906 -0.0000625 9.464906 C -5.226625 9.464906 -9.464906 5.226625 -9.464906 0.0000625 C -9.464906 -5.2265 -5.226625 -9.464781 -0.0000625 -9.464781 C 5.2265 -9.464781 9.464781 -5.2265 9.464781 0.0000625 Z M 9.464781 0.0000625 " transform="matrix(1,0,0,-1,10.461,10.461)"/>
</g>
</g>
</svg>
