<?xml version="1.0" encoding="UTF-8"?>
<svg xmlns="http://www.w3.org/2000/svg" xmlns:xlink="http://www.w3.org/1999/xlink" width="148.841pt" height="255.23pt" viewBox="0 0 148.841 255.23" version="1.1">
<defs>
<clipPath id="clip1">
  <path d="M 0 194 L 49 194 L 49 255.230469 L 0 255.230469 Z M 0 194 "/>
</clipPath>
<clipPath id="clip2">
  <path d="M 100 128 L 148.839844 128 L 148.839844 202 L 100 202 Z M 100 128 "/>
</clipPath>
<clipPath id="clip3">
  <path d="M 115 147 L 148.839844 147 L 148.839844 183 L 115 183 Z M 115 147 "/>
</clipPath>
<clipPath id="clip4">
  <path d="M 100 62 L 148.839844 62 L 148.839844 135 L 100 135 Z M 100 62 "/>
</clipPath>
<clipPath id="clip5">
  <path d="M 115 81 L 148.839844 81 L 148.839844 117 L 115 117 Z M 115 81 "/>
</clipPath>
<clipPath id="clip6">
  <path d="M 100 0 L 148.839844 0 L 148.839844 69 L 100 69 Z M 100 0 "/>
</clipPath>
<clipPath id="clip7">
  <path d="M 115 14 L 148.839844 14 L 148.839844 51 L 115 51 Z M 115 14 "/>
</clipPath>
<clipPath id="clip8">
  <path d="M 100 29 L 148.839844 29 L 148.839844 102 L 100 102 Z M 100 29 "/>
</clipPath>
<clipPath id="clip9">
  <path d="M 115 47 L 148.839844 47 L 148.839844 84 L 115 84 Z M 115 47 "/>
</clipPath>
<clipPath id="clip10">
  <path d="M 100 95 L 148.839844 95 L 148.839844 169 L 100 169 Z M 100 95 "/>
</clipPath>
<clipPath id="clip11">
  <path d="M 115 113 L 148.839844 113 L 148.839844 150 L 115 150 Z M 115 113 "/>
</clipPath>
<clipPath id="clip12">
  <path d="M 0 220 L 26 220 L 26 255.230469 L 0 255.230469 Z M 0 220 "/>
</clipPath>
<clipPath id="clip13">
  <path d="M 123 121 L 148.839844 121 L 148.839844 156 L 123 156 Z M 123 121 "/>
</clipPath>
<clipPath id="clip14">
  <path d="M 123 54 L 148.839844 54 L 148.839844 90 L 123 90 Z M 123 54 "/>
</clipPath>
<clipPath id="clip15">
  <path d="M 123 0 L 148.839844 0 L 148.839844 24 L 123 24 Z M 123 0 "/>
</clipPath>
<clipPath id="clip16">
  <path d="M 0 213 L 43 213 L 43 255.230469 L 0 255.230469 Z M 0 213 "/>
</clipPath>
<clipPath id="clip17">
  <path d="M 87 146 L 148.839844 146 L 148.839844 217 L 87 217 Z M 87 146 "/>
</clipPath>
<clipPath id="clip18">
  <path d="M 106 113 L 148.839844 113 L 148.839844 184 L 106 184 Z M 106 113 "/>
</clipPath>
<clipPath id="clip19">
  <path d="M 87 80 L 148.839844 80 L 148.839844 150 L 87 150 Z M 87 80 "/>
</clipPath>
<clipPath id="clip20">
  <path d="M 106 47 L 148.839844 47 L 148.839844 117 L 106 117 Z M 106 47 "/>
</clipPath>
<clipPath id="clip21">
  <path d="M 87 14 L 148.839844 14 L 148.839844 84 L 87 84 Z M 87 14 "/>
</clipPath>
<clipPath id="clip22">
  <path d="M 106 0 L 148.839844 0 L 148.839844 51 L 106 51 Z M 106 0 "/>
</clipPath>
</defs>
<g id="surface1">
<g clip-path="url(#clip1)" clip-rule="nonzero">
<path style="fill:none;stroke-width:1.79329;stroke-linecap:butt;stroke-linejoin:miter;stroke:rgb(0%,0%,0%);stroke-opacity:1;stroke-miterlimit:10;" d="M 3.238937 5.609562 L 15.891281 27.523625 " transform="matrix(1,0,0,-1,7.472,247.758)"/>
</g>
<path style="fill-rule:nonzero;fill:rgb(0%,0%,0%);fill-opacity:1;stroke-width:1.79329;stroke-linecap:butt;stroke-linejoin:miter;stroke:rgb(0%,0%,0%);stroke-opacity:1;stroke-miterlimit:10;" d="M -6.903227 4.262519 L 0.472514 0.00321795 L -6.908103 -4.257966 Z M -6.903227 4.262519 " transform="matrix(0.29999,-0.5196,-0.5196,-0.29999,18.44586,228.75039)"/>
<path style="fill:none;stroke-width:1.79329;stroke-linecap:butt;stroke-linejoin:miter;stroke:rgb(0%,0%,0%);stroke-opacity:1;stroke-miterlimit:10;" d="M 3.238937 71.871281 L 15.891281 93.785344 " transform="matrix(1,0,0,-1,7.472,247.758)"/>
<path style="fill-rule:nonzero;fill:rgb(0%,0%,0%);fill-opacity:1;stroke-width:1.79329;stroke-linecap:butt;stroke-linejoin:miter;stroke:rgb(0%,0%,0%);stroke-opacity:1;stroke-miterlimit:10;" d="M -6.905264 4.261343 L 0.470477 0.00204187 L -6.904501 -4.255887 Z M -6.905264 4.261343 " transform="matrix(0.29999,-0.5196,-0.5196,-0.29999,18.44586,162.48726)"/>
<path style="fill:none;stroke-width:1.79329;stroke-linecap:butt;stroke-linejoin:miter;stroke:rgb(0%,0%,0%);stroke-opacity:1;stroke-miterlimit:10;" d="M 3.238937 138.133 L 15.891281 160.050969 " transform="matrix(1,0,0,-1,7.472,247.758)"/>
<path style="fill-rule:nonzero;fill:rgb(0%,0%,0%);fill-opacity:1;stroke-width:1.79329;stroke-linecap:butt;stroke-linejoin:miter;stroke:rgb(0%,0%,0%);stroke-opacity:1;stroke-miterlimit:10;" d="M -6.907258 4.260192 L 0.474122 0.0041461 L -6.906495 -4.257038 Z M -6.907258 4.260192 " transform="matrix(0.29999,-0.5196,-0.5196,-0.29999,18.44586,96.22416)"/>
<path style="fill:none;stroke-width:1.79329;stroke-linecap:butt;stroke-linejoin:miter;stroke:rgb(0%,0%,0%);stroke-opacity:1;stroke-miterlimit:10;" d="M 3.238937 60.656437 L 15.891281 38.738469 " transform="matrix(1,0,0,-1,7.472,247.758)"/>
<path style="fill-rule:nonzero;fill:rgb(0%,0%,0%);fill-opacity:1;stroke-width:1.79329;stroke-linecap:butt;stroke-linejoin:miter;stroke:rgb(0%,0%,0%);stroke-opacity:1;stroke-miterlimit:10;" d="M -6.906665 4.257136 L 0.473952 -0.00404818 L -6.907427 -4.260094 Z M -6.906665 4.257136 " transform="matrix(0.29999,0.5196,0.5196,-0.29999,18.44586,200.50252)"/>
<path style="fill:none;stroke-width:1.79329;stroke-linecap:butt;stroke-linejoin:miter;stroke:rgb(0%,0%,0%);stroke-opacity:1;stroke-miterlimit:10;" d="M 3.238937 126.918156 L 15.891281 105.004094 " transform="matrix(1,0,0,-1,7.472,247.758)"/>
<path style="fill-rule:nonzero;fill:rgb(0%,0%,0%);fill-opacity:1;stroke-width:1.79329;stroke-linecap:butt;stroke-linejoin:miter;stroke:rgb(0%,0%,0%);stroke-opacity:1;stroke-miterlimit:10;" d="M -6.904657 4.255977 L 0.470322 -0.00195229 L -6.905419 -4.261253 Z M -6.904657 4.255977 " transform="matrix(0.29999,0.5196,0.5196,-0.29999,18.44586,134.23941)"/>
<path style="fill:none;stroke-width:1.79329;stroke-linecap:butt;stroke-linejoin:miter;stroke:rgb(0%,0%,0%);stroke-opacity:1;stroke-miterlimit:10;" d="M 60.62175 38.738469 L 73.274094 60.656437 " transform="matrix(1,0,0,-1,7.472,247.758)"/>
<path style="fill-rule:nonzero;fill:rgb(0%,0%,0%);fill-opacity:1;stroke-width:1.79329;stroke-linecap:butt;stroke-linejoin:miter;stroke:rgb(0%,0%,0%);stroke-opacity:1;stroke-miterlimit:10;" d="M -6.905865 4.258208 L 0.475515 0.00216224 L -6.905102 -4.259022 Z M -6.905865 4.258208 " transform="matrix(0.29999,-0.5196,-0.5196,-0.29999,75.83113,195.61882)"/>
<path style="fill:none;stroke-width:1.79329;stroke-linecap:butt;stroke-linejoin:miter;stroke:rgb(0%,0%,0%);stroke-opacity:1;stroke-miterlimit:10;" d="M 60.62175 105.004094 L 73.274094 126.918156 " transform="matrix(1,0,0,-1,7.472,247.758)"/>
<path style="fill-rule:nonzero;fill:rgb(0%,0%,0%);fill-opacity:1;stroke-width:1.79329;stroke-linecap:butt;stroke-linejoin:miter;stroke:rgb(0%,0%,0%);stroke-opacity:1;stroke-miterlimit:10;" d="M -6.90222 4.260312 L 0.473521 0.00101116 L -6.901457 -4.256918 Z M -6.90222 4.260312 " transform="matrix(0.29999,-0.5196,-0.5196,-0.29999,75.83113,129.35572)"/>
<path style="fill:none;stroke-width:1.79329;stroke-linecap:butt;stroke-linejoin:miter;stroke:rgb(0%,0%,0%);stroke-opacity:1;stroke-miterlimit:10;" d="M 60.62175 171.265812 L 73.274094 193.179875 " transform="matrix(1,0,0,-1,7.472,247.758)"/>
<path style="fill-rule:nonzero;fill:rgb(0%,0%,0%);fill-opacity:1;stroke-width:1.79329;stroke-linecap:butt;stroke-linejoin:miter;stroke:rgb(0%,0%,0%);stroke-opacity:1;stroke-miterlimit:10;" d="M -6.904242 4.259144 L 0.471499 -0.000156576 L -6.90348 -4.258085 Z M -6.904242 4.259144 " transform="matrix(0.29999,-0.5196,-0.5196,-0.29999,75.83113,63.0926)"/>
<path style="fill:none;stroke-width:1.79329;stroke-linecap:butt;stroke-linejoin:miter;stroke:rgb(0%,0%,0%);stroke-opacity:1;stroke-miterlimit:10;" d="M 60.62175 93.785344 L 73.274094 71.871281 " transform="matrix(1,0,0,-1,7.472,247.758)"/>
<path style="fill-rule:nonzero;fill:rgb(0%,0%,0%);fill-opacity:1;stroke-width:1.79329;stroke-linecap:butt;stroke-linejoin:miter;stroke:rgb(0%,0%,0%);stroke-opacity:1;stroke-miterlimit:10;" d="M -6.901627 4.257016 L 0.473352 -0.000913245 L -6.90239 -4.260214 Z M -6.901627 4.257016 " transform="matrix(0.29999,0.5196,0.5196,-0.29999,75.83113,167.37096)"/>
<path style="fill:none;stroke-width:1.79329;stroke-linecap:butt;stroke-linejoin:miter;stroke:rgb(0%,0%,0%);stroke-opacity:1;stroke-miterlimit:10;" d="M 60.62175 160.050969 L 73.274094 138.133 " transform="matrix(1,0,0,-1,7.472,247.758)"/>
<path style="fill-rule:nonzero;fill:rgb(0%,0%,0%);fill-opacity:1;stroke-width:1.79329;stroke-linecap:butt;stroke-linejoin:miter;stroke:rgb(0%,0%,0%);stroke-opacity:1;stroke-miterlimit:10;" d="M -6.905257 4.259112 L 0.47536 -0.00207265 L -6.90602 -4.258118 Z M -6.905257 4.259112 " transform="matrix(0.29999,0.5196,0.5196,-0.29999,75.83113,101.10785)"/>
<g clip-path="url(#clip2)" clip-rule="nonzero">
<path style="fill:none;stroke-width:1.79329;stroke-linecap:butt;stroke-linejoin:miter;stroke:rgb(0%,0%,0%);stroke-opacity:1;stroke-miterlimit:10;" d="M 130.660812 93.785344 L 118.008469 71.871281 " transform="matrix(1,0,0,-1,7.472,247.758)"/>
</g>
<path style=" stroke:none;fill-rule:nonzero;fill:rgb(0%,0%,0%);fill-opacity:1;" d="M 134.679688 165.0625 L 130.253906 167.617188 L 130.253906 162.507812 Z M 134.679688 165.0625 "/>
<g clip-path="url(#clip3)" clip-rule="nonzero">
<path style="fill:none;stroke-width:1.79329;stroke-linecap:butt;stroke-linejoin:miter;stroke:rgb(0%,0%,0%);stroke-opacity:1;stroke-miterlimit:10;" d="M -6.90095 4.25772 L 0.474791 -0.00158026 L -6.900187 -4.259509 Z M -6.90095 4.25772 " transform="matrix(-0.29999,0.5196,0.5196,0.29999,130.39716,167.37096)"/>
</g>
<g clip-path="url(#clip4)" clip-rule="nonzero">
<path style="fill:none;stroke-width:1.79329;stroke-linecap:butt;stroke-linejoin:miter;stroke:rgb(0%,0%,0%);stroke-opacity:1;stroke-miterlimit:10;" d="M 130.660812 160.050969 L 118.008469 138.133 " transform="matrix(1,0,0,-1,7.472,247.758)"/>
</g>
<path style=" stroke:none;fill-rule:nonzero;fill:rgb(0%,0%,0%);fill-opacity:1;" d="M 134.679688 98.796875 L 130.253906 101.355469 L 130.253906 96.242188 Z M 134.679688 98.796875 "/>
<g clip-path="url(#clip5)" clip-rule="nonzero">
<path style="fill:none;stroke-width:1.79329;stroke-linecap:butt;stroke-linejoin:miter;stroke:rgb(0%,0%,0%);stroke-opacity:1;stroke-miterlimit:10;" d="M -6.90458 4.255625 L 0.476799 -0.000420858 L -6.903818 -4.261605 Z M -6.90458 4.255625 " transform="matrix(-0.29999,0.5196,0.5196,0.29999,130.39716,101.10785)"/>
</g>
<g clip-path="url(#clip6)" clip-rule="nonzero">
<path style="fill:none;stroke-width:1.79329;stroke-linecap:butt;stroke-linejoin:miter;stroke:rgb(0%,0%,0%);stroke-opacity:1;stroke-miterlimit:10;" d="M 130.660812 226.312687 L 118.008469 204.398625 " transform="matrix(1,0,0,-1,7.472,247.758)"/>
</g>
<path style=" stroke:none;fill-rule:nonzero;fill:rgb(0%,0%,0%);fill-opacity:1;" d="M 134.679688 32.535156 L 130.253906 35.089844 L 130.253906 29.980469 Z M 134.679688 32.535156 "/>
<g clip-path="url(#clip7)" clip-rule="nonzero">
<path style="fill:none;stroke-width:1.79329;stroke-linecap:butt;stroke-linejoin:miter;stroke:rgb(0%,0%,0%);stroke-opacity:1;stroke-miterlimit:10;" d="M -6.902557 4.256792 L 0.473184 -0.00250842 L -6.901795 -4.260437 Z M -6.902557 4.256792 " transform="matrix(-0.29999,0.5196,0.5196,0.29999,130.39716,34.84473)"/>
</g>
<g clip-path="url(#clip8)" clip-rule="nonzero">
<path style="fill:none;stroke-width:1.79329;stroke-linecap:butt;stroke-linejoin:miter;stroke:rgb(0%,0%,0%);stroke-opacity:1;stroke-miterlimit:10;" d="M 130.660812 171.265812 L 118.008469 193.179875 " transform="matrix(1,0,0,-1,7.472,247.758)"/>
</g>
<path style=" stroke:none;fill-rule:nonzero;fill:rgb(0%,0%,0%);fill-opacity:1;" d="M 130.253906 67.957031 L 130.253906 62.847656 L 134.679688 65.402344 Z M 130.253906 67.957031 "/>
<g clip-path="url(#clip9)" clip-rule="nonzero">
<path style="fill:none;stroke-width:1.79329;stroke-linecap:butt;stroke-linejoin:miter;stroke:rgb(0%,0%,0%);stroke-opacity:1;stroke-miterlimit:10;" d="M -6.90204 4.260579 L 0.472938 0.00265009 L -6.902803 -4.256651 Z M -6.90204 4.260579 " transform="matrix(-0.29999,-0.5196,-0.5196,0.29999,130.39716,63.0926)"/>
</g>
<g clip-path="url(#clip10)" clip-rule="nonzero">
<path style="fill:none;stroke-width:1.79329;stroke-linecap:butt;stroke-linejoin:miter;stroke:rgb(0%,0%,0%);stroke-opacity:1;stroke-miterlimit:10;" d="M 130.660812 105.004094 L 118.008469 126.918156 " transform="matrix(1,0,0,-1,7.472,247.758)"/>
</g>
<path style=" stroke:none;fill-rule:nonzero;fill:rgb(0%,0%,0%);fill-opacity:1;" d="M 130.253906 134.21875 L 130.253906 129.109375 L 134.679688 131.664062 Z M 130.253906 134.21875 "/>
<g clip-path="url(#clip11)" clip-rule="nonzero">
<path style="fill:none;stroke-width:1.79329;stroke-linecap:butt;stroke-linejoin:miter;stroke:rgb(0%,0%,0%);stroke-opacity:1;stroke-miterlimit:10;" d="M -6.900018 4.259411 L 0.474961 0.00148235 L -6.90078 -4.257818 Z M -6.900018 4.259411 " transform="matrix(-0.29999,-0.5196,-0.5196,0.29999,130.39716,129.35572)"/>
</g>
<path style="fill:none;stroke-width:1.79329;stroke-linecap:butt;stroke-linejoin:miter;stroke:rgb(0%,0%,0%);stroke-opacity:1;stroke-miterlimit:10;" d="M 25.602219 33.133 L 50.910812 33.133 " transform="matrix(1,0,0,-1,7.472,247.758)"/>
<path style="fill-rule:nonzero;fill:rgb(0%,0%,0%);fill-opacity:1;stroke-width:1.79329;stroke-linecap:butt;stroke-linejoin:miter;stroke:rgb(0%,0%,0%);stroke-opacity:1;stroke-miterlimit:10;" d="M -6.90499 4.260229 L 0.471312 0.00241667 L -6.90499 -4.261906 Z M -6.90499 4.260229 " transform="matrix(0.6,0,0,-0.6,48.55315,214.62645)"/>
<path style="fill:none;stroke-width:1.79329;stroke-linecap:butt;stroke-linejoin:miter;stroke:rgb(0%,0%,0%);stroke-opacity:1;stroke-miterlimit:10;" d="M 25.602219 99.394719 L 50.910812 99.394719 " transform="matrix(1,0,0,-1,7.472,247.758)"/>
<path style="fill-rule:nonzero;fill:rgb(0%,0%,0%);fill-opacity:1;stroke-width:1.79329;stroke-linecap:butt;stroke-linejoin:miter;stroke:rgb(0%,0%,0%);stroke-opacity:1;stroke-miterlimit:10;" d="M -6.90499 4.257894 L 0.471312 0.00008125 L -6.90499 -4.257731 Z M -6.90499 4.257894 " transform="matrix(0.6,0,0,-0.6,48.55315,148.36333)"/>
<path style="fill:none;stroke-width:1.79329;stroke-linecap:butt;stroke-linejoin:miter;stroke:rgb(0%,0%,0%);stroke-opacity:1;stroke-miterlimit:10;" d="M 25.602219 165.656437 L 50.910812 165.656437 " transform="matrix(1,0,0,-1,7.472,247.758)"/>
<path style="fill-rule:nonzero;fill:rgb(0%,0%,0%);fill-opacity:1;stroke-width:1.79329;stroke-linecap:butt;stroke-linejoin:miter;stroke:rgb(0%,0%,0%);stroke-opacity:1;stroke-miterlimit:10;" d="M -6.90499 4.262085 L 0.471312 -0.0022375 L -6.90499 -4.26005 Z M -6.90499 4.262085 " transform="matrix(0.6,0,0,-0.6,48.55315,82.10022)"/>
<path style="fill:none;stroke-width:1.79329;stroke-linecap:butt;stroke-linejoin:miter;stroke:rgb(0%,0%,0%);stroke-opacity:1;stroke-miterlimit:10;" d="M 82.988938 66.261906 L 89.164719 66.261906 " transform="matrix(1,0,0,-1,7.472,247.758)"/>
<path style="fill-rule:nonzero;fill:rgb(0%,0%,0%);fill-opacity:1;stroke-width:1.79329;stroke-linecap:butt;stroke-linejoin:miter;stroke:rgb(0%,0%,0%);stroke-opacity:1;stroke-miterlimit:10;" d="M -6.906619 4.255823 L 0.476194 -0.00198958 L -6.906619 -4.259802 Z M -6.906619 4.255823 " transform="matrix(0.6,0,0,-0.6,96.37444,181.4949)"/>
<path style="fill:none;stroke-width:1.79329;stroke-linecap:butt;stroke-linejoin:miter;stroke:rgb(0%,0%,0%);stroke-opacity:1;stroke-miterlimit:10;" d="M 82.988938 132.527531 L 89.164719 132.527531 " transform="matrix(1,0,0,-1,7.472,247.758)"/>
<path style="fill-rule:nonzero;fill:rgb(0%,0%,0%);fill-opacity:1;stroke-width:1.79329;stroke-linecap:butt;stroke-linejoin:miter;stroke:rgb(0%,0%,0%);stroke-opacity:1;stroke-miterlimit:10;" d="M -6.906619 4.260015 L 0.476194 0.00220208 L -6.906619 -4.262121 Z M -6.906619 4.260015 " transform="matrix(0.6,0,0,-0.6,96.37444,115.23179)"/>
<path style="fill:none;stroke-width:1.79329;stroke-linecap:butt;stroke-linejoin:miter;stroke:rgb(0%,0%,0%);stroke-opacity:1;stroke-miterlimit:10;" d="M 82.988938 198.78925 L 89.164719 198.78925 " transform="matrix(1,0,0,-1,7.472,247.758)"/>
<path style="fill-rule:nonzero;fill:rgb(0%,0%,0%);fill-opacity:1;stroke-width:1.79329;stroke-linecap:butt;stroke-linejoin:miter;stroke:rgb(0%,0%,0%);stroke-opacity:1;stroke-miterlimit:10;" d="M -6.906619 4.257662 L 0.476194 -0.00015 L -6.906619 -4.257963 Z M -6.906619 4.257662 " transform="matrix(0.6,0,0,-0.6,96.37444,48.96866)"/>
<path style="fill:none;stroke-width:1.79329;stroke-linecap:butt;stroke-linejoin:miter;stroke:rgb(0%,0%,0%);stroke-opacity:1;stroke-miterlimit:10;" d="M 108.293625 66.261906 L 102.117844 66.261906 " transform="matrix(1,0,0,-1,7.472,247.758)"/>
<path style="fill-rule:nonzero;fill:rgb(0%,0%,0%);fill-opacity:1;stroke-width:1.79329;stroke-linecap:butt;stroke-linejoin:miter;stroke:rgb(0%,0%,0%);stroke-opacity:1;stroke-miterlimit:10;" d="M -6.90354 4.259802 L 0.472763 0.00198958 L -6.90354 -4.255823 Z M -6.90354 4.259802 " transform="matrix(-0.6,0,0,0.6,109.85397,181.4949)"/>
<path style="fill:none;stroke-width:1.79329;stroke-linecap:butt;stroke-linejoin:miter;stroke:rgb(0%,0%,0%);stroke-opacity:1;stroke-miterlimit:10;" d="M 108.293625 132.527531 L 102.117844 132.527531 " transform="matrix(1,0,0,-1,7.472,247.758)"/>
<path style="fill-rule:nonzero;fill:rgb(0%,0%,0%);fill-opacity:1;stroke-width:1.79329;stroke-linecap:butt;stroke-linejoin:miter;stroke:rgb(0%,0%,0%);stroke-opacity:1;stroke-miterlimit:10;" d="M -6.90354 4.262121 L 0.472763 -0.00220208 L -6.90354 -4.260015 Z M -6.90354 4.262121 " transform="matrix(-0.6,0,0,0.6,109.85397,115.23179)"/>
<path style="fill:none;stroke-width:1.79329;stroke-linecap:butt;stroke-linejoin:miter;stroke:rgb(0%,0%,0%);stroke-opacity:1;stroke-miterlimit:10;" d="M 108.293625 198.78925 L 102.117844 198.78925 " transform="matrix(1,0,0,-1,7.472,247.758)"/>
<path style="fill-rule:nonzero;fill:rgb(0%,0%,0%);fill-opacity:1;stroke-width:1.79329;stroke-linecap:butt;stroke-linejoin:miter;stroke:rgb(0%,0%,0%);stroke-opacity:1;stroke-miterlimit:10;" d="M -6.90354 4.257963 L 0.472763 0.00015 L -6.90354 -4.257662 Z M -6.90354 4.257963 " transform="matrix(-0.6,0,0,0.6,109.85397,48.96866)"/>
<path style="fill:none;stroke-width:1.79329;stroke-linecap:butt;stroke-linejoin:miter;stroke:rgb(100%,0%,0%);stroke-opacity:1;stroke-miterlimit:10;" d="M 95.641281 72.738469 L 95.641281 126.050969 " transform="matrix(1,0,0,-1,7.472,247.758)"/>
<path style="fill-rule:nonzero;fill:rgb(100%,0%,0%);fill-opacity:1;stroke-width:1.79329;stroke-linecap:butt;stroke-linejoin:miter;stroke:rgb(100%,0%,0%);stroke-opacity:1;stroke-miterlimit:10;" d="M -6.901363 4.25916 L 0.47494 0.00134792 L -6.901363 -4.256465 Z M -6.901363 4.25916 " transform="matrix(0,-0.6,-0.6,0,103.11409,145.53887)"/>
<path style="fill:none;stroke-width:1.79329;stroke-linecap:butt;stroke-linejoin:miter;stroke:rgb(100%,0%,0%);stroke-opacity:1;stroke-miterlimit:10;" d="M 95.641281 192.312687 L 95.641281 139.000187 " transform="matrix(1,0,0,-1,7.472,247.758)"/>
<path style="fill-rule:nonzero;fill:rgb(100%,0%,0%);fill-opacity:1;stroke-width:1.79329;stroke-linecap:butt;stroke-linejoin:miter;stroke:rgb(100%,0%,0%);stroke-opacity:1;stroke-miterlimit:10;" d="M -6.905733 4.256465 L 0.470569 -0.00134792 L -6.905733 -4.25916 Z M -6.905733 4.256465 " transform="matrix(0,0.6,0.6,0,103.11409,84.92469)"/>
<path style="fill:none;stroke-width:1.79329;stroke-linecap:butt;stroke-linejoin:miter;stroke:rgb(50%,50%,50%);stroke-opacity:1;stroke-miterlimit:10;" d="M 0.00065625 14.9455 L 0.00065625 6.47675 " transform="matrix(1,0,0,-1,7.472,247.758)"/>
<path style=" stroke:none;fill-rule:nonzero;fill:rgb(50%,50%,50%);fill-opacity:1;" d="M 10.027344 235.730469 L 7.472656 240.15625 L 4.917969 235.730469 Z M 10.027344 235.730469 "/>
<g clip-path="url(#clip12)" clip-rule="nonzero">
<path style="fill:none;stroke-width:1.79329;stroke-linecap:butt;stroke-linejoin:miter;stroke:rgb(50%,50%,50%);stroke-opacity:1;stroke-miterlimit:10;" d="M -6.903385 4.258906 L 0.472917 0.00109375 L -6.903385 -4.256719 Z M -6.903385 4.258906 " transform="matrix(0,0.6,0.6,0,7.472,239.8725)"/>
</g>
<path style="fill:none;stroke-width:1.79329;stroke-linecap:butt;stroke-linejoin:miter;stroke:rgb(50%,50%,50%);stroke-opacity:1;stroke-miterlimit:10;" d="M 19.129562 48.074406 L 19.129562 39.605656 " transform="matrix(1,0,0,-1,7.472,247.758)"/>
<path style="fill-rule:nonzero;fill:rgb(50%,50%,50%);fill-opacity:1;stroke-width:1.79329;stroke-linecap:butt;stroke-linejoin:miter;stroke:rgb(50%,50%,50%);stroke-opacity:1;stroke-miterlimit:10;" d="M -6.905473 4.26005 L 0.470829 0.0022375 L -6.905473 -4.262085 Z M -6.905473 4.26005 " transform="matrix(0,0.6,0.6,0,26.60022,206.74094)"/>
<path style="fill:none;stroke-width:1.79329;stroke-linecap:butt;stroke-linejoin:miter;stroke:rgb(50%,50%,50%);stroke-opacity:1;stroke-miterlimit:10;" d="M 0.00065625 81.207219 L 0.00065625 72.738469 " transform="matrix(1,0,0,-1,7.472,247.758)"/>
<path style="fill-rule:nonzero;fill:rgb(50%,50%,50%);fill-opacity:1;stroke-width:1.79329;stroke-linecap:butt;stroke-linejoin:miter;stroke:rgb(50%,50%,50%);stroke-opacity:1;stroke-miterlimit:10;" d="M -6.90105 4.258906 L 0.475252 0.00109375 L -6.90105 -4.256719 Z M -6.90105 4.258906 " transform="matrix(0,0.6,0.6,0,7.472,173.60938)"/>
<path style="fill:none;stroke-width:1.79329;stroke-linecap:butt;stroke-linejoin:miter;stroke:rgb(50%,50%,50%);stroke-opacity:1;stroke-miterlimit:10;" d="M 19.129562 114.340031 L 19.129562 105.871281 " transform="matrix(1,0,0,-1,7.472,247.758)"/>
<path style="fill-rule:nonzero;fill:rgb(50%,50%,50%);fill-opacity:1;stroke-width:1.79329;stroke-linecap:butt;stroke-linejoin:miter;stroke:rgb(50%,50%,50%);stroke-opacity:1;stroke-miterlimit:10;" d="M -6.903154 4.26005 L 0.473148 0.0022375 L -6.903154 -4.262085 Z M -6.903154 4.26005 " transform="matrix(0,0.6,0.6,0,26.60022,140.47783)"/>
<path style="fill:none;stroke-width:1.79329;stroke-linecap:butt;stroke-linejoin:miter;stroke:rgb(50%,50%,50%);stroke-opacity:1;stroke-miterlimit:10;" d="M 0.00065625 147.468937 L 0.00065625 139.000187 " transform="matrix(1,0,0,-1,7.472,247.758)"/>
<path style="fill-rule:nonzero;fill:rgb(50%,50%,50%);fill-opacity:1;stroke-width:1.79329;stroke-linecap:butt;stroke-linejoin:miter;stroke:rgb(50%,50%,50%);stroke-opacity:1;stroke-miterlimit:10;" d="M -6.905242 4.258906 L 0.47106 0.00109375 L -6.905242 -4.256719 Z M -6.905242 4.258906 " transform="matrix(0,0.6,0.6,0,7.472,107.34627)"/>
<path style="fill:none;stroke-width:1.79329;stroke-linecap:butt;stroke-linejoin:miter;stroke:rgb(50%,50%,50%);stroke-opacity:1;stroke-miterlimit:10;" d="M 19.129562 180.60175 L 19.129562 172.133 " transform="matrix(1,0,0,-1,7.472,247.758)"/>
<path style="fill-rule:nonzero;fill:rgb(50%,50%,50%);fill-opacity:1;stroke-width:1.79329;stroke-linecap:butt;stroke-linejoin:miter;stroke:rgb(50%,50%,50%);stroke-opacity:1;stroke-miterlimit:10;" d="M -6.900819 4.26005 L 0.475483 0.0022375 L -6.900819 -4.262085 Z M -6.900819 4.26005 " transform="matrix(0,0.6,0.6,0,26.60022,74.21471)"/>
<path style="fill:none;stroke-width:1.79329;stroke-linecap:butt;stroke-linejoin:miter;stroke:rgb(50%,50%,50%);stroke-opacity:1;stroke-miterlimit:10;" d="M 57.383469 48.074406 L 57.383469 39.605656 " transform="matrix(1,0,0,-1,7.472,247.758)"/>
<path style="fill-rule:nonzero;fill:rgb(50%,50%,50%);fill-opacity:1;stroke-width:1.79329;stroke-linecap:butt;stroke-linejoin:miter;stroke:rgb(50%,50%,50%);stroke-opacity:1;stroke-miterlimit:10;" d="M -6.905473 4.261521 L 0.470829 -0.00280208 L -6.905473 -4.260615 Z M -6.905473 4.261521 " transform="matrix(0,0.6,0.6,0,64.85715,206.74094)"/>
<path style="fill:none;stroke-width:1.79329;stroke-linecap:butt;stroke-linejoin:miter;stroke:rgb(50%,50%,50%);stroke-opacity:1;stroke-miterlimit:10;" d="M 76.512375 81.207219 L 76.512375 72.738469 " transform="matrix(1,0,0,-1,7.472,247.758)"/>
<path style="fill-rule:nonzero;fill:rgb(50%,50%,50%);fill-opacity:1;stroke-width:1.79329;stroke-linecap:butt;stroke-linejoin:miter;stroke:rgb(50%,50%,50%);stroke-opacity:1;stroke-miterlimit:10;" d="M -6.90105 4.261865 L 0.475252 -0.00245833 L -6.90105 -4.260271 Z M -6.90105 4.261865 " transform="matrix(0,0.6,0.6,0,83.98585,173.60938)"/>
<path style="fill:none;stroke-width:1.79329;stroke-linecap:butt;stroke-linejoin:miter;stroke:rgb(50%,50%,50%);stroke-opacity:1;stroke-miterlimit:10;" d="M 57.383469 114.340031 L 57.383469 105.871281 " transform="matrix(1,0,0,-1,7.472,247.758)"/>
<path style="fill-rule:nonzero;fill:rgb(50%,50%,50%);fill-opacity:1;stroke-width:1.79329;stroke-linecap:butt;stroke-linejoin:miter;stroke:rgb(50%,50%,50%);stroke-opacity:1;stroke-miterlimit:10;" d="M -6.903154 4.261521 L 0.473148 -0.00280208 L -6.903154 -4.260615 Z M -6.903154 4.261521 " transform="matrix(0,0.6,0.6,0,64.85715,140.47783)"/>
<path style="fill:none;stroke-width:1.79329;stroke-linecap:butt;stroke-linejoin:miter;stroke:rgb(50%,50%,50%);stroke-opacity:1;stroke-miterlimit:10;" d="M 76.512375 147.468937 L 76.512375 139.000187 " transform="matrix(1,0,0,-1,7.472,247.758)"/>
<path style="fill-rule:nonzero;fill:rgb(50%,50%,50%);fill-opacity:1;stroke-width:1.79329;stroke-linecap:butt;stroke-linejoin:miter;stroke:rgb(50%,50%,50%);stroke-opacity:1;stroke-miterlimit:10;" d="M -6.905242 4.261865 L 0.47106 -0.00245833 L -6.905242 -4.260271 Z M -6.905242 4.261865 " transform="matrix(0,0.6,0.6,0,83.98585,107.34627)"/>
<path style="fill:none;stroke-width:1.79329;stroke-linecap:butt;stroke-linejoin:miter;stroke:rgb(50%,50%,50%);stroke-opacity:1;stroke-miterlimit:10;" d="M 57.383469 180.60175 L 57.383469 172.133 " transform="matrix(1,0,0,-1,7.472,247.758)"/>
<path style="fill-rule:nonzero;fill:rgb(50%,50%,50%);fill-opacity:1;stroke-width:1.79329;stroke-linecap:butt;stroke-linejoin:miter;stroke:rgb(50%,50%,50%);stroke-opacity:1;stroke-miterlimit:10;" d="M -6.900819 4.261521 L 0.475483 -0.00280208 L -6.900819 -4.260615 Z M -6.900819 4.261521 " transform="matrix(0,0.6,0.6,0,64.85715,74.21471)"/>
<path style="fill:none;stroke-width:1.79329;stroke-linecap:butt;stroke-linejoin:miter;stroke:rgb(50%,50%,50%);stroke-opacity:1;stroke-miterlimit:10;" d="M 76.512375 213.734562 L 76.512375 205.265812 " transform="matrix(1,0,0,-1,7.472,247.758)"/>
<path style="fill-rule:nonzero;fill:rgb(50%,50%,50%);fill-opacity:1;stroke-width:1.79329;stroke-linecap:butt;stroke-linejoin:miter;stroke:rgb(50%,50%,50%);stroke-opacity:1;stroke-miterlimit:10;" d="M -6.902923 4.261865 L 0.473379 -0.00245833 L -6.902923 -4.260271 Z M -6.902923 4.261865 " transform="matrix(0,0.6,0.6,0,83.98585,41.08316)"/>
<path style="fill:none;stroke-width:1.79329;stroke-linecap:butt;stroke-linejoin:miter;stroke:rgb(50%,50%,50%);stroke-opacity:1;stroke-miterlimit:10;" d="M 114.770188 81.207219 L 114.770188 72.738469 " transform="matrix(1,0,0,-1,7.472,247.758)"/>
<path style="fill-rule:nonzero;fill:rgb(50%,50%,50%);fill-opacity:1;stroke-width:1.79329;stroke-linecap:butt;stroke-linejoin:miter;stroke:rgb(50%,50%,50%);stroke-opacity:1;stroke-miterlimit:10;" d="M -6.90105 4.256792 L 0.475252 -0.00102083 L -6.90105 -4.258833 Z M -6.90105 4.256792 " transform="matrix(0,0.6,0.6,0,122.2428,173.60938)"/>
<path style="fill:none;stroke-width:1.79329;stroke-linecap:butt;stroke-linejoin:miter;stroke:rgb(50%,50%,50%);stroke-opacity:1;stroke-miterlimit:10;" d="M 133.899094 114.340031 L 133.899094 105.871281 " transform="matrix(1,0,0,-1,7.472,247.758)"/>
<path style=" stroke:none;fill-rule:nonzero;fill:rgb(50%,50%,50%);fill-opacity:1;" d="M 143.925781 136.335938 L 141.371094 140.761719 L 138.816406 136.335938 Z M 143.925781 136.335938 "/>
<g clip-path="url(#clip13)" clip-rule="nonzero">
<path style="fill:none;stroke-width:1.79329;stroke-linecap:butt;stroke-linejoin:miter;stroke:rgb(50%,50%,50%);stroke-opacity:1;stroke-miterlimit:10;" d="M -6.903154 4.257935 L 0.473148 0.000122917 L -6.903154 -4.25769 Z M -6.903154 4.257935 " transform="matrix(0,0.6,0.6,0,141.37102,140.47783)"/>
</g>
<path style="fill:none;stroke-width:1.79329;stroke-linecap:butt;stroke-linejoin:miter;stroke:rgb(50%,50%,50%);stroke-opacity:1;stroke-miterlimit:10;" d="M 114.770188 147.468937 L 114.770188 139.000187 " transform="matrix(1,0,0,-1,7.472,247.758)"/>
<path style="fill-rule:nonzero;fill:rgb(50%,50%,50%);fill-opacity:1;stroke-width:1.79329;stroke-linecap:butt;stroke-linejoin:miter;stroke:rgb(50%,50%,50%);stroke-opacity:1;stroke-miterlimit:10;" d="M -6.905242 4.256792 L 0.47106 -0.00102083 L -6.905242 -4.258833 Z M -6.905242 4.256792 " transform="matrix(0,0.6,0.6,0,122.2428,107.34627)"/>
<path style="fill:none;stroke-width:1.79329;stroke-linecap:butt;stroke-linejoin:miter;stroke:rgb(50%,50%,50%);stroke-opacity:1;stroke-miterlimit:10;" d="M 133.899094 180.60175 L 133.899094 172.133 " transform="matrix(1,0,0,-1,7.472,247.758)"/>
<path style=" stroke:none;fill-rule:nonzero;fill:rgb(50%,50%,50%);fill-opacity:1;" d="M 143.925781 70.074219 L 141.371094 74.5 L 138.816406 70.074219 Z M 143.925781 70.074219 "/>
<g clip-path="url(#clip14)" clip-rule="nonzero">
<path style="fill:none;stroke-width:1.79329;stroke-linecap:butt;stroke-linejoin:miter;stroke:rgb(50%,50%,50%);stroke-opacity:1;stroke-miterlimit:10;" d="M -6.900819 4.257935 L 0.475483 0.000122917 L -6.900819 -4.25769 Z M -6.900819 4.257935 " transform="matrix(0,0.6,0.6,0,141.37102,74.21471)"/>
</g>
<path style="fill:none;stroke-width:1.79329;stroke-linecap:butt;stroke-linejoin:miter;stroke:rgb(50%,50%,50%);stroke-opacity:1;stroke-miterlimit:10;" d="M 114.770188 213.734562 L 114.770188 205.265812 " transform="matrix(1,0,0,-1,7.472,247.758)"/>
<path style="fill-rule:nonzero;fill:rgb(50%,50%,50%);fill-opacity:1;stroke-width:1.79329;stroke-linecap:butt;stroke-linejoin:miter;stroke:rgb(50%,50%,50%);stroke-opacity:1;stroke-miterlimit:10;" d="M -6.902923 4.256792 L 0.473379 -0.00102083 L -6.902923 -4.258833 Z M -6.902923 4.256792 " transform="matrix(0,0.6,0.6,0,122.2428,41.08316)"/>
<path style="fill:none;stroke-width:1.79329;stroke-linecap:butt;stroke-linejoin:miter;stroke:rgb(50%,50%,50%);stroke-opacity:1;stroke-miterlimit:10;" d="M 133.899094 246.863469 L 133.899094 238.398625 " transform="matrix(1,0,0,-1,7.472,247.758)"/>
<path style=" stroke:none;fill-rule:nonzero;fill:rgb(50%,50%,50%);fill-opacity:1;" d="M 143.925781 3.808594 L 141.371094 8.234375 L 138.816406 3.808594 Z M 143.925781 3.808594 "/>
<g clip-path="url(#clip15)" clip-rule="nonzero">
<path style="fill:none;stroke-width:1.79329;stroke-linecap:butt;stroke-linejoin:miter;stroke:rgb(50%,50%,50%);stroke-opacity:1;stroke-miterlimit:10;" d="M -6.90501 4.257935 L 0.471292 0.000122917 L -6.90501 -4.25769 Z M -6.90501 4.257935 " transform="matrix(0,0.6,0.6,0,141.37102,7.9516)"/>
</g>
<path style=" stroke:none;fill-rule:nonzero;fill:rgb(0%,0%,0%);fill-opacity:1;" d="M 13.949219 247.757812 C 13.949219 244.179688 11.046875 241.28125 7.472656 241.28125 C 3.894531 241.28125 0.996094 244.179688 0.996094 247.757812 C 0.996094 251.335938 3.894531 254.234375 7.472656 254.234375 C 11.046875 254.234375 13.949219 251.335938 13.949219 247.757812 Z M 13.949219 247.757812 "/>
<g clip-path="url(#clip16)" clip-rule="nonzero">
<path style="fill:none;stroke-width:1.99255;stroke-linecap:butt;stroke-linejoin:miter;stroke:rgb(0%,0%,0%);stroke-opacity:1;stroke-miterlimit:10;" d="M 6.477219 0.0001875 C 6.477219 3.578312 3.574875 6.47675 0.00065625 6.47675 C -3.577469 6.47675 -6.475906 3.578312 -6.475906 0.0001875 C -6.475906 -3.577938 -3.577469 -6.476375 0.00065625 -6.476375 C 3.574875 -6.476375 6.477219 -3.577938 6.477219 0.0001875 Z M 6.477219 0.0001875 " transform="matrix(1,0,0,-1,7.472,247.758)"/>
</g>
<path style="fill-rule:nonzero;fill:rgb(0%,0%,0%);fill-opacity:1;stroke-width:1.99255;stroke-linecap:butt;stroke-linejoin:miter;stroke:rgb(0%,0%,0%);stroke-opacity:1;stroke-miterlimit:10;" d="M 25.602219 33.133 C 25.602219 36.707219 22.703781 39.605656 19.129562 39.605656 C 15.551437 39.605656 12.653 36.707219 12.653 33.133 C 12.653 29.554875 15.551437 26.656437 19.129562 26.656437 C 22.703781 26.656437 25.602219 29.554875 25.602219 33.133 Z M 25.602219 33.133 " transform="matrix(1,0,0,-1,7.472,247.758)"/>
<path style="fill-rule:nonzero;fill:rgb(0%,0%,0%);fill-opacity:1;stroke-width:1.99255;stroke-linecap:butt;stroke-linejoin:miter;stroke:rgb(0%,0%,0%);stroke-opacity:1;stroke-miterlimit:10;" d="M 6.477219 66.261906 C 6.477219 69.840031 3.574875 72.738469 0.00065625 72.738469 C -3.577469 72.738469 -6.475906 69.840031 -6.475906 66.261906 C -6.475906 62.687687 -3.577469 59.78925 0.00065625 59.78925 C 3.574875 59.78925 6.477219 62.687687 6.477219 66.261906 Z M 6.477219 66.261906 " transform="matrix(1,0,0,-1,7.472,247.758)"/>
<path style="fill-rule:nonzero;fill:rgb(0%,0%,0%);fill-opacity:1;stroke-width:1.99255;stroke-linecap:butt;stroke-linejoin:miter;stroke:rgb(0%,0%,0%);stroke-opacity:1;stroke-miterlimit:10;" d="M 25.602219 99.394719 C 25.602219 102.972844 22.703781 105.871281 19.129562 105.871281 C 15.551437 105.871281 12.653 102.972844 12.653 99.394719 C 12.653 95.816594 15.551437 92.918156 19.129562 92.918156 C 22.703781 92.918156 25.602219 95.816594 25.602219 99.394719 Z M 25.602219 99.394719 " transform="matrix(1,0,0,-1,7.472,247.758)"/>
<path style="fill-rule:nonzero;fill:rgb(0%,0%,0%);fill-opacity:1;stroke-width:1.99255;stroke-linecap:butt;stroke-linejoin:miter;stroke:rgb(0%,0%,0%);stroke-opacity:1;stroke-miterlimit:10;" d="M 6.477219 132.527531 C 6.477219 136.10175 3.574875 139.000187 0.00065625 139.000187 C -3.577469 139.000187 -6.475906 136.10175 -6.475906 132.527531 C -6.475906 128.949406 -3.577469 126.050969 0.00065625 126.050969 C 3.574875 126.050969 6.477219 128.949406 6.477219 132.527531 Z M 6.477219 132.527531 " transform="matrix(1,0,0,-1,7.472,247.758)"/>
<path style="fill-rule:nonzero;fill:rgb(0%,0%,0%);fill-opacity:1;stroke-width:1.99255;stroke-linecap:butt;stroke-linejoin:miter;stroke:rgb(0%,0%,0%);stroke-opacity:1;stroke-miterlimit:10;" d="M 25.602219 165.656437 C 25.602219 169.234562 22.703781 172.133 19.129562 172.133 C 15.551437 172.133 12.653 169.234562 12.653 165.656437 C 12.653 162.082219 15.551437 159.183781 19.129562 159.183781 C 22.703781 159.183781 25.602219 162.082219 25.602219 165.656437 Z M 25.602219 165.656437 " transform="matrix(1,0,0,-1,7.472,247.758)"/>
<path style="fill-rule:nonzero;fill:rgb(0%,0%,0%);fill-opacity:1;stroke-width:1.99255;stroke-linecap:butt;stroke-linejoin:miter;stroke:rgb(0%,0%,0%);stroke-opacity:1;stroke-miterlimit:10;" d="M 63.860031 33.133 C 63.860031 36.707219 60.961594 39.605656 57.383469 39.605656 C 53.80925 39.605656 50.910812 36.707219 50.910812 33.133 C 50.910812 29.554875 53.80925 26.656437 57.383469 26.656437 C 60.961594 26.656437 63.860031 29.554875 63.860031 33.133 Z M 63.860031 33.133 " transform="matrix(1,0,0,-1,7.472,247.758)"/>
<path style="fill-rule:nonzero;fill:rgb(0%,0%,0%);fill-opacity:1;stroke-width:1.99255;stroke-linecap:butt;stroke-linejoin:miter;stroke:rgb(0%,0%,0%);stroke-opacity:1;stroke-miterlimit:10;" d="M 82.988938 66.261906 C 82.988938 69.840031 80.0905 72.738469 76.512375 72.738469 C 72.938156 72.738469 70.039719 69.840031 70.039719 66.261906 C 70.039719 62.687687 72.938156 59.78925 76.512375 59.78925 C 80.0905 59.78925 82.988938 62.687687 82.988938 66.261906 Z M 82.988938 66.261906 " transform="matrix(1,0,0,-1,7.472,247.758)"/>
<path style="fill-rule:nonzero;fill:rgb(0%,0%,0%);fill-opacity:1;stroke-width:1.99255;stroke-linecap:butt;stroke-linejoin:miter;stroke:rgb(0%,0%,0%);stroke-opacity:1;stroke-miterlimit:10;" d="M 63.860031 99.394719 C 63.860031 102.972844 60.961594 105.871281 57.383469 105.871281 C 53.80925 105.871281 50.910812 102.972844 50.910812 99.394719 C 50.910812 95.816594 53.80925 92.918156 57.383469 92.918156 C 60.961594 92.918156 63.860031 95.816594 63.860031 99.394719 Z M 63.860031 99.394719 " transform="matrix(1,0,0,-1,7.472,247.758)"/>
<path style="fill-rule:nonzero;fill:rgb(0%,0%,0%);fill-opacity:1;stroke-width:1.99255;stroke-linecap:butt;stroke-linejoin:miter;stroke:rgb(0%,0%,0%);stroke-opacity:1;stroke-miterlimit:10;" d="M 82.988938 132.527531 C 82.988938 136.10175 80.0905 139.000187 76.512375 139.000187 C 72.938156 139.000187 70.039719 136.10175 70.039719 132.527531 C 70.039719 128.949406 72.938156 126.050969 76.512375 126.050969 C 80.0905 126.050969 82.988938 128.949406 82.988938 132.527531 Z M 82.988938 132.527531 " transform="matrix(1,0,0,-1,7.472,247.758)"/>
<path style="fill-rule:nonzero;fill:rgb(0%,0%,0%);fill-opacity:1;stroke-width:1.99255;stroke-linecap:butt;stroke-linejoin:miter;stroke:rgb(0%,0%,0%);stroke-opacity:1;stroke-miterlimit:10;" d="M 63.860031 165.656437 C 63.860031 169.234562 60.961594 172.133 57.383469 172.133 C 53.80925 172.133 50.910812 169.234562 50.910812 165.656437 C 50.910812 162.082219 53.80925 159.183781 57.383469 159.183781 C 60.961594 159.183781 63.860031 162.082219 63.860031 165.656437 Z M 63.860031 165.656437 " transform="matrix(1,0,0,-1,7.472,247.758)"/>
<path style="fill-rule:nonzero;fill:rgb(0%,0%,0%);fill-opacity:1;stroke-width:1.99255;stroke-linecap:butt;stroke-linejoin:miter;stroke:rgb(0%,0%,0%);stroke-opacity:1;stroke-miterlimit:10;" d="M 82.988938 198.78925 C 82.988938 202.367375 80.0905 205.265812 76.512375 205.265812 C 72.938156 205.265812 70.039719 202.367375 70.039719 198.78925 C 70.039719 195.211125 72.938156 192.312687 76.512375 192.312687 C 80.0905 192.312687 82.988938 195.211125 82.988938 198.78925 Z M 82.988938 198.78925 " transform="matrix(1,0,0,-1,7.472,247.758)"/>
<path style=" stroke:none;fill-rule:nonzero;fill:rgb(0%,0%,0%);fill-opacity:1;" d="M 128.71875 181.496094 C 128.71875 177.917969 125.820312 175.019531 122.242188 175.019531 C 118.667969 175.019531 115.765625 177.917969 115.765625 181.496094 C 115.765625 185.070312 118.667969 187.96875 122.242188 187.96875 C 125.820312 187.96875 128.71875 185.070312 128.71875 181.496094 Z M 128.71875 181.496094 "/>
<g clip-path="url(#clip17)" clip-rule="nonzero">
<path style="fill:none;stroke-width:1.99255;stroke-linecap:butt;stroke-linejoin:miter;stroke:rgb(0%,0%,0%);stroke-opacity:1;stroke-miterlimit:10;" d="M 121.24675 66.261906 C 121.24675 69.840031 118.348313 72.738469 114.770188 72.738469 C 111.195969 72.738469 108.293625 69.840031 108.293625 66.261906 C 108.293625 62.687687 111.195969 59.78925 114.770188 59.78925 C 118.348313 59.78925 121.24675 62.687687 121.24675 66.261906 Z M 121.24675 66.261906 " transform="matrix(1,0,0,-1,7.472,247.758)"/>
</g>
<path style=" stroke:none;fill-rule:nonzero;fill:rgb(0%,0%,0%);fill-opacity:1;" d="M 147.847656 148.363281 C 147.847656 144.785156 144.949219 141.886719 141.371094 141.886719 C 137.792969 141.886719 134.894531 144.785156 134.894531 148.363281 C 134.894531 151.941406 137.792969 154.839844 141.371094 154.839844 C 144.949219 154.839844 147.847656 151.941406 147.847656 148.363281 Z M 147.847656 148.363281 "/>
<g clip-path="url(#clip18)" clip-rule="nonzero">
<path style="fill:none;stroke-width:1.99255;stroke-linecap:butt;stroke-linejoin:miter;stroke:rgb(0%,0%,0%);stroke-opacity:1;stroke-miterlimit:10;" d="M 140.375656 99.394719 C 140.375656 102.972844 137.477219 105.871281 133.899094 105.871281 C 130.320969 105.871281 127.422531 102.972844 127.422531 99.394719 C 127.422531 95.816594 130.320969 92.918156 133.899094 92.918156 C 137.477219 92.918156 140.375656 95.816594 140.375656 99.394719 Z M 140.375656 99.394719 " transform="matrix(1,0,0,-1,7.472,247.758)"/>
</g>
<path style=" stroke:none;fill-rule:nonzero;fill:rgb(0%,0%,0%);fill-opacity:1;" d="M 128.71875 115.230469 C 128.71875 111.65625 125.820312 108.757812 122.242188 108.757812 C 118.667969 108.757812 115.765625 111.65625 115.765625 115.230469 C 115.765625 118.808594 118.667969 121.707031 122.242188 121.707031 C 125.820312 121.707031 128.71875 118.808594 128.71875 115.230469 Z M 128.71875 115.230469 "/>
<g clip-path="url(#clip19)" clip-rule="nonzero">
<path style="fill:none;stroke-width:1.99255;stroke-linecap:butt;stroke-linejoin:miter;stroke:rgb(0%,0%,0%);stroke-opacity:1;stroke-miterlimit:10;" d="M 121.24675 132.527531 C 121.24675 136.10175 118.348313 139.000187 114.770188 139.000187 C 111.195969 139.000187 108.293625 136.10175 108.293625 132.527531 C 108.293625 128.949406 111.195969 126.050969 114.770188 126.050969 C 118.348313 126.050969 121.24675 128.949406 121.24675 132.527531 Z M 121.24675 132.527531 " transform="matrix(1,0,0,-1,7.472,247.758)"/>
</g>
<path style=" stroke:none;fill-rule:nonzero;fill:rgb(0%,0%,0%);fill-opacity:1;" d="M 147.847656 82.101562 C 147.847656 78.523438 144.949219 75.625 141.371094 75.625 C 137.792969 75.625 134.894531 78.523438 134.894531 82.101562 C 134.894531 85.675781 137.792969 88.574219 141.371094 88.574219 C 144.949219 88.574219 147.847656 85.675781 147.847656 82.101562 Z M 147.847656 82.101562 "/>
<g clip-path="url(#clip20)" clip-rule="nonzero">
<path style="fill:none;stroke-width:1.99255;stroke-linecap:butt;stroke-linejoin:miter;stroke:rgb(0%,0%,0%);stroke-opacity:1;stroke-miterlimit:10;" d="M 140.375656 165.656437 C 140.375656 169.234562 137.477219 172.133 133.899094 172.133 C 130.320969 172.133 127.422531 169.234562 127.422531 165.656437 C 127.422531 162.082219 130.320969 159.183781 133.899094 159.183781 C 137.477219 159.183781 140.375656 162.082219 140.375656 165.656437 Z M 140.375656 165.656437 " transform="matrix(1,0,0,-1,7.472,247.758)"/>
</g>
<path style=" stroke:none;fill-rule:nonzero;fill:rgb(0%,0%,0%);fill-opacity:1;" d="M 128.71875 48.96875 C 128.71875 45.390625 125.820312 42.492188 122.242188 42.492188 C 118.667969 42.492188 115.765625 45.390625 115.765625 48.96875 C 115.765625 52.546875 118.667969 55.445312 122.242188 55.445312 C 125.820312 55.445312 128.71875 52.546875 128.71875 48.96875 Z M 128.71875 48.96875 "/>
<g clip-path="url(#clip21)" clip-rule="nonzero">
<path style="fill:none;stroke-width:1.99255;stroke-linecap:butt;stroke-linejoin:miter;stroke:rgb(0%,0%,0%);stroke-opacity:1;stroke-miterlimit:10;" d="M 121.24675 198.78925 C 121.24675 202.367375 118.348313 205.265812 114.770188 205.265812 C 111.195969 205.265812 108.293625 202.367375 108.293625 198.78925 C 108.293625 195.211125 111.195969 192.312687 114.770188 192.312687 C 118.348313 192.312687 121.24675 195.211125 121.24675 198.78925 Z M 121.24675 198.78925 " transform="matrix(1,0,0,-1,7.472,247.758)"/>
</g>
<path style=" stroke:none;fill-rule:nonzero;fill:rgb(0%,0%,0%);fill-opacity:1;" d="M 147.847656 15.835938 C 147.847656 12.261719 144.949219 9.359375 141.371094 9.359375 C 137.792969 9.359375 134.894531 12.261719 134.894531 15.835938 C 134.894531 19.414062 137.792969 22.3125 141.371094 22.3125 C 144.949219 22.3125 147.847656 19.414062 147.847656 15.835938 Z M 147.847656 15.835938 "/>
<g clip-path="url(#clip22)" clip-rule="nonzero">
<path style="fill:none;stroke-width:1.99255;stroke-linecap:butt;stroke-linejoin:miter;stroke:rgb(0%,0%,0%);stroke-opacity:1;stroke-miterlimit:10;" d="M 140.375656 231.922062 C 140.375656 235.496281 137.477219 238.398625 133.899094 238.398625 C 130.320969 238.398625 127.422531 235.496281 127.422531 231.922062 C 127.422531 228.343937 130.320969 225.4455 133.899094 225.4455 C 137.477219 225.4455 140.375656 228.343937 140.375656 231.922062 Z M 140.375656 231.922062 " transform="matrix(1,0,0,-1,7.472,247.758)"/>
</g>
<path style="fill-rule:nonzero;fill:rgb(100%,0%,0%);fill-opacity:1;stroke-width:1.99255;stroke-linecap:butt;stroke-linejoin:miter;stroke:rgb(0%,0%,0%);stroke-opacity:1;stroke-miterlimit:10;" d="M 102.117844 66.261906 C 102.117844 69.840031 99.219406 72.738469 95.641281 72.738469 C 92.067063 72.738469 89.164719 69.840031 89.164719 66.261906 C 89.164719 62.687687 92.067063 59.78925 95.641281 59.78925 C 99.219406 59.78925 102.117844 62.687687 102.117844 66.261906 Z M 102.117844 66.261906 " transform="matrix(1,0,0,-1,7.472,247.758)"/>
<path style="fill-rule:nonzero;fill:rgb(100%,61.599731%,0%);fill-opacity:1;stroke-width:1.99255;stroke-linecap:butt;stroke-linejoin:miter;stroke:rgb(0%,0%,0%);stroke-opacity:1;stroke-miterlimit:10;" d="M 102.117844 132.527531 C 102.117844 136.10175 99.219406 139.000187 95.641281 139.000187 C 92.067063 139.000187 89.164719 136.10175 89.164719 132.527531 C 89.164719 128.949406 92.067063 126.050969 95.641281 126.050969 C 99.219406 126.050969 102.117844 128.949406 102.117844 132.527531 Z M 102.117844 132.527531 " transform="matrix(1,0,0,-1,7.472,247.758)"/>
<path style="fill-rule:nonzero;fill:rgb(100%,0%,0%);fill-opacity:1;stroke-width:1.99255;stroke-linecap:butt;stroke-linejoin:miter;stroke:rgb(0%,0%,0%);stroke-opacity:1;stroke-miterlimit:10;" d="M 102.117844 198.78925 C 102.117844 202.367375 99.219406 205.265812 95.641281 205.265812 C 92.067063 205.265812 89.164719 202.367375 89.164719 198.78925 C 89.164719 195.211125 92.067063 192.312687 95.641281 192.312687 C 99.219406 192.312687 102.117844 195.211125 102.117844 198.78925 Z M 102.117844 198.78925 " transform="matrix(1,0,0,-1,7.472,247.758)"/>
</g>
</svg>
