<?xml version="1.0" encoding="UTF-8"?>
<svg xmlns="http://www.w3.org/2000/svg" xmlns:xlink="http://www.w3.org/1999/xlink" width="182.316pt" height="313.211pt" viewBox="0 0 182.316 313.211" version="1.1">
<defs>
<clipPath id="clip1">
  <path d="M 0 244 L 54 244 L 54 313.210938 L 0 313.210938 Z M 0 244 "/>
</clipPath>
<clipPath id="clip2">
  <path d="M 128 161 L 182.316406 161 L 182.316406 243 L 128 243 Z M 128 161 "/>
</clipPath>
<clipPath id="clip3">
  <path d="M 128 78 L 182.316406 78 L 182.316406 160 L 128 160 Z M 128 78 "/>
</clipPath>
<clipPath id="clip4">
  <path d="M 128 0 L 182.316406 0 L 182.316406 78 L 128 78 Z M 128 0 "/>
</clipPath>
<clipPath id="clip5">
  <path d="M 128 37 L 182.316406 37 L 182.316406 119 L 128 119 Z M 128 37 "/>
</clipPath>
<clipPath id="clip6">
  <path d="M 128 120 L 182.316406 120 L 182.316406 202 L 128 202 Z M 128 120 "/>
</clipPath>
<clipPath id="clip7">
  <path d="M 0 278 L 26 278 L 26 313.210938 L 0 313.210938 Z M 0 278 "/>
</clipPath>
<clipPath id="clip8">
  <path d="M 157 154 L 182.316406 154 L 182.316406 190 L 157 190 Z M 157 154 "/>
</clipPath>
<clipPath id="clip9">
  <path d="M 157 71 L 182.316406 71 L 182.316406 107 L 157 107 Z M 157 71 "/>
</clipPath>
<clipPath id="clip10">
  <path d="M 157 0 L 182.316406 0 L 182.316406 24 L 157 24 Z M 157 0 "/>
</clipPath>
<clipPath id="clip11">
  <path d="M 0 271 L 43 271 L 43 313.210938 L 0 313.210938 Z M 0 271 "/>
</clipPath>
<clipPath id="clip12">
  <path d="M 116 188 L 182.316406 188 L 182.316406 258 L 116 258 Z M 116 188 "/>
</clipPath>
<clipPath id="clip13">
  <path d="M 140 146 L 182.316406 146 L 182.316406 217 L 140 217 Z M 140 146 "/>
</clipPath>
<clipPath id="clip14">
  <path d="M 116 105 L 182.316406 105 L 182.316406 175 L 116 175 Z M 116 105 "/>
</clipPath>
<clipPath id="clip15">
  <path d="M 140 64 L 182.316406 64 L 182.316406 134 L 140 134 Z M 140 64 "/>
</clipPath>
<clipPath id="clip16">
  <path d="M 116 22 L 182.316406 22 L 182.316406 92 L 116 92 Z M 116 22 "/>
</clipPath>
<clipPath id="clip17">
  <path d="M 140 0 L 182.316406 0 L 182.316406 51 L 140 51 Z M 140 0 "/>
</clipPath>
</defs>
<g id="surface1">
<g clip-path="url(#clip1)" clip-rule="nonzero">
<path style="fill:none;stroke-width:1.79329;stroke-linecap:butt;stroke-linejoin:miter;stroke:rgb(0%,0%,0%);stroke-opacity:1;stroke-miterlimit:10;" d="M 3.238937 5.606187 L 20.672531 35.805406 " transform="matrix(1,0,0,-1,7.472,305.739)"/>
</g>
<path style="fill-rule:nonzero;fill:rgb(0%,0%,0%);fill-opacity:1;stroke-width:1.79329;stroke-linecap:butt;stroke-linejoin:miter;stroke:rgb(0%,0%,0%);stroke-opacity:1;stroke-miterlimit:10;" d="M -6.902398 4.256329 L 0.473343 -0.00297208 L -6.901636 -4.260901 Z M -6.902398 4.256329 " transform="matrix(0.29999,-0.5196,-0.5196,-0.29999,20.83302,282.59662)"/>
<path style="fill:none;stroke-width:1.79329;stroke-linecap:butt;stroke-linejoin:miter;stroke:rgb(0%,0%,0%);stroke-opacity:1;stroke-miterlimit:10;" d="M 3.238937 88.438219 L 20.672531 118.637437 " transform="matrix(1,0,0,-1,7.472,305.739)"/>
<path style="fill-rule:nonzero;fill:rgb(0%,0%,0%);fill-opacity:1;stroke-width:1.79329;stroke-linecap:butt;stroke-linejoin:miter;stroke:rgb(0%,0%,0%);stroke-opacity:1;stroke-miterlimit:10;" d="M -6.903849 4.255491 L 0.471892 -0.0038096 L -6.903086 -4.261738 Z M -6.903849 4.255491 " transform="matrix(0.29999,-0.5196,-0.5196,-0.29999,20.83302,199.76749)"/>
<path style="fill:none;stroke-width:1.79329;stroke-linecap:butt;stroke-linejoin:miter;stroke:rgb(0%,0%,0%);stroke-opacity:1;stroke-miterlimit:10;" d="M 3.238937 171.266344 L 20.672531 201.465562 " transform="matrix(1,0,0,-1,7.472,305.739)"/>
<path style="fill-rule:nonzero;fill:rgb(0%,0%,0%);fill-opacity:1;stroke-width:1.79329;stroke-linecap:butt;stroke-linejoin:miter;stroke:rgb(0%,0%,0%);stroke-opacity:1;stroke-miterlimit:10;" d="M -6.899661 4.257909 L 0.47608 -0.00139183 L -6.904537 -4.262576 Z M -6.899661 4.257909 " transform="matrix(0.29999,-0.5196,-0.5196,-0.29999,20.83302,116.93836)"/>
<path style="fill:none;stroke-width:1.79329;stroke-linecap:butt;stroke-linejoin:miter;stroke:rgb(0%,0%,0%);stroke-opacity:1;stroke-miterlimit:10;" d="M 3.238937 77.219469 L 20.672531 47.024156 " transform="matrix(1,0,0,-1,7.472,305.739)"/>
<path style="fill-rule:nonzero;fill:rgb(0%,0%,0%);fill-opacity:1;stroke-width:1.79329;stroke-linecap:butt;stroke-linejoin:miter;stroke:rgb(0%,0%,0%);stroke-opacity:1;stroke-miterlimit:10;" d="M -6.90226 4.261261 L 0.472719 0.00333251 L -6.903022 -4.255968 Z M -6.90226 4.261261 " transform="matrix(0.29999,0.5196,0.5196,-0.29999,20.83302,246.05225)"/>
<path style="fill:none;stroke-width:1.79329;stroke-linecap:butt;stroke-linejoin:miter;stroke:rgb(0%,0%,0%);stroke-opacity:1;stroke-miterlimit:10;" d="M 3.238937 160.0515 L 20.672531 129.852281 " transform="matrix(1,0,0,-1,7.472,305.739)"/>
<path style="fill-rule:nonzero;fill:rgb(0%,0%,0%);fill-opacity:1;stroke-width:1.79329;stroke-linecap:butt;stroke-linejoin:miter;stroke:rgb(0%,0%,0%);stroke-opacity:1;stroke-miterlimit:10;" d="M -6.900809 4.260424 L 0.474169 0.00249498 L -6.901572 -4.256806 Z M -6.900809 4.260424 " transform="matrix(0.29999,0.5196,0.5196,-0.29999,20.83302,163.22312)"/>
<path style="fill:none;stroke-width:1.79329;stroke-linecap:butt;stroke-linejoin:miter;stroke:rgb(0%,0%,0%);stroke-opacity:1;stroke-miterlimit:10;" d="M 74.969406 47.024156 L 92.403 77.219469 " transform="matrix(1,0,0,-1,7.472,305.739)"/>
<path style="fill-rule:nonzero;fill:rgb(0%,0%,0%);fill-opacity:1;stroke-width:1.79329;stroke-linecap:butt;stroke-linejoin:miter;stroke:rgb(0%,0%,0%);stroke-opacity:1;stroke-miterlimit:10;" d="M -6.904357 4.258029 L 0.471385 -0.00127137 L -6.903594 -4.2592 Z M -6.904357 4.258029 " transform="matrix(0.29999,-0.5196,-0.5196,-0.29999,92.56496,241.18205)"/>
<path style="fill:none;stroke-width:1.79329;stroke-linecap:butt;stroke-linejoin:miter;stroke:rgb(0%,0%,0%);stroke-opacity:1;stroke-miterlimit:10;" d="M 74.969406 129.852281 L 92.403 160.0515 " transform="matrix(1,0,0,-1,7.472,305.739)"/>
<path style="fill-rule:nonzero;fill:rgb(0%,0%,0%);fill-opacity:1;stroke-width:1.79329;stroke-linecap:butt;stroke-linejoin:miter;stroke:rgb(0%,0%,0%);stroke-opacity:1;stroke-miterlimit:10;" d="M -6.905807 4.257192 L 0.475572 0.0011464 L -6.905045 -4.260038 Z M -6.905807 4.257192 " transform="matrix(0.29999,-0.5196,-0.5196,-0.29999,92.56496,158.35292)"/>
<path style="fill:none;stroke-width:1.79329;stroke-linecap:butt;stroke-linejoin:miter;stroke:rgb(0%,0%,0%);stroke-opacity:1;stroke-miterlimit:10;" d="M 74.969406 212.680406 L 92.403 242.879625 " transform="matrix(1,0,0,-1,7.472,305.739)"/>
<path style="fill-rule:nonzero;fill:rgb(0%,0%,0%);fill-opacity:1;stroke-width:1.79329;stroke-linecap:butt;stroke-linejoin:miter;stroke:rgb(0%,0%,0%);stroke-opacity:1;stroke-miterlimit:10;" d="M -6.90162 4.25961 L 0.474122 0.000308877 L -6.900857 -4.25762 Z M -6.90162 4.25961 " transform="matrix(0.29999,-0.5196,-0.5196,-0.29999,92.56496,75.52379)"/>
<path style="fill:none;stroke-width:1.79329;stroke-linecap:butt;stroke-linejoin:miter;stroke:rgb(0%,0%,0%);stroke-opacity:1;stroke-miterlimit:10;" d="M 74.969406 118.637437 L 92.403 88.438219 " transform="matrix(1,0,0,-1,7.472,305.739)"/>
<path style="fill-rule:nonzero;fill:rgb(0%,0%,0%);fill-opacity:1;stroke-width:1.79329;stroke-linecap:butt;stroke-linejoin:miter;stroke:rgb(0%,0%,0%);stroke-opacity:1;stroke-miterlimit:10;" d="M -6.902753 4.258715 L 0.472225 0.000785944 L -6.903516 -4.258515 Z M -6.902753 4.258715 " transform="matrix(0.29999,0.5196,0.5196,-0.29999,92.56496,204.63768)"/>
<path style="fill:none;stroke-width:1.79329;stroke-linecap:butt;stroke-linejoin:miter;stroke:rgb(0%,0%,0%);stroke-opacity:1;stroke-miterlimit:10;" d="M 74.969406 201.465562 L 92.403 171.266344 " transform="matrix(1,0,0,-1,7.472,305.739)"/>
<path style="fill-rule:nonzero;fill:rgb(0%,0%,0%);fill-opacity:1;stroke-width:1.79329;stroke-linecap:butt;stroke-linejoin:miter;stroke:rgb(0%,0%,0%);stroke-opacity:1;stroke-miterlimit:10;" d="M -6.901303 4.257877 L 0.473676 -0.0000515785 L -6.902065 -4.259352 Z M -6.901303 4.257877 " transform="matrix(0.29999,0.5196,0.5196,-0.29999,92.56496,121.80855)"/>
<g clip-path="url(#clip2)" clip-rule="nonzero">
<path style="fill:none;stroke-width:1.79329;stroke-linecap:butt;stroke-linejoin:miter;stroke:rgb(0%,0%,0%);stroke-opacity:1;stroke-miterlimit:10;" d="M 164.137375 118.637437 L 146.699875 88.438219 " transform="matrix(1,0,0,-1,7.472,305.739)"/>
</g>
<path style="fill-rule:nonzero;fill:rgb(0%,0%,0%);fill-opacity:1;stroke-width:1.79329;stroke-linecap:butt;stroke-linejoin:miter;stroke:rgb(0%,0%,0%);stroke-opacity:1;stroke-miterlimit:10;" d="M -6.903809 4.259022 L 0.471933 -0.000278943 L -6.903046 -4.258208 Z M -6.903809 4.259022 " transform="matrix(-0.29999,0.5196,0.5196,0.29999,161.48547,204.63768)"/>
<g clip-path="url(#clip3)" clip-rule="nonzero">
<path style="fill:none;stroke-width:1.79329;stroke-linecap:butt;stroke-linejoin:miter;stroke:rgb(0%,0%,0%);stroke-opacity:1;stroke-miterlimit:10;" d="M 164.137375 201.465562 L 146.699875 171.266344 " transform="matrix(1,0,0,-1,7.472,305.739)"/>
</g>
<path style="fill-rule:nonzero;fill:rgb(0%,0%,0%);fill-opacity:1;stroke-width:1.79329;stroke-linecap:butt;stroke-linejoin:miter;stroke:rgb(0%,0%,0%);stroke-opacity:1;stroke-miterlimit:10;" d="M -6.902358 4.259859 L 0.473383 0.00055858 L -6.901595 -4.25737 Z M -6.902358 4.259859 " transform="matrix(-0.29999,0.5196,0.5196,0.29999,161.48547,121.80855)"/>
<g clip-path="url(#clip4)" clip-rule="nonzero">
<path style="fill:none;stroke-width:1.79329;stroke-linecap:butt;stroke-linejoin:miter;stroke:rgb(0%,0%,0%);stroke-opacity:1;stroke-miterlimit:10;" d="M 164.137375 284.293687 L 146.699875 254.094469 " transform="matrix(1,0,0,-1,7.472,305.739)"/>
</g>
<path style="fill-rule:nonzero;fill:rgb(0%,0%,0%);fill-opacity:1;stroke-width:1.79329;stroke-linecap:butt;stroke-linejoin:miter;stroke:rgb(0%,0%,0%);stroke-opacity:1;stroke-miterlimit:10;" d="M -6.906546 4.257442 L 0.474834 0.0013961 L -6.905783 -4.259788 Z M -6.906546 4.257442 " transform="matrix(-0.29999,0.5196,0.5196,0.29999,161.48547,38.97942)"/>
<g clip-path="url(#clip5)" clip-rule="nonzero">
<path style="fill:none;stroke-width:1.79329;stroke-linecap:butt;stroke-linejoin:miter;stroke:rgb(0%,0%,0%);stroke-opacity:1;stroke-miterlimit:10;" d="M 164.137375 212.680406 L 146.699875 242.879625 " transform="matrix(1,0,0,-1,7.472,305.739)"/>
</g>
<path style="fill-rule:nonzero;fill:rgb(0%,0%,0%);fill-opacity:1;stroke-width:1.79329;stroke-linecap:butt;stroke-linejoin:miter;stroke:rgb(0%,0%,0%);stroke-opacity:1;stroke-miterlimit:10;" d="M -6.90115 4.257113 L 0.473829 -0.000815879 L -6.901912 -4.260117 Z M -6.90115 4.257113 " transform="matrix(-0.29999,-0.5196,-0.5196,0.29999,161.48547,75.52379)"/>
<g clip-path="url(#clip6)" clip-rule="nonzero">
<path style="fill:none;stroke-width:1.79329;stroke-linecap:butt;stroke-linejoin:miter;stroke:rgb(0%,0%,0%);stroke-opacity:1;stroke-miterlimit:10;" d="M 164.137375 129.852281 L 146.699875 160.0515 " transform="matrix(1,0,0,-1,7.472,305.739)"/>
</g>
<path style="fill-rule:nonzero;fill:rgb(0%,0%,0%);fill-opacity:1;stroke-width:1.79329;stroke-linecap:butt;stroke-linejoin:miter;stroke:rgb(0%,0%,0%);stroke-opacity:1;stroke-miterlimit:10;" d="M -6.905337 4.259531 L 0.47528 -0.0016534 L -6.9061 -4.257699 Z M -6.905337 4.259531 " transform="matrix(-0.29999,-0.5196,-0.5196,0.29999,161.48547,158.35292)"/>
<path style="fill:none;stroke-width:1.79329;stroke-linecap:butt;stroke-linejoin:miter;stroke:rgb(0%,0%,0%);stroke-opacity:1;stroke-miterlimit:10;" d="M 30.387375 41.414781 L 65.254563 41.414781 " transform="matrix(1,0,0,-1,7.472,305.739)"/>
<path style="fill-rule:nonzero;fill:rgb(0%,0%,0%);fill-opacity:1;stroke-width:1.79329;stroke-linecap:butt;stroke-linejoin:miter;stroke:rgb(0%,0%,0%);stroke-opacity:1;stroke-miterlimit:10;" d="M -6.901979 4.258165 L 0.474323 0.000352083 L -6.901979 -4.25746 Z M -6.901979 4.258165 " transform="matrix(0.6,0,0,-0.6,58.11775,264.32443)"/>
<path style="fill:none;stroke-width:1.79329;stroke-linecap:butt;stroke-linejoin:miter;stroke:rgb(0%,0%,0%);stroke-opacity:1;stroke-miterlimit:10;" d="M 30.387375 124.242906 L 65.254563 124.242906 " transform="matrix(1,0,0,-1,7.472,305.739)"/>
<path style="fill-rule:nonzero;fill:rgb(0%,0%,0%);fill-opacity:1;stroke-width:1.79329;stroke-linecap:butt;stroke-linejoin:miter;stroke:rgb(0%,0%,0%);stroke-opacity:1;stroke-miterlimit:10;" d="M -6.901979 4.25649 L 0.474323 -0.00132292 L -6.901979 -4.259135 Z M -6.901979 4.25649 " transform="matrix(0.6,0,0,-0.6,58.11775,181.4953)"/>
<path style="fill:none;stroke-width:1.79329;stroke-linecap:butt;stroke-linejoin:miter;stroke:rgb(0%,0%,0%);stroke-opacity:1;stroke-miterlimit:10;" d="M 30.387375 207.071031 L 65.254563 207.071031 " transform="matrix(1,0,0,-1,7.472,305.739)"/>
<path style="fill-rule:nonzero;fill:rgb(0%,0%,0%);fill-opacity:1;stroke-width:1.79329;stroke-linecap:butt;stroke-linejoin:miter;stroke:rgb(0%,0%,0%);stroke-opacity:1;stroke-miterlimit:10;" d="M -6.901979 4.261325 L 0.474323 -0.00299792 L -6.901979 -4.26081 Z M -6.901979 4.261325 " transform="matrix(0.6,0,0,-0.6,58.11775,98.66617)"/>
<path style="fill:none;stroke-width:1.79329;stroke-linecap:butt;stroke-linejoin:miter;stroke:rgb(0%,0%,0%);stroke-opacity:1;stroke-miterlimit:10;" d="M 102.117844 82.828844 L 113.078781 82.828844 " transform="matrix(1,0,0,-1,7.472,305.739)"/>
<path style="fill-rule:nonzero;fill:rgb(0%,0%,0%);fill-opacity:1;stroke-width:1.79329;stroke-linecap:butt;stroke-linejoin:miter;stroke:rgb(0%,0%,0%);stroke-opacity:1;stroke-miterlimit:10;" d="M -6.900756 4.257335 L 0.475546 -0.000477083 L -6.900756 -4.25829 Z M -6.900756 4.257335 " transform="matrix(0.6,0,0,-0.6,117.89436,222.90987)"/>
<path style="fill:none;stroke-width:1.79329;stroke-linecap:butt;stroke-linejoin:miter;stroke:rgb(0%,0%,0%);stroke-opacity:1;stroke-miterlimit:10;" d="M 102.117844 165.656969 L 113.078781 165.656969 " transform="matrix(1,0,0,-1,7.472,305.739)"/>
<path style="fill-rule:nonzero;fill:rgb(0%,0%,0%);fill-opacity:1;stroke-width:1.79329;stroke-linecap:butt;stroke-linejoin:miter;stroke:rgb(0%,0%,0%);stroke-opacity:1;stroke-miterlimit:10;" d="M -6.900756 4.262171 L 0.475546 -0.00215208 L -6.900756 -4.259965 Z M -6.900756 4.262171 " transform="matrix(0.6,0,0,-0.6,117.89436,140.08074)"/>
<path style="fill:none;stroke-width:1.79329;stroke-linecap:butt;stroke-linejoin:miter;stroke:rgb(0%,0%,0%);stroke-opacity:1;stroke-miterlimit:10;" d="M 102.117844 248.489 L 113.078781 248.489 " transform="matrix(1,0,0,-1,7.472,305.739)"/>
<path style="fill-rule:nonzero;fill:rgb(0%,0%,0%);fill-opacity:1;stroke-width:1.79329;stroke-linecap:butt;stroke-linejoin:miter;stroke:rgb(0%,0%,0%);stroke-opacity:1;stroke-miterlimit:10;" d="M -6.900756 4.260479 L 0.475546 0.00266667 L -6.900756 -4.261656 Z M -6.900756 4.260479 " transform="matrix(0.6,0,0,-0.6,117.89436,57.2516)"/>
<path style="fill:none;stroke-width:1.79329;stroke-linecap:butt;stroke-linejoin:miter;stroke:rgb(0%,0%,0%);stroke-opacity:1;stroke-miterlimit:10;" d="M 136.988937 82.828844 L 126.028 82.828844 " transform="matrix(1,0,0,-1,7.472,305.739)"/>
<path style="fill-rule:nonzero;fill:rgb(0%,0%,0%);fill-opacity:1;stroke-width:1.79329;stroke-linecap:butt;stroke-linejoin:miter;stroke:rgb(0%,0%,0%);stroke-opacity:1;stroke-miterlimit:10;" d="M -6.901342 4.25829 L 0.47496 0.000477083 L -6.901342 -4.257335 Z M -6.901342 4.25829 " transform="matrix(-0.6,0,0,0.6,136.15607,222.90987)"/>
<path style="fill:none;stroke-width:1.79329;stroke-linecap:butt;stroke-linejoin:miter;stroke:rgb(0%,0%,0%);stroke-opacity:1;stroke-miterlimit:10;" d="M 136.988937 165.656969 L 126.028 165.656969 " transform="matrix(1,0,0,-1,7.472,305.739)"/>
<path style="fill-rule:nonzero;fill:rgb(0%,0%,0%);fill-opacity:1;stroke-width:1.79329;stroke-linecap:butt;stroke-linejoin:miter;stroke:rgb(0%,0%,0%);stroke-opacity:1;stroke-miterlimit:10;" d="M -6.901342 4.259965 L 0.47496 0.00215208 L -6.901342 -4.262171 Z M -6.901342 4.259965 " transform="matrix(-0.6,0,0,0.6,136.15607,140.08074)"/>
<path style="fill:none;stroke-width:1.79329;stroke-linecap:butt;stroke-linejoin:miter;stroke:rgb(0%,0%,0%);stroke-opacity:1;stroke-miterlimit:10;" d="M 136.988937 248.489 L 126.028 248.489 " transform="matrix(1,0,0,-1,7.472,305.739)"/>
<path style="fill-rule:nonzero;fill:rgb(0%,0%,0%);fill-opacity:1;stroke-width:1.79329;stroke-linecap:butt;stroke-linejoin:miter;stroke:rgb(0%,0%,0%);stroke-opacity:1;stroke-miterlimit:10;" d="M -6.901342 4.261656 L 0.47496 -0.00266667 L -6.901342 -4.260479 Z M -6.901342 4.261656 " transform="matrix(-0.6,0,0,0.6,136.15607,57.2516)"/>
<path style="fill:none;stroke-width:1.79329;stroke-linecap:butt;stroke-linejoin:miter;stroke:rgb(100%,0%,0%);stroke-opacity:1;stroke-miterlimit:10;" d="M 119.551438 89.305406 L 119.551438 159.184312 " transform="matrix(1,0,0,-1,7.472,305.739)"/>
<path style="fill-rule:nonzero;fill:rgb(100%,0%,0%);fill-opacity:1;stroke-width:1.79329;stroke-linecap:butt;stroke-linejoin:miter;stroke:rgb(100%,0%,0%);stroke-opacity:1;stroke-miterlimit:10;" d="M -6.902767 4.260783 L 0.473535 0.00297083 L -6.902767 -4.261352 Z M -6.902767 4.260783 " transform="matrix(0,-0.6,-0.6,0,127.02522,178.67084)"/>
<path style="fill:none;stroke-width:1.79329;stroke-linecap:butt;stroke-linejoin:miter;stroke:rgb(100%,0%,0%);stroke-opacity:1;stroke-miterlimit:10;" d="M 119.551438 242.012437 L 119.551438 172.133531 " transform="matrix(1,0,0,-1,7.472,305.739)"/>
<path style="fill-rule:nonzero;fill:rgb(100%,0%,0%);fill-opacity:1;stroke-width:1.79329;stroke-linecap:butt;stroke-linejoin:miter;stroke:rgb(100%,0%,0%);stroke-opacity:1;stroke-miterlimit:10;" d="M -6.904956 4.261352 L 0.471346 -0.00297083 L -6.904956 -4.260783 Z M -6.904956 4.261352 " transform="matrix(0,0.6,0.6,0,127.02522,101.49063)"/>
<path style="fill:none;stroke-width:1.79329;stroke-linecap:butt;stroke-linejoin:miter;stroke:rgb(50%,50%,50%);stroke-opacity:1;stroke-miterlimit:10;" d="M 0.00065625 14.946031 L 0.00065625 6.477281 " transform="matrix(1,0,0,-1,7.472,305.739)"/>
<path style=" stroke:none;fill-rule:nonzero;fill:rgb(50%,50%,50%);fill-opacity:1;" d="M 10.027344 293.710938 L 7.472656 298.136719 L 4.917969 293.710938 Z M 10.027344 293.710938 "/>
<g clip-path="url(#clip7)" clip-rule="nonzero">
<path style="fill:none;stroke-width:1.79329;stroke-linecap:butt;stroke-linejoin:miter;stroke:rgb(50%,50%,50%);stroke-opacity:1;stroke-miterlimit:10;" d="M -6.904271 4.258906 L 0.472031 0.00109375 L -6.904271 -4.256719 Z M -6.904271 4.258906 " transform="matrix(0,0.6,0.6,0,7.472,297.8535)"/>
</g>
<path style="fill:none;stroke-width:1.79329;stroke-linecap:butt;stroke-linejoin:miter;stroke:rgb(50%,50%,50%);stroke-opacity:1;stroke-miterlimit:10;" d="M 23.910812 56.360094 L 23.910812 47.891344 " transform="matrix(1,0,0,-1,7.472,305.739)"/>
<path style="fill-rule:nonzero;fill:rgb(50%,50%,50%);fill-opacity:1;stroke-width:1.79329;stroke-linecap:butt;stroke-linejoin:miter;stroke:rgb(50%,50%,50%);stroke-opacity:1;stroke-miterlimit:10;" d="M -6.903442 4.2581 L 0.47286 0.0002875 L -6.903442 -4.257525 Z M -6.903442 4.2581 " transform="matrix(0,0.6,0.6,0,31.38264,256.43894)"/>
<path style="fill:none;stroke-width:1.79329;stroke-linecap:butt;stroke-linejoin:miter;stroke:rgb(50%,50%,50%);stroke-opacity:1;stroke-miterlimit:10;" d="M 0.00065625 97.774156 L 0.00065625 89.305406 " transform="matrix(1,0,0,-1,7.472,305.739)"/>
<path style="fill-rule:nonzero;fill:rgb(50%,50%,50%);fill-opacity:1;stroke-width:1.79329;stroke-linecap:butt;stroke-linejoin:miter;stroke:rgb(50%,50%,50%);stroke-opacity:1;stroke-miterlimit:10;" d="M -6.902596 4.258906 L 0.473706 0.00109375 L -6.902596 -4.256719 Z M -6.902596 4.258906 " transform="matrix(0,0.6,0.6,0,7.472,215.02437)"/>
<path style="fill:none;stroke-width:1.79329;stroke-linecap:butt;stroke-linejoin:miter;stroke:rgb(50%,50%,50%);stroke-opacity:1;stroke-miterlimit:10;" d="M 23.910812 139.188219 L 23.910812 130.719469 " transform="matrix(1,0,0,-1,7.472,305.739)"/>
<path style="fill-rule:nonzero;fill:rgb(50%,50%,50%);fill-opacity:1;stroke-width:1.79329;stroke-linecap:butt;stroke-linejoin:miter;stroke:rgb(50%,50%,50%);stroke-opacity:1;stroke-miterlimit:10;" d="M -6.90175 4.2581 L 0.474552 0.0002875 L -6.90175 -4.257525 Z M -6.90175 4.2581 " transform="matrix(0,0.6,0.6,0,31.38264,173.6098)"/>
<path style="fill:none;stroke-width:1.79329;stroke-linecap:butt;stroke-linejoin:miter;stroke:rgb(50%,50%,50%);stroke-opacity:1;stroke-miterlimit:10;" d="M 0.00065625 180.602281 L 0.00065625 172.133531 " transform="matrix(1,0,0,-1,7.472,305.739)"/>
<path style="fill-rule:nonzero;fill:rgb(50%,50%,50%);fill-opacity:1;stroke-width:1.79329;stroke-linecap:butt;stroke-linejoin:miter;stroke:rgb(50%,50%,50%);stroke-opacity:1;stroke-miterlimit:10;" d="M -6.900888 4.258906 L 0.475415 0.00109375 L -6.900888 -4.256719 Z M -6.900888 4.258906 " transform="matrix(0,0.6,0.6,0,7.472,132.19522)"/>
<path style="fill:none;stroke-width:1.79329;stroke-linecap:butt;stroke-linejoin:miter;stroke:rgb(50%,50%,50%);stroke-opacity:1;stroke-miterlimit:10;" d="M 23.910812 222.016344 L 23.910812 213.547594 " transform="matrix(1,0,0,-1,7.472,305.739)"/>
<path style="fill-rule:nonzero;fill:rgb(50%,50%,50%);fill-opacity:1;stroke-width:1.79329;stroke-linecap:butt;stroke-linejoin:miter;stroke:rgb(50%,50%,50%);stroke-opacity:1;stroke-miterlimit:10;" d="M -6.906569 4.2581 L 0.476244 0.0002875 L -6.906569 -4.257525 Z M -6.906569 4.2581 " transform="matrix(0,0.6,0.6,0,31.38264,90.78066)"/>
<path style="fill:none;stroke-width:1.79329;stroke-linecap:butt;stroke-linejoin:miter;stroke:rgb(50%,50%,50%);stroke-opacity:1;stroke-miterlimit:10;" d="M 71.731125 56.360094 L 71.731125 47.891344 " transform="matrix(1,0,0,-1,7.472,305.739)"/>
<path style="fill-rule:nonzero;fill:rgb(50%,50%,50%);fill-opacity:1;stroke-width:1.79329;stroke-linecap:butt;stroke-linejoin:miter;stroke:rgb(50%,50%,50%);stroke-opacity:1;stroke-miterlimit:10;" d="M -6.903442 4.256471 L 0.47286 -0.00134167 L -6.903442 -4.259154 Z M -6.903442 4.256471 " transform="matrix(0,0.6,0.6,0,79.20393,256.43894)"/>
<path style="fill:none;stroke-width:1.79329;stroke-linecap:butt;stroke-linejoin:miter;stroke:rgb(50%,50%,50%);stroke-opacity:1;stroke-miterlimit:10;" d="M 95.641281 97.774156 L 95.641281 89.305406 " transform="matrix(1,0,0,-1,7.472,305.739)"/>
<path style="fill-rule:nonzero;fill:rgb(50%,50%,50%);fill-opacity:1;stroke-width:1.79329;stroke-linecap:butt;stroke-linejoin:miter;stroke:rgb(50%,50%,50%);stroke-opacity:1;stroke-miterlimit:10;" d="M -6.902596 4.262158 L 0.473706 -0.00216458 L -6.902596 -4.259977 Z M -6.902596 4.262158 " transform="matrix(0,0.6,0.6,0,103.11458,215.02437)"/>
<path style="fill:none;stroke-width:1.79329;stroke-linecap:butt;stroke-linejoin:miter;stroke:rgb(50%,50%,50%);stroke-opacity:1;stroke-miterlimit:10;" d="M 71.731125 139.188219 L 71.731125 130.719469 " transform="matrix(1,0,0,-1,7.472,305.739)"/>
<path style="fill-rule:nonzero;fill:rgb(50%,50%,50%);fill-opacity:1;stroke-width:1.79329;stroke-linecap:butt;stroke-linejoin:miter;stroke:rgb(50%,50%,50%);stroke-opacity:1;stroke-miterlimit:10;" d="M -6.90175 4.256471 L 0.474552 -0.00134167 L -6.90175 -4.259154 Z M -6.90175 4.256471 " transform="matrix(0,0.6,0.6,0,79.20393,173.6098)"/>
<path style="fill:none;stroke-width:1.79329;stroke-linecap:butt;stroke-linejoin:miter;stroke:rgb(50%,50%,50%);stroke-opacity:1;stroke-miterlimit:10;" d="M 95.641281 180.602281 L 95.641281 172.133531 " transform="matrix(1,0,0,-1,7.472,305.739)"/>
<path style="fill-rule:nonzero;fill:rgb(50%,50%,50%);fill-opacity:1;stroke-width:1.79329;stroke-linecap:butt;stroke-linejoin:miter;stroke:rgb(50%,50%,50%);stroke-opacity:1;stroke-miterlimit:10;" d="M -6.900888 4.262158 L 0.475415 -0.00216458 L -6.900888 -4.259977 Z M -6.900888 4.262158 " transform="matrix(0,0.6,0.6,0,103.11458,132.19522)"/>
<path style="fill:none;stroke-width:1.79329;stroke-linecap:butt;stroke-linejoin:miter;stroke:rgb(50%,50%,50%);stroke-opacity:1;stroke-miterlimit:10;" d="M 71.731125 222.016344 L 71.731125 213.547594 " transform="matrix(1,0,0,-1,7.472,305.739)"/>
<path style="fill-rule:nonzero;fill:rgb(50%,50%,50%);fill-opacity:1;stroke-width:1.79329;stroke-linecap:butt;stroke-linejoin:miter;stroke:rgb(50%,50%,50%);stroke-opacity:1;stroke-miterlimit:10;" d="M -6.906569 4.256471 L 0.476244 -0.00134167 L -6.906569 -4.259154 Z M -6.906569 4.256471 " transform="matrix(0,0.6,0.6,0,79.20393,90.78066)"/>
<path style="fill:none;stroke-width:1.79329;stroke-linecap:butt;stroke-linejoin:miter;stroke:rgb(50%,50%,50%);stroke-opacity:1;stroke-miterlimit:10;" d="M 95.641281 263.430406 L 95.641281 254.961656 " transform="matrix(1,0,0,-1,7.472,305.739)"/>
<path style="fill-rule:nonzero;fill:rgb(50%,50%,50%);fill-opacity:1;stroke-width:1.79329;stroke-linecap:butt;stroke-linejoin:miter;stroke:rgb(50%,50%,50%);stroke-opacity:1;stroke-miterlimit:10;" d="M -6.905723 4.262158 L 0.470579 -0.00216458 L -6.905723 -4.259977 Z M -6.905723 4.262158 " transform="matrix(0,0.6,0.6,0,103.11458,49.36609)"/>
<path style="fill:none;stroke-width:1.79329;stroke-linecap:butt;stroke-linejoin:miter;stroke:rgb(50%,50%,50%);stroke-opacity:1;stroke-miterlimit:10;" d="M 143.4655 97.774156 L 143.4655 89.305406 " transform="matrix(1,0,0,-1,7.472,305.739)"/>
<path style="fill-rule:nonzero;fill:rgb(50%,50%,50%);fill-opacity:1;stroke-width:1.79329;stroke-linecap:butt;stroke-linejoin:miter;stroke:rgb(50%,50%,50%);stroke-opacity:1;stroke-miterlimit:10;" d="M -6.902596 4.260529 L 0.473706 0.00271667 L -6.902596 -4.261606 Z M -6.902596 4.260529 " transform="matrix(0,0.6,0.6,0,150.93587,215.02437)"/>
<path style="fill:none;stroke-width:1.79329;stroke-linecap:butt;stroke-linejoin:miter;stroke:rgb(50%,50%,50%);stroke-opacity:1;stroke-miterlimit:10;" d="M 167.375656 139.188219 L 167.375656 130.719469 " transform="matrix(1,0,0,-1,7.472,305.739)"/>
<path style=" stroke:none;fill-rule:nonzero;fill:rgb(50%,50%,50%);fill-opacity:1;" d="M 177.402344 169.46875 L 174.847656 173.894531 L 172.292969 169.46875 Z M 177.402344 169.46875 "/>
<g clip-path="url(#clip8)" clip-rule="nonzero">
<path style="fill:none;stroke-width:1.79329;stroke-linecap:butt;stroke-linejoin:miter;stroke:rgb(50%,50%,50%);stroke-opacity:1;stroke-miterlimit:10;" d="M -6.90175 4.259723 L 0.474552 0.00191042 L -6.90175 -4.255902 Z M -6.90175 4.259723 " transform="matrix(0,0.6,0.6,0,174.84651,173.6098)"/>
</g>
<path style="fill:none;stroke-width:1.79329;stroke-linecap:butt;stroke-linejoin:miter;stroke:rgb(50%,50%,50%);stroke-opacity:1;stroke-miterlimit:10;" d="M 143.4655 180.602281 L 143.4655 172.133531 " transform="matrix(1,0,0,-1,7.472,305.739)"/>
<path style="fill-rule:nonzero;fill:rgb(50%,50%,50%);fill-opacity:1;stroke-width:1.79329;stroke-linecap:butt;stroke-linejoin:miter;stroke:rgb(50%,50%,50%);stroke-opacity:1;stroke-miterlimit:10;" d="M -6.900888 4.260529 L 0.475415 0.00271667 L -6.900888 -4.261606 Z M -6.900888 4.260529 " transform="matrix(0,0.6,0.6,0,150.93587,132.19522)"/>
<path style="fill:none;stroke-width:1.79329;stroke-linecap:butt;stroke-linejoin:miter;stroke:rgb(50%,50%,50%);stroke-opacity:1;stroke-miterlimit:10;" d="M 167.375656 222.016344 L 167.375656 213.547594 " transform="matrix(1,0,0,-1,7.472,305.739)"/>
<path style=" stroke:none;fill-rule:nonzero;fill:rgb(50%,50%,50%);fill-opacity:1;" d="M 177.402344 86.636719 L 174.847656 91.066406 L 172.292969 86.636719 Z M 177.402344 86.636719 "/>
<g clip-path="url(#clip9)" clip-rule="nonzero">
<path style="fill:none;stroke-width:1.79329;stroke-linecap:butt;stroke-linejoin:miter;stroke:rgb(50%,50%,50%);stroke-opacity:1;stroke-miterlimit:10;" d="M -6.906569 4.259723 L 0.476244 0.00191042 L -6.906569 -4.255902 Z M -6.906569 4.259723 " transform="matrix(0,0.6,0.6,0,174.84651,90.78066)"/>
</g>
<path style="fill:none;stroke-width:1.79329;stroke-linecap:butt;stroke-linejoin:miter;stroke:rgb(50%,50%,50%);stroke-opacity:1;stroke-miterlimit:10;" d="M 143.4655 263.430406 L 143.4655 254.961656 " transform="matrix(1,0,0,-1,7.472,305.739)"/>
<path style="fill-rule:nonzero;fill:rgb(50%,50%,50%);fill-opacity:1;stroke-width:1.79329;stroke-linecap:butt;stroke-linejoin:miter;stroke:rgb(50%,50%,50%);stroke-opacity:1;stroke-miterlimit:10;" d="M -6.905723 4.260529 L 0.470579 0.00271667 L -6.905723 -4.261606 Z M -6.905723 4.260529 " transform="matrix(0,0.6,0.6,0,150.93587,49.36609)"/>
<path style="fill:none;stroke-width:1.79329;stroke-linecap:butt;stroke-linejoin:miter;stroke:rgb(50%,50%,50%);stroke-opacity:1;stroke-miterlimit:10;" d="M 167.375656 304.844469 L 167.375656 296.379625 " transform="matrix(1,0,0,-1,7.472,305.739)"/>
<path style=" stroke:none;fill-rule:nonzero;fill:rgb(50%,50%,50%);fill-opacity:1;" d="M 177.402344 3.808594 L 174.847656 8.234375 L 172.292969 3.808594 Z M 177.402344 3.808594 "/>
<g clip-path="url(#clip10)" clip-rule="nonzero">
<path style="fill:none;stroke-width:1.79329;stroke-linecap:butt;stroke-linejoin:miter;stroke:rgb(50%,50%,50%);stroke-opacity:1;stroke-miterlimit:10;" d="M -6.904877 4.259723 L 0.471425 0.00191042 L -6.904877 -4.255902 Z M -6.904877 4.259723 " transform="matrix(0,0.6,0.6,0,174.84651,7.95152)"/>
</g>
<path style=" stroke:none;fill-rule:nonzero;fill:rgb(0%,0%,0%);fill-opacity:1;" d="M 13.949219 305.738281 C 13.949219 302.164062 11.046875 299.261719 7.472656 299.261719 C 3.894531 299.261719 0.996094 302.164062 0.996094 305.738281 C 0.996094 309.316406 3.894531 312.214844 7.472656 312.214844 C 11.046875 312.214844 13.949219 309.316406 13.949219 305.738281 Z M 13.949219 305.738281 "/>
<g clip-path="url(#clip11)" clip-rule="nonzero">
<path style="fill:none;stroke-width:1.99255;stroke-linecap:butt;stroke-linejoin:miter;stroke:rgb(0%,0%,0%);stroke-opacity:1;stroke-miterlimit:10;" d="M 6.477219 0.00071875 C 6.477219 3.574937 3.574875 6.477281 0.00065625 6.477281 C -3.577469 6.477281 -6.475906 3.574937 -6.475906 0.00071875 C -6.475906 -3.577406 -3.577469 -6.475844 0.00065625 -6.475844 C 3.574875 -6.475844 6.477219 -3.577406 6.477219 0.00071875 Z M 6.477219 0.00071875 " transform="matrix(1,0,0,-1,7.472,305.739)"/>
</g>
<path style="fill-rule:nonzero;fill:rgb(0%,0%,0%);fill-opacity:1;stroke-width:1.99255;stroke-linecap:butt;stroke-linejoin:miter;stroke:rgb(0%,0%,0%);stroke-opacity:1;stroke-miterlimit:10;" d="M 30.387375 41.414781 C 30.387375 44.992906 27.488937 47.891344 23.910812 47.891344 C 20.332687 47.891344 17.43425 44.992906 17.43425 41.414781 C 17.43425 37.836656 20.332687 34.938219 23.910812 34.938219 C 27.488937 34.938219 30.387375 37.836656 30.387375 41.414781 Z M 30.387375 41.414781 " transform="matrix(1,0,0,-1,7.472,305.739)"/>
<path style="fill-rule:nonzero;fill:rgb(0%,0%,0%);fill-opacity:1;stroke-width:1.99255;stroke-linecap:butt;stroke-linejoin:miter;stroke:rgb(0%,0%,0%);stroke-opacity:1;stroke-miterlimit:10;" d="M 6.477219 82.828844 C 6.477219 86.406969 3.574875 89.305406 0.00065625 89.305406 C -3.577469 89.305406 -6.475906 86.406969 -6.475906 82.828844 C -6.475906 79.250719 -3.577469 76.352281 0.00065625 76.352281 C 3.574875 76.352281 6.477219 79.250719 6.477219 82.828844 Z M 6.477219 82.828844 " transform="matrix(1,0,0,-1,7.472,305.739)"/>
<path style="fill-rule:nonzero;fill:rgb(0%,0%,0%);fill-opacity:1;stroke-width:1.99255;stroke-linecap:butt;stroke-linejoin:miter;stroke:rgb(0%,0%,0%);stroke-opacity:1;stroke-miterlimit:10;" d="M 30.387375 124.242906 C 30.387375 127.821031 27.488937 130.719469 23.910812 130.719469 C 20.332687 130.719469 17.43425 127.821031 17.43425 124.242906 C 17.43425 120.668687 20.332687 117.766344 23.910812 117.766344 C 27.488937 117.766344 30.387375 120.668687 30.387375 124.242906 Z M 30.387375 124.242906 " transform="matrix(1,0,0,-1,7.472,305.739)"/>
<path style="fill-rule:nonzero;fill:rgb(0%,0%,0%);fill-opacity:1;stroke-width:1.99255;stroke-linecap:butt;stroke-linejoin:miter;stroke:rgb(0%,0%,0%);stroke-opacity:1;stroke-miterlimit:10;" d="M 6.477219 165.656969 C 6.477219 169.235094 3.574875 172.133531 0.00065625 172.133531 C -3.577469 172.133531 -6.475906 169.235094 -6.475906 165.656969 C -6.475906 162.08275 -3.577469 159.184312 0.00065625 159.184312 C 3.574875 159.184312 6.477219 162.08275 6.477219 165.656969 Z M 6.477219 165.656969 " transform="matrix(1,0,0,-1,7.472,305.739)"/>
<path style="fill-rule:nonzero;fill:rgb(0%,0%,0%);fill-opacity:1;stroke-width:1.99255;stroke-linecap:butt;stroke-linejoin:miter;stroke:rgb(0%,0%,0%);stroke-opacity:1;stroke-miterlimit:10;" d="M 30.387375 207.071031 C 30.387375 210.649156 27.488937 213.547594 23.910812 213.547594 C 20.332687 213.547594 17.43425 210.649156 17.43425 207.071031 C 17.43425 203.496812 20.332687 200.598375 23.910812 200.598375 C 27.488937 200.598375 30.387375 203.496812 30.387375 207.071031 Z M 30.387375 207.071031 " transform="matrix(1,0,0,-1,7.472,305.739)"/>
<path style="fill-rule:nonzero;fill:rgb(0%,0%,0%);fill-opacity:1;stroke-width:1.99255;stroke-linecap:butt;stroke-linejoin:miter;stroke:rgb(0%,0%,0%);stroke-opacity:1;stroke-miterlimit:10;" d="M 78.207688 41.414781 C 78.207688 44.992906 75.30925 47.891344 71.731125 47.891344 C 68.156906 47.891344 65.254563 44.992906 65.254563 41.414781 C 65.254563 37.836656 68.156906 34.938219 71.731125 34.938219 C 75.30925 34.938219 78.207688 37.836656 78.207688 41.414781 Z M 78.207688 41.414781 " transform="matrix(1,0,0,-1,7.472,305.739)"/>
<path style="fill-rule:nonzero;fill:rgb(0%,0%,0%);fill-opacity:1;stroke-width:1.99255;stroke-linecap:butt;stroke-linejoin:miter;stroke:rgb(0%,0%,0%);stroke-opacity:1;stroke-miterlimit:10;" d="M 102.117844 82.828844 C 102.117844 86.406969 99.219406 89.305406 95.641281 89.305406 C 92.067063 89.305406 89.168625 86.406969 89.168625 82.828844 C 89.168625 79.250719 92.067063 76.352281 95.641281 76.352281 C 99.219406 76.352281 102.117844 79.250719 102.117844 82.828844 Z M 102.117844 82.828844 " transform="matrix(1,0,0,-1,7.472,305.739)"/>
<path style="fill-rule:nonzero;fill:rgb(0%,0%,0%);fill-opacity:1;stroke-width:1.99255;stroke-linecap:butt;stroke-linejoin:miter;stroke:rgb(0%,0%,0%);stroke-opacity:1;stroke-miterlimit:10;" d="M 78.207688 124.242906 C 78.207688 127.821031 75.30925 130.719469 71.731125 130.719469 C 68.156906 130.719469 65.254563 127.821031 65.254563 124.242906 C 65.254563 120.668687 68.156906 117.766344 71.731125 117.766344 C 75.30925 117.766344 78.207688 120.668687 78.207688 124.242906 Z M 78.207688 124.242906 " transform="matrix(1,0,0,-1,7.472,305.739)"/>
<path style="fill-rule:nonzero;fill:rgb(0%,0%,0%);fill-opacity:1;stroke-width:1.99255;stroke-linecap:butt;stroke-linejoin:miter;stroke:rgb(0%,0%,0%);stroke-opacity:1;stroke-miterlimit:10;" d="M 102.117844 165.656969 C 102.117844 169.235094 99.219406 172.133531 95.641281 172.133531 C 92.067063 172.133531 89.168625 169.235094 89.168625 165.656969 C 89.168625 162.08275 92.067063 159.184312 95.641281 159.184312 C 99.219406 159.184312 102.117844 162.08275 102.117844 165.656969 Z M 102.117844 165.656969 " transform="matrix(1,0,0,-1,7.472,305.739)"/>
<path style="fill-rule:nonzero;fill:rgb(0%,0%,0%);fill-opacity:1;stroke-width:1.99255;stroke-linecap:butt;stroke-linejoin:miter;stroke:rgb(0%,0%,0%);stroke-opacity:1;stroke-miterlimit:10;" d="M 78.207688 207.071031 C 78.207688 210.649156 75.30925 213.547594 71.731125 213.547594 C 68.156906 213.547594 65.254563 210.649156 65.254563 207.071031 C 65.254563 203.496812 68.156906 200.598375 71.731125 200.598375 C 75.30925 200.598375 78.207688 203.496812 78.207688 207.071031 Z M 78.207688 207.071031 " transform="matrix(1,0,0,-1,7.472,305.739)"/>
<path style="fill-rule:nonzero;fill:rgb(0%,0%,0%);fill-opacity:1;stroke-width:1.99255;stroke-linecap:butt;stroke-linejoin:miter;stroke:rgb(0%,0%,0%);stroke-opacity:1;stroke-miterlimit:10;" d="M 102.117844 248.489 C 102.117844 252.063219 99.219406 254.961656 95.641281 254.961656 C 92.067063 254.961656 89.168625 252.063219 89.168625 248.489 C 89.168625 244.910875 92.067063 242.012437 95.641281 242.012437 C 99.219406 242.012437 102.117844 244.910875 102.117844 248.489 Z M 102.117844 248.489 " transform="matrix(1,0,0,-1,7.472,305.739)"/>
<path style=" stroke:none;fill-rule:nonzero;fill:rgb(0%,0%,0%);fill-opacity:1;" d="M 157.410156 222.910156 C 157.410156 219.332031 154.511719 216.433594 150.9375 216.433594 C 147.359375 216.433594 144.460938 219.332031 144.460938 222.910156 C 144.460938 226.488281 147.359375 229.386719 150.9375 229.386719 C 154.511719 229.386719 157.410156 226.488281 157.410156 222.910156 Z M 157.410156 222.910156 "/>
<g clip-path="url(#clip12)" clip-rule="nonzero">
<path style="fill:none;stroke-width:1.99255;stroke-linecap:butt;stroke-linejoin:miter;stroke:rgb(0%,0%,0%);stroke-opacity:1;stroke-miterlimit:10;" d="M 149.938156 82.828844 C 149.938156 86.406969 147.039719 89.305406 143.4655 89.305406 C 139.887375 89.305406 136.988937 86.406969 136.988937 82.828844 C 136.988937 79.250719 139.887375 76.352281 143.4655 76.352281 C 147.039719 76.352281 149.938156 79.250719 149.938156 82.828844 Z M 149.938156 82.828844 " transform="matrix(1,0,0,-1,7.472,305.739)"/>
</g>
<path style=" stroke:none;fill-rule:nonzero;fill:rgb(0%,0%,0%);fill-opacity:1;" d="M 181.324219 181.496094 C 181.324219 177.917969 178.421875 175.019531 174.847656 175.019531 C 171.269531 175.019531 168.371094 177.917969 168.371094 181.496094 C 168.371094 185.070312 171.269531 187.972656 174.847656 187.972656 C 178.421875 187.972656 181.324219 185.070312 181.324219 181.496094 Z M 181.324219 181.496094 "/>
<g clip-path="url(#clip13)" clip-rule="nonzero">
<path style="fill:none;stroke-width:1.99255;stroke-linecap:butt;stroke-linejoin:miter;stroke:rgb(0%,0%,0%);stroke-opacity:1;stroke-miterlimit:10;" d="M 173.852219 124.242906 C 173.852219 127.821031 170.949875 130.719469 167.375656 130.719469 C 163.797531 130.719469 160.899094 127.821031 160.899094 124.242906 C 160.899094 120.668687 163.797531 117.766344 167.375656 117.766344 C 170.949875 117.766344 173.852219 120.668687 173.852219 124.242906 Z M 173.852219 124.242906 " transform="matrix(1,0,0,-1,7.472,305.739)"/>
</g>
<path style=" stroke:none;fill-rule:nonzero;fill:rgb(0%,0%,0%);fill-opacity:1;" d="M 157.410156 140.082031 C 157.410156 136.503906 154.511719 133.605469 150.9375 133.605469 C 147.359375 133.605469 144.460938 136.503906 144.460938 140.082031 C 144.460938 143.65625 147.359375 146.554688 150.9375 146.554688 C 154.511719 146.554688 157.410156 143.65625 157.410156 140.082031 Z M 157.410156 140.082031 "/>
<g clip-path="url(#clip14)" clip-rule="nonzero">
<path style="fill:none;stroke-width:1.99255;stroke-linecap:butt;stroke-linejoin:miter;stroke:rgb(0%,0%,0%);stroke-opacity:1;stroke-miterlimit:10;" d="M 149.938156 165.656969 C 149.938156 169.235094 147.039719 172.133531 143.4655 172.133531 C 139.887375 172.133531 136.988937 169.235094 136.988937 165.656969 C 136.988937 162.08275 139.887375 159.184312 143.4655 159.184312 C 147.039719 159.184312 149.938156 162.08275 149.938156 165.656969 Z M 149.938156 165.656969 " transform="matrix(1,0,0,-1,7.472,305.739)"/>
</g>
<path style=" stroke:none;fill-rule:nonzero;fill:rgb(0%,0%,0%);fill-opacity:1;" d="M 181.324219 98.667969 C 181.324219 95.089844 178.421875 92.191406 174.847656 92.191406 C 171.269531 92.191406 168.371094 95.089844 168.371094 98.667969 C 168.371094 102.242188 171.269531 105.140625 174.847656 105.140625 C 178.421875 105.140625 181.324219 102.242188 181.324219 98.667969 Z M 181.324219 98.667969 "/>
<g clip-path="url(#clip15)" clip-rule="nonzero">
<path style="fill:none;stroke-width:1.99255;stroke-linecap:butt;stroke-linejoin:miter;stroke:rgb(0%,0%,0%);stroke-opacity:1;stroke-miterlimit:10;" d="M 173.852219 207.071031 C 173.852219 210.649156 170.949875 213.547594 167.375656 213.547594 C 163.797531 213.547594 160.899094 210.649156 160.899094 207.071031 C 160.899094 203.496812 163.797531 200.598375 167.375656 200.598375 C 170.949875 200.598375 173.852219 203.496812 173.852219 207.071031 Z M 173.852219 207.071031 " transform="matrix(1,0,0,-1,7.472,305.739)"/>
</g>
<path style=" stroke:none;fill-rule:nonzero;fill:rgb(0%,0%,0%);fill-opacity:1;" d="M 157.410156 57.25 C 157.410156 53.675781 154.511719 50.777344 150.9375 50.777344 C 147.359375 50.777344 144.460938 53.675781 144.460938 57.25 C 144.460938 60.828125 147.359375 63.726562 150.9375 63.726562 C 154.511719 63.726562 157.410156 60.828125 157.410156 57.25 Z M 157.410156 57.25 "/>
<g clip-path="url(#clip16)" clip-rule="nonzero">
<path style="fill:none;stroke-width:1.99255;stroke-linecap:butt;stroke-linejoin:miter;stroke:rgb(0%,0%,0%);stroke-opacity:1;stroke-miterlimit:10;" d="M 149.938156 248.489 C 149.938156 252.063219 147.039719 254.961656 143.4655 254.961656 C 139.887375 254.961656 136.988937 252.063219 136.988937 248.489 C 136.988937 244.910875 139.887375 242.012437 143.4655 242.012437 C 147.039719 242.012437 149.938156 244.910875 149.938156 248.489 Z M 149.938156 248.489 " transform="matrix(1,0,0,-1,7.472,305.739)"/>
</g>
<path style=" stroke:none;fill-rule:nonzero;fill:rgb(0%,0%,0%);fill-opacity:1;" d="M 181.324219 15.835938 C 181.324219 12.261719 178.421875 9.359375 174.847656 9.359375 C 171.269531 9.359375 168.371094 12.261719 168.371094 15.835938 C 168.371094 19.414062 171.269531 22.3125 174.847656 22.3125 C 178.421875 22.3125 181.324219 19.414062 181.324219 15.835938 Z M 181.324219 15.835938 "/>
<g clip-path="url(#clip17)" clip-rule="nonzero">
<path style="fill:none;stroke-width:1.99255;stroke-linecap:butt;stroke-linejoin:miter;stroke:rgb(0%,0%,0%);stroke-opacity:1;stroke-miterlimit:10;" d="M 173.852219 289.903062 C 173.852219 293.477281 170.949875 296.379625 167.375656 296.379625 C 163.797531 296.379625 160.899094 293.477281 160.899094 289.903062 C 160.899094 286.324937 163.797531 283.4265 167.375656 283.4265 C 170.949875 283.4265 173.852219 286.324937 173.852219 289.903062 Z M 173.852219 289.903062 " transform="matrix(1,0,0,-1,7.472,305.739)"/>
</g>
<path style="fill-rule:nonzero;fill:rgb(100%,0%,0%);fill-opacity:1;stroke-width:1.99255;stroke-linecap:butt;stroke-linejoin:miter;stroke:rgb(0%,0%,0%);stroke-opacity:1;stroke-miterlimit:10;" d="M 126.028 82.828844 C 126.028 86.406969 123.129563 89.305406 119.551438 89.305406 C 115.977219 89.305406 113.078781 86.406969 113.078781 82.828844 C 113.078781 79.250719 115.977219 76.352281 119.551438 76.352281 C 123.129563 76.352281 126.028 79.250719 126.028 82.828844 Z M 126.028 82.828844 " transform="matrix(1,0,0,-1,7.472,305.739)"/>
<path style="fill-rule:nonzero;fill:rgb(100%,61.599731%,0%);fill-opacity:1;stroke-width:1.99255;stroke-linecap:butt;stroke-linejoin:miter;stroke:rgb(0%,0%,0%);stroke-opacity:1;stroke-miterlimit:10;" d="M 126.028 165.656969 C 126.028 169.235094 123.129563 172.133531 119.551438 172.133531 C 115.977219 172.133531 113.078781 169.235094 113.078781 165.656969 C 113.078781 162.08275 115.977219 159.184312 119.551438 159.184312 C 123.129563 159.184312 126.028 162.08275 126.028 165.656969 Z M 126.028 165.656969 " transform="matrix(1,0,0,-1,7.472,305.739)"/>
<path style="fill-rule:nonzero;fill:rgb(100%,0%,0%);fill-opacity:1;stroke-width:1.99255;stroke-linecap:butt;stroke-linejoin:miter;stroke:rgb(0%,0%,0%);stroke-opacity:1;stroke-miterlimit:10;" d="M 126.028 248.489 C 126.028 252.063219 123.129563 254.961656 119.551438 254.961656 C 115.977219 254.961656 113.078781 252.063219 113.078781 248.489 C 113.078781 244.910875 115.977219 242.012437 119.551438 242.012437 C 123.129563 242.012437 126.028 244.910875 126.028 248.489 Z M 126.028 248.489 " transform="matrix(1,0,0,-1,7.472,305.739)"/>
</g>
</svg>
